<?xml version="1.0" encoding="utf-8"?>
<!-- Generator: Adobe Illustrator 19.2.1, SVG Export Plug-In . SVG Version: 6.00 Build 0)  -->
<svg version="1.1" id="Layer_1" xmlns="http://www.w3.org/2000/svg" xmlns:xlink="http://www.w3.org/1999/xlink" x="0px" y="0px"
	 viewBox="0 0 738.9 90" enable-background="new 0 0 738.9 90" xml:space="preserve">
<g>
	<path fill="#C9AD72" d="M381.5,22.2c0,0-0.4,1.8-1.9,4.5c-0.7,1.3-1.9,2.7-3.5,4c-1.6,1.3-3.7,2.3-6.1,3.2c-2.5,1-5,1.6-7.9,1.8
		c-2.9,0.3-6,0.2-9.2,0c-3.2-0.2-6.5-0.7-9.8-1.4c-3.5-0.7-6.8-1.5-10.3-2.4c-13.7-3.4-27.3-7.4-37.7-10.2
		c-5.2-1.4-9.5-2.4-12.6-3.2c-3-0.7-4.8-1.1-4.8-1.1s6.5,3,16.4,7.2c9.9,4.1,23.4,9,37.4,12.5c3.5,0.8,7.1,1.6,10.5,2.2
		c3.6,0.7,7.2,0.9,10.6,1c3.5,0.1,6.8-0.2,10-0.7c3.2-0.5,6.3-1.7,8.6-3c5-2.5,8.3-6.4,9.3-9.5c0.6-1.5,0.7-2.8,0.8-3.6
		C381.4,22.7,381.5,22.2,381.5,22.2"/>
	<path fill="#C9AD72" d="M273.9,67.5c-6.8,1-16.4-4.6-11.7-9.3c-38.4,38-81.5,11.7-86.8-1.8c-3.8-9.7,5.6-26.7,15.9-19.9
		c3.8,2.5,8.2-3.6,0.7-6.9c-5.3-2.4-12,0-16.1,4.9c-27.2,33,34,59.4,67.5,43.4c8.3-4,12-7.4,18-11.1c5.5,6.1,12.8,7.7,20,4.3
		c-7-10.6-7.5-16.4-0.2-24.2c12-12.9,28.7-19,28.3-19.1c0,0-24.3,6.4-33.1,19C271.9,53.4,270.7,60.3,273.9,67.5"/>
	<path fill="#C9AD72" d="M224.8,34.1c18.5-10.7,36.9-20,58.8-23.1c15.8-2.3,31.2-2.7,45.9,5c15.2,8,24.7,17.7,22.3,38.7
		c-2.1,18.2-15.6,29.6-33.8,27.6C306.8,81,296.2,71.8,299,56.9c1.2-6.1,7.4-9.7,12.6-7.1c2.3,1.1,4.8,8.8,10,6.9
		c3.9-1.4,1.6-9.8-1.5-12.7c-6.6-6-17.9-0.7-21.9,5.6c-10.9,17.3,2.2,32.8,17.8,35.8c13.3,2.5,24.9-2.2,32.7-13.5
		c6.1-8.8,7.5-17.1,6.3-28.3c-1.7-16.3-14.3-28.5-28.6-33.9c-22.6-8.4-45.9-4-68.3,2.6c-21.2,6.2-39.7,18.4-58.5,29.7
		c-7.4,4.5-28.9,15.9-28.9,15.9c-11.3,6.3-23.5,9.9-36.4,9.4c-10.5-0.4-20.1-3.7-26.8-12.7c-10.5-14.3-6.2-33.9,8.8-40.1
		c6.7-2.8,16.6-1.1,19.8,3.3c4.9,6.6,3.5,12.6-3.3,17.5c-0.9,0.6-5,3.1-2.3,6.9c3.3,4.7,12.4,1.7,15.1-4.7
		c5.7-13.6-2.2-25.7-16.8-27.7c-6.8-0.9-20.8,2.2-27.2,15c-6.7,13.4-0.1,28.9,3.3,33.1c8.2,10,19.8,12.1,31.6,12.9
		c13.4,0.9,28.4-4.4,40.6-10.6C177.4,60.3,210.8,42.1,224.8,34.1"/>
	<path fill="#C9AD72" d="M127.4,37.5c18.2-7.7,36.4-14.3,58-16.9c15.6-1.8,30.9-2.4,45.5,2.7c15.1,5.2,24.7,11.8,22.5,26.3
		c-1.9,12.6-15.1,20.6-33.2,19.5c-11-0.7-21.7-6.8-19-17.1c1.1-4.2,7.2-6.8,12.4-5.1c2.3,0.7,6.1,7,10,4.6c4.5-2.8,1.5-6.8-1.6-8.7
		c-6.7-4-17.8-0.2-21.7,4.2c-3.3,3.8-3,8-2.3,11.3c1.5,7.1,9.7,11.8,20.4,13.1c13.2,1.5,24.7-1.9,32.3-9.8
		c5.9-6.1,7.2-11.9,5.9-19.6c-1.9-11.2-14.4-19.4-28.7-22.9c-22.5-5.4-45.5-2-67.7,2.9c-20.9,4.6-39.2,13.3-57.6,21.4
		c-3.7,1.6-15.7,7.3-28.9,11.3c-13.2,4-27.4,6.4-33.8,6.3c-5.2,0-17.1-1.3-23.2-7.1c-10.3-10-6.5-23.2,8.3-27.8
		c6.6-2,13.4-0.6,16.7,2.3c4.9,4.4,3.8,6.5-2.8,10c-0.9,0.5-5.8,3.5-2.8,7.3c5.2,6.6,10.5,0.3,11.4-1.6c6-12.3-4.5-21-15.3-21.6
		c-2.8-0.1-7.8,0.3-12.3,2.6c-3.4,1.7-9.4,4.9-11.7,11.9c-1.8,5.6-0.2,9.4,0.2,10.9c1.2,4.2,9.8,16.6,32,16.4
		c13.3-0.1,28.1-3.5,40.1-7.9C80.7,56.3,113.6,43.2,127.4,37.5"/>
	<path fill="#C9AD72" d="M357.5,22.2c0,0,0.4,1.8,1.9,4.5c0.7,1.3,1.9,2.7,3.5,4c1.6,1.3,3.7,2.3,6.1,3.2c2.5,1,5,1.6,7.9,1.8
		c2.9,0.3,6,0.2,9.2,0c3.2-0.2,6.5-0.7,9.8-1.4c3.5-0.7,6.8-1.5,10.3-2.4c13.7-3.4,27.3-7.4,37.7-10.2c5.2-1.4,9.5-2.4,12.6-3.2
		c3-0.7,4.8-1.1,4.8-1.1s-6.5,3-16.4,7.2c-9.9,4.1-23.4,9-37.4,12.5c-3.5,0.8-7.1,1.6-10.5,2.2c-3.6,0.7-7.2,0.9-10.6,1
		c-3.5,0.1-6.8-0.2-10-0.7c-3.2-0.5-6.3-1.7-8.6-3c-5-2.5-8.3-6.4-9.3-9.5c-0.6-1.5-0.7-2.8-0.8-3.6
		C357.5,22.7,357.5,22.2,357.5,22.2"/>
	<path fill="#C9AD72" d="M462.4,46.8c-8.8-12.6-33.1-19-33.1-19c-0.4,0.1,16.3,6.2,28.3,19.1c7.3,7.8,6.8,13.6-0.2,24.2
		c7.2,3.5,14.5,1.9,20-4.3c6,3.7,9.7,7.1,18,11.1c33.6,16.1,94.7-10.4,67.5-43.4c-4.1-5-10.8-7.3-16.1-4.9c-7.4,3.3-3,9.4,0.7,6.9
		c10.4-6.8,19.7,10.2,15.9,19.9c-5.3,13.6-48.4,39.8-86.8,1.8c4.7,4.6-4.9,10.3-11.7,9.3C468.2,60.3,467,53.4,462.4,46.8"/>
	<path fill="#C9AD72" d="M514.2,34.1c-18.5-10.7-36.9-20-58.8-23.1c-15.8-2.3-31.2-2.7-45.9,5c-15.2,8-24.7,17.7-22.3,38.7
		c2.1,18.2,15.6,29.6,33.8,27.6c11.1-1.2,21.7-10.5,18.9-25.3c-1.2-6.1-7.4-9.7-12.6-7.1c-2.3,1.1-4.8,8.8-10,6.9
		c-3.9-1.4-1.6-9.8,1.5-12.7c6.6-6,17.9-0.7,21.9,5.6c10.9,17.3-2.2,32.8-17.8,35.8c-13.3,2.5-24.9-2.2-32.7-13.5
		c-6.1-8.8-7.5-17.1-6.3-28.3c1.7-16.3,14.3-28.5,28.6-33.9c22.6-8.4,45.9-4,68.3,2.6c21.2,6.2,39.7,18.4,58.5,29.7
		c7.4,4.5,28.9,15.9,28.9,15.9c11.3,6.3,23.5,9.9,36.4,9.4c10.5-0.4,20.1-3.7,26.8-12.7c10.5-14.3,6.2-33.9-8.8-40.1
		c-6.7-2.8-16.6-1.1-19.8,3.3c-4.9,6.6-3.5,12.6,3.3,17.5c0.9,0.6,5,3.1,2.3,6.9c-3.3,4.7-12.4,1.7-15.1-4.7
		c-5.7-13.6,2.2-25.7,16.8-27.7c6.8-0.9,20.8,2.2,27.2,15c6.7,13.4,0.1,28.9-3.3,33.1c-8.2,10-19.8,12.1-31.6,12.9
		c-13.4,0.9-28.4-4.4-40.6-10.6C561.6,60.3,528.1,42.1,514.2,34.1"/>
	<path fill="#C9AD72" d="M611.6,37.5c-18.2-7.7-36.4-14.3-58-16.9c-15.6-1.8-30.9-2.4-45.5,2.7c-15.1,5.2-24.7,11.8-22.5,26.3
		c1.9,12.6,15.1,20.6,33.2,19.5c11-0.7,21.7-6.8,19-17.1c-1.1-4.2-7.2-6.8-12.4-5.1c-2.3,0.7-6.1,7-10,4.6c-4.5-2.8-1.5-6.8,1.6-8.7
		c6.7-4,17.8-0.2,21.7,4.2c3.3,3.8,3,8,2.3,11.3c-1.5,7.1-9.7,11.8-20.4,13.1c-13.2,1.5-24.7-1.9-32.3-9.8
		c-5.9-6.1-7.2-11.9-5.9-19.6c1.9-11.2,14.4-19.4,28.7-22.9c22.5-5.4,45.5-2,67.7,2.9c20.9,4.6,39.2,13.3,57.6,21.4
		c3.7,1.6,15.7,7.3,28.9,11.3c13.2,4,27.4,6.4,33.8,6.3c5.2,0,17.1-1.3,23.2-7.1c10.3-10,6.5-23.2-8.3-27.8
		c-6.6-2-13.4-0.6-16.7,2.3c-4.9,4.4-3.8,6.5,2.8,10c0.9,0.5,5.8,3.5,2.8,7.3c-5.2,6.6-10.5,0.3-11.4-1.6c-6-12.3,4.5-21,15.3-21.6
		c2.8-0.1,7.8,0.3,12.3,2.6c3.4,1.7,9.4,4.9,11.7,11.9c1.8,5.6,0.2,9.4-0.2,10.9c-1.2,4.2-9.8,16.6-32,16.4
		c-13.3-0.1-28.1-3.5-40.1-7.9C658.3,56.3,625.3,43.2,611.6,37.5"/>
	<path fill="#C9AD72" d="M374.5,54.9c0-4.2-2.3-7.5-5-7.5s-5,3.4-5,7.5s2.3,7.5,5,7.5S374.5,59,374.5,54.9"/>
</g>
</svg>
