<?xml version="1.0" encoding="utf-8"?>
<!-- Generator: Adobe Illustrator 18.1.1, SVG Export Plug-In . SVG Version: 6.00 Build 0)  -->
<!DOCTYPE svg PUBLIC "-//W3C//DTD SVG 1.1//EN" "http://www.w3.org/Graphics/SVG/1.1/DTD/svg11.dtd">
<svg version="1.1" id="Layer_1" xmlns="http://www.w3.org/2000/svg" xmlns:xlink="http://www.w3.org/1999/xlink" x="0px" y="0px"
	 viewBox="0 0 48 48" enable-background="new 0 0 48 48" xml:space="preserve">
<path fill="#2F363B" d="M48,4.3v39.3c0,2.4-1.9,4.3-4.3,4.3H33.1V29.4h6l1.2-6.7h-7.2v-6c0-1.7,0.7-2.7,4.1-2.7h3.1V7.7
	c0,0-1.3-0.4-6.1-0.4c-4.9,0-8.7,3.9-8.7,8.7v1.5v5.3h-6.2v6.7h6.2V48H4.3C1.9,48,0,46.1,0,43.7V4.3C0,1.9,1.9,0,4.3,0h39.3
	C46.1,0,48,1.9,48,4.3z"/>
</svg>
