<?xml version="1.0" encoding="utf-8"?>
<!-- Generator: Adobe Illustrator 21.1.0, SVG Export Plug-In . SVG Version: 6.00 Build 0)  -->
<svg version="1.1" id="Layer_1" xmlns="http://www.w3.org/2000/svg" xmlns:xlink="http://www.w3.org/1999/xlink" x="0px" y="0px"
	 viewBox="0 0 1133.9 926.1" enable-background="new 0 0 1133.9 926.1" xml:space="preserve">
<g>
	<g>
		<path fill="#55B2EA" d="M264.8,404.5h11.1v139.3h87.8v10.3h-98.9V404.5z"/>
		<path fill="#55B2EA" d="M788.7,403.5h10.7L869,554.1h-12.2l-19-41.9h-88.2l-19,41.9h-11.5L788.7,403.5z M833.2,502.2l-39.3-86.5
			l-39.5,86.5H833.2z"/>
	</g>
	<path fill="#55B2EA" d="M715.9,554.1"/>
	<g>
		<path fill="#55B2EA" d="M537.3,187c2,34-9.1,63.1-25.4,91.3c21.7,10,42.9,21.4,63,34.4c11.5-30.8,15.9-67.9,5.8-117.2
			c-13.9-67.4-49-121.8-103.5-155.3C517.7,71.4,534.4,136,537.3,187z"/>
		<path fill="#55B2EA" d="M472.7,494c7.6-40.4,29.7-70,52.4-99.9c-3.3-5-6.9-9.9-9.9-14.5c-11.4-17.3-23.9-33.8-37.2-49.7
			c-37.1,53.6-75.7,112.3-63.5,202.5c13.6,100.5,86.7,149.9,112.3,159.6C505.1,670.3,457.7,573.2,472.7,494z"/>
	</g>
	<path fill="#55B2EA" d="M695.4,596.5c0,0-59.8-3.7-81.5-23.3c-11.3-10.1-19.9-22.8-29.7-34.4c-9.7-11.6-21-22.6-35.3-27.8
		c-14.2-5.2-31.9-3.4-42.1,7.8c-8.9,9.8-10.4,24.1-10.6,37.3c-0.3,22.6,2,45.1,6.7,67.2c2.3,10.6,6,19.4,9.9,29.5
		c1.9,5,6.4,15.7,8.3,20.8c-0.1-21.5,18.7-55,56-50.4c10,1.3,53.1,7.4,76.6,1.4C682.7,617.3,692.1,597.2,695.4,596.5L695.4,596.5z"
		/>
	<g>
		<path fill="#55B2EA" d="M55.3,790.1h29.6c17.9,0,30.3,9.2,30.3,24.9v0.2c0,17.1-14.8,26-31.8,26h-22v30.4h-6.1V790.1z M83.7,835.7
			c15.2,0,25.4-7.9,25.4-20v-0.2c0-12.9-10-19.7-24.7-19.7H61.4v40H83.7z"/>
		<path fill="#55B2EA" d="M190.7,790.1h6.1v76h47.9v5.6h-54V790.1z"/>
		<path fill="#55B2EA" d="M314.5,837.8v-47.7h6.1v47.1c0,19.2,10.4,30.3,27.6,30.3c16.5,0,27.2-10,27.2-29.7v-47.7h6.1v47
			c0,23.4-13.6,35.9-33.5,35.9C328.3,873,314.5,860.6,314.5,837.8z"/>
		<path fill="#55B2EA" d="M464,790.1h5.7l32.8,48.3l32.7-48.3h5.7v81.6h-6.1v-70.9l-32.3,47h-0.5l-32.3-47v70.9H464V790.1z"/>
		<path fill="#55B2EA" d="M624.4,790.1h33.7c9.2,0,16.7,2.7,21.2,7.2c3.4,3.4,5.2,7.7,5.2,12.8v0.2c0,11.1-7.2,16.7-13.9,19.3
			c9.8,2.6,18.4,8.2,18.4,19.5v0.2c0,13.6-11.7,22.3-29.3,22.3h-35.4V790.1z M657.4,827.7c12.2,0,21-5.9,21-16.8v-0.2
			c0-9-7.3-15-20.4-15h-27.5v32.1H657.4z M660.1,866.1c14,0,22.8-6.4,22.8-16.7v-0.2c0-10-8.7-15.8-24.8-15.8h-27.6v32.8H660.1z"/>
		<path fill="#55B2EA" d="M768.5,790.1h6.1v81.6h-6.1V790.1z"/>
		<path fill="#55B2EA" d="M858.3,790.1h5.7l56.3,71v-71h5.8v81.6h-4.5l-57.5-72.5v72.5h-5.8V790.1z"/>
		<path fill="#55B2EA" d="M1005.5,831.1v-0.2c0-22,16-42.2,40.3-42.2c13.3,0,21.7,4,29.8,10.7l-4,4.5c-6.4-5.6-13.9-9.8-26.2-9.8
			c-19.8,0-33.7,16.8-33.7,36.5v0.2c0,21.1,13.2,36.8,35,36.8c10.4,0,20-4.3,26-9.3V835h-27.3v-5.6h33.1v31.5
			c-7.3,6.5-18.8,12.2-32.1,12.2C1020.7,873.1,1005.5,854.1,1005.5,831.1z"/>
	</g>
</g>
<g>
	<path fill="#0085CA" d="M627.1,634.4C627.1,634.4,627.1,634.4,627.1,634.4c-9.3,0-18.8-0.6-27.1-1.4c-27.4,45.1-61.6,73-61.6,73
		s59.8-22.3,104.3-72.3C637.9,634.2,632.8,634.4,627.1,634.4z"/>
	<path fill="#0085CA" d="M572.7,517c6.7,5.5,12.3,11.7,16.9,17.3c2.9,3.4,5.7,6.9,8.3,10.4c4.7,5.9,9.2,11.6,14.1,16.9
		c20.2-111.2-49.3-188.7-49.3-188.7s57.1,26.9,69.7,127.6c3.2,25.9,0.4,50.4-5.9,72.9c12.6,6.8,31.7,11.1,47.4,13.6
		c14.7-31.2,21.2-69,11.5-114.1c-36-167.4-262.3-219.3-271.7-224.7c49.4,46,139.2,135.9,156.9,252.8
		C571.4,506.2,572.1,511.5,572.7,517z"/>
	<path fill="#0085CA" d="M578.4,630.6l-2.3-0.3c-2-0.3-4.1-0.4-6-0.4c-1.1,0-2.2,0.1-3.3,0.1c-5.3,22-13.6,42.8-25.6,60.6
		c0,0,22.2-26.5,41.9-59.4C581.3,631,579.7,630.8,578.4,630.6z"/>
</g>
<g>
	<g>
		<g>
			<path fill="#0085CA" d="M-969.2,404.5h11.1v139.3h87.8v10.3h-98.9V404.5z"/>
			<path fill="#0085CA" d="M-445.3,403.5h10.7l69.6,150.6h-12.2l-19-41.9h-88.2l-19,41.9h-11.5L-445.3,403.5z M-400.8,502.2
				l-39.3-86.5l-39.5,86.5H-400.8z"/>
		</g>
		<path fill="#0085CA" d="M-518.1,554.1"/>
		<g>
			<path fill="#0085CA" d="M-696.7,187c2,34-9.1,63.1-25.4,91.3c21.7,10,42.9,21.4,63,34.4c11.5-30.8,15.9-67.9,5.8-117.2
				c-13.9-67.4-49-121.8-103.5-155.3C-716.3,71.4-699.6,136-696.7,187z"/>
			<path fill="#0085CA" d="M-761.3,494c7.6-40.4,29.7-70,52.4-99.9c-3.3-5-6.9-9.9-9.9-14.5c-11.4-17.3-23.9-33.8-37.2-49.7
				c-37.1,53.6-75.7,112.3-63.5,202.5c13.6,100.5,86.7,149.9,112.3,159.6C-728.9,670.3-776.3,573.2-761.3,494z"/>
		</g>
		<path fill="#0085CA" d="M-538.6,596.5c0,0-59.8-3.7-81.5-23.3c-11.3-10.1-19.9-22.8-29.7-34.4c-9.7-11.6-21-22.6-35.3-27.8
			c-14.2-5.2-31.9-3.4-42.1,7.8c-8.9,9.8-10.4,24.1-10.6,37.3c-0.3,22.6,2,45.1,6.7,67.2c2.3,10.6,6,19.4,9.9,29.5
			c1.9,5,6.4,15.7,8.3,20.8c-0.1-21.5,18.7-55,56-50.4c10,1.3,53.1,7.4,76.6,1.4C-551.3,617.3-541.9,597.2-538.6,596.5L-538.6,596.5
			z"/>
		<g>
			<path fill="#0085CA" d="M-1178.7,790.1h29.6c17.9,0,30.3,9.2,30.3,24.9v0.2c0,17.1-14.8,26-31.8,26h-22v30.4h-6.1V790.1z
				 M-1150.3,835.7c15.2,0,25.4-7.9,25.4-20v-0.2c0-12.9-10-19.7-24.7-19.7h-23.1v40H-1150.3z"/>
			<path fill="#0085CA" d="M-1043.3,790.1h6.1v76h47.9v5.6h-54V790.1z"/>
			<path fill="#0085CA" d="M-919.5,837.8v-47.7h6.1v47.1c0,19.2,10.4,30.3,27.6,30.3c16.5,0,27.2-10,27.2-29.7v-47.7h6.1v47
				c0,23.4-13.6,35.9-33.5,35.9C-905.7,873-919.5,860.6-919.5,837.8z"/>
			<path fill="#0085CA" d="M-770,790.1h5.7l32.8,48.3l32.7-48.3h5.7v81.6h-6.1v-70.9l-32.3,47h-0.5l-32.3-47v70.9h-5.8V790.1z"/>
			<path fill="#0085CA" d="M-609.6,790.1h33.7c9.2,0,16.7,2.7,21.2,7.2c3.4,3.4,5.2,7.7,5.2,12.8v0.2c0,11.1-7.2,16.7-13.9,19.3
				c9.8,2.6,18.4,8.2,18.4,19.5v0.2c0,13.6-11.7,22.3-29.3,22.3h-35.4V790.1z M-576.6,827.7c12.2,0,21-5.9,21-16.8v-0.2
				c0-9-7.3-15-20.4-15h-27.5v32.1H-576.6z M-573.9,866.1c14,0,22.8-6.4,22.8-16.7v-0.2c0-10-8.7-15.8-24.8-15.8h-27.6v32.8H-573.9z
				"/>
			<path fill="#0085CA" d="M-465.5,790.1h6.1v81.6h-6.1V790.1z"/>
			<path fill="#0085CA" d="M-375.7,790.1h5.7l56.3,71v-71h5.8v81.6h-4.5l-57.5-72.5v72.5h-5.8V790.1z"/>
			<path fill="#0085CA" d="M-228.5,831.1v-0.2c0-22,16-42.2,40.3-42.2c13.3,0,21.7,4,29.8,10.7l-4,4.5c-6.4-5.6-13.9-9.8-26.2-9.8
				c-19.8,0-33.7,16.8-33.7,36.5v0.2c0,21.1,13.2,36.8,35,36.8c10.4,0,20-4.3,26-9.3V835h-27.3v-5.6h33.1v31.5
				c-7.3,6.5-18.8,12.2-32.1,12.2C-213.3,873.1-228.5,854.1-228.5,831.1z"/>
		</g>
	</g>
	<g>
		<path fill="#55B2EA" d="M-606.9,634.4C-606.9,634.4-606.9,634.4-606.9,634.4c-9.3,0-18.8-0.6-27.1-1.4c-27.4,45.1-61.6,73-61.6,73
			s59.8-22.3,104.3-72.3C-596.1,634.2-601.2,634.4-606.9,634.4z"/>
		<path fill="#55B2EA" d="M-661.3,517c6.7,5.5,12.3,11.7,16.9,17.3c2.9,3.4,5.7,6.9,8.3,10.4c4.7,5.9,9.2,11.6,14.1,16.9
			c20.2-111.2-49.3-188.7-49.3-188.7s57.1,26.9,69.7,127.6c3.2,25.9,0.4,50.4-5.9,72.9c12.6,6.8,31.7,11.1,47.4,13.6
			c14.7-31.2,21.2-69,11.5-114.1c-36-167.4-262.3-219.3-271.7-224.7c49.4,46,139.2,135.9,156.9,252.8
			C-662.6,506.2-661.9,511.5-661.3,517z"/>
		<path fill="#55B2EA" d="M-655.6,630.6l-2.3-0.3c-2-0.3-4.1-0.4-6-0.4c-1.1,0-2.2,0.1-3.3,0.1c-5.3,22-13.6,42.8-25.6,60.6
			c0,0,22.2-26.5,41.9-59.4C-652.7,631-654.3,630.8-655.6,630.6z"/>
	</g>
</g>
</svg>
