<?xml version="1.0" encoding="utf-8"?>
<!-- Generator: Adobe Illustrator 22.0.1, SVG Export Plug-In . SVG Version: 6.00 Build 0)  -->
<svg version="1.1" id="Layer_1" xmlns="http://www.w3.org/2000/svg" xmlns:xlink="http://www.w3.org/1999/xlink" x="0px" y="0px"
	 viewBox="0 0 199.7 118" style="enable-background:new 0 0 199.7 118;" xml:space="preserve">
<style type="text/css">
	.st0{fill:#93B93B;}
</style>
<g>
	<path class="st0" d="M177.8,42.5c-0.1,0.1-0.1,0.2-0.2,0.3c0,0.1-0.1,0.2-0.1,0.3c-0.2,0.4-0.4,0.9-0.6,1.4
		c-0.1,0.3-0.2,0.5-0.3,0.8c-0.1,0.2-0.2,0.4-0.2,0.6c0,0,0,0,0,0c0,0.1,0,0.1-0.1,0.2c-0.2,0.6-0.4,1.2-0.5,1.9
		c0,0.2-0.1,0.4-0.1,0.6c0,0.2,0,0.3-0.1,0.5c-0.3-0.5-0.6-1-1-1.4c-0.1-0.2-0.2-0.3-0.3-0.5c-0.1-0.2-0.2-0.3-0.3-0.4
		c-0.2-0.3-0.4-0.5-0.5-0.7c-0.3-0.4-0.5-0.6-0.5-0.6s0.1,0.2,0.3,0.6c0.1,0.2,0.2,0.4,0.3,0.7c0.1,0.1,0.1,0.3,0.2,0.5
		c0.1,0.2,0.1,0.3,0.2,0.5c0.1,0.2,0.2,0.4,0.3,0.7c0,0.1-0.3,0.9-0.8,2c-0.5,1.2-1.2,2.8-2,4.4c-0.1,0.3-0.3,0.5-0.4,0.8
		c-0.1-0.7-0.1-1.4-0.1-2.1c0-0.9,0.1-1.7,0.3-2.6c0.2-0.8,0.3-1.6,0.6-2.3c0.1-0.3,0.2-0.6,0.3-0.9c0.1-0.3,0.2-0.5,0.3-0.7
		c0.2-0.4,0.3-0.6,0.3-0.6s-0.2,0.2-0.4,0.5c-0.1,0.2-0.3,0.4-0.5,0.6c-0.2,0.2-0.4,0.5-0.6,0.8c-0.4,0.6-0.9,1.4-1.3,2.2
		c-0.4,0.8-0.8,1.7-1.1,2.6c-0.1,0.2-0.1,0.3-0.2,0.5c0-0.1,0-0.2,0-0.2c-0.1-1.1,0-2.3,0.1-3.4c0-0.4,0.1-0.7,0.1-1
		c0.3-0.5,0.5-1,0.8-1.5c0.4-0.8,0.8-1.4,1.1-1.9c0.3-0.4,0.4-0.7,0.4-0.7s-0.2,0.2-0.6,0.6c-0.4,0.4-0.9,1-1.5,1.7
		c0.1-1,0.3-1.8,0.5-2.4c0.1-0.3,0.2-0.5,0.3-0.6c0.1-0.1,0.1-0.2,0.1-0.2s-0.1,0.1-0.2,0.2c-0.1,0.1-0.2,0.3-0.4,0.6
		c-0.3,0.5-0.7,1.3-1,2.1c-0.2,0.4-0.3,0.9-0.5,1.4c-0.1,0.2-0.1,0.3-0.2,0.5c-0.2,0.3-0.5,0.6-0.7,0.9c-0.5,0.6-0.9,1.2-1.4,1.8
		c0-0.4,0.1-0.7,0.1-1c0-0.6,0.1-1.2,0.1-1.5c0-0.4,0-0.6,0-0.6s-0.3,0.8-0.8,2c-0.5,1.2-1.2,2.8-2,4.4c-0.1,0.3-0.3,0.5-0.4,0.8
		c-0.1-0.7-0.1-1.4-0.1-2.1c0-0.9,0.1-1.7,0.3-2.6c0.2-0.8,0.3-1.6,0.6-2.3c0.1-0.3,0.2-0.6,0.3-0.9c0.1-0.3,0.2-0.5,0.3-0.7
		c0.2-0.4,0.3-0.6,0.3-0.6s-0.2,0.2-0.4,0.5c-0.1,0.2-0.3,0.4-0.5,0.6c-0.2,0.2-0.4,0.5-0.6,0.8c-0.4,0.6-0.9,1.4-1.3,2.2
		c-0.4,0.8-0.8,1.7-1.1,2.6c-0.1,0.2-0.1,0.3-0.2,0.5c0-0.1,0-0.2,0-0.2c-0.1-1.1,0-2.3,0.1-3.4c0.1-1.1,0.2-2.1,0.3-3
		c0.1-0.9,0.3-1.6,0.5-2.2c0.1-0.3,0.2-0.5,0.3-0.6c0.1-0.1,0.1-0.2,0.1-0.2s-0.1,0.1-0.2,0.2c-0.1,0.1-0.2,0.3-0.4,0.6
		c-0.3,0.5-0.7,1.3-1,2.1c-0.2,0.4-0.3,0.9-0.5,1.3c-0.1-0.4-0.2-0.7-0.3-1c0.4-0.7,0.7-1.2,0.9-1.6c0.3-0.4,0.4-0.7,0.4-0.7
		s-0.2,0.2-0.6,0.6c-0.3,0.3-0.6,0.6-1,1.1c-0.1-0.3-0.2-0.5-0.3-0.8c-0.3-0.8-0.7-1.4-1-1.9c-0.1-0.2-0.3-0.4-0.3-0.5
		c-0.1-0.1-0.1-0.2-0.1-0.2s0,0.1,0.1,0.2c0,0.1,0.1,0.3,0.2,0.5c0.2,0.5,0.4,1.1,0.5,1.9c0.1,0.5,0.1,1.1,0.1,1.7
		c-0.5,0.6-1.1,1.3-1.8,2.1c-0.5,0.6-0.9,1.2-1.4,1.8c0-0.4,0.1-0.7,0.1-1c0-0.6,0.1-1.2,0.1-1.5c0-0.4,0-0.6,0-0.6s-0.3,0.8-0.8,2
		c-0.5,1.2-1.2,2.8-2,4.4c-0.1,0.3-0.3,0.5-0.4,0.8c-0.1-0.7-0.1-1.4-0.1-2.1c0-0.9,0.1-1.7,0.3-2.6c0.2-0.8,0.3-1.6,0.6-2.3
		c0.1-0.3,0.2-0.6,0.3-0.9c0.1-0.3,0.2-0.5,0.3-0.7c0.2-0.4,0.3-0.6,0.3-0.6s-0.2,0.2-0.4,0.5c-0.1,0.2-0.3,0.4-0.5,0.6
		c-0.2,0.2-0.4,0.5-0.6,0.8c-0.4,0.6-0.9,1.4-1.3,2.2c-0.4,0.8-0.8,1.7-1.1,2.6c-0.1,0.2-0.1,0.3-0.2,0.5c0-0.1,0-0.2,0-0.2
		c-0.1-1.1,0-2.3,0.1-3.4c0.1-1.1,0.2-2.1,0.3-3c0.1-0.9,0.3-1.6,0.5-2.2c0.1-0.3,0.2-0.5,0.3-0.6c0.1-0.1,0.1-0.2,0.1-0.2
		s-0.1,0.1-0.2,0.2c-0.1,0.1-0.2,0.3-0.4,0.6c-0.3,0.5-0.7,1.3-1,2.1c-0.2,0.4-0.3,0.9-0.5,1.3c-0.2-0.9-0.5-1.7-0.8-2.4
		c-0.3-0.8-0.7-1.4-1-1.9c-0.1-0.2-0.3-0.4-0.3-0.5c-0.1-0.1-0.1-0.2-0.1-0.2s0,0.1,0.1,0.2c0,0.1,0.1,0.3,0.2,0.5
		c0.2,0.5,0.4,1.1,0.5,1.9c0.1,0.8,0.2,1.8,0.1,2.8c0,0.5-0.1,1-0.2,1.6c-0.1,0.5-0.2,1.1-0.4,1.6c-0.4,1.3-0.9,2.7-1.5,3.8
		c-0.1-0.9-0.1-1.9-0.1-2.9c0-1.2,0-2.4,0-3.6c0.1-1.1,0.1-2.2,0.2-3.1c0-0.5,0.1-0.9,0.1-1.3c0-0.4,0.1-0.7,0.1-1
		c0.1-0.5,0.1-0.8,0.1-0.8s-0.1,0.3-0.3,0.8c-0.1,0.3-0.2,0.6-0.3,0.9c-0.1,0.4-0.3,0.8-0.4,1.2c-0.3,0.9-0.6,1.9-0.9,3.1
		c-0.3,1.1-0.6,2.3-0.9,3.6c-0.1,0.5-0.2,1-0.3,1.4c-0.2-0.7-0.5-1.4-0.6-2.1c-0.3-1-0.4-1.9-0.5-2.9c0.3-0.6,0.6-1.1,0.8-1.5
		c0.4-0.8,0.8-1.4,1.1-1.9c0.3-0.4,0.4-0.7,0.4-0.7s-0.2,0.2-0.6,0.6c-0.4,0.4-0.9,1-1.5,1.7c-0.1,0.1-0.2,0.2-0.3,0.3
		c0-1.1,0.1-2.2,0.3-3.1c0.1-0.5,0.2-1,0.4-1.4c0-0.1,0.1-0.2,0.1-0.3c0-0.1,0.1-0.2,0.1-0.3c0.1-0.2,0.1-0.3,0.2-0.5
		c0.2-0.6,0.3-0.9,0.3-0.9s-0.2,0.3-0.5,0.9c-0.1,0.1-0.2,0.3-0.3,0.5c-0.1,0.1-0.1,0.2-0.2,0.3c0,0.1-0.1,0.2-0.1,0.3
		c-0.2,0.4-0.4,0.9-0.6,1.4c-0.1,0.3-0.2,0.5-0.3,0.8c-0.1,0.2-0.2,0.4-0.2,0.6c0,0,0,0,0,0c0,0.1,0,0.1-0.1,0.2
		c-0.2,0.6-0.4,1.2-0.5,1.9c0,0.2-0.1,0.4-0.1,0.5c0,0.2,0,0.3-0.1,0.5c-0.3-0.5-0.6-1-1-1.4c-0.1-0.2-0.2-0.3-0.3-0.5
		c-0.1-0.2-0.2-0.3-0.3-0.4c-0.2-0.3-0.4-0.5-0.6-0.7c-0.3-0.4-0.5-0.6-0.5-0.6s0.1,0.2,0.3,0.6c0.1,0.2,0.2,0.4,0.3,0.7
		c0.1,0.1,0.1,0.3,0.2,0.5c0.1,0.2,0.1,0.3,0.2,0.5c0.1,0.2,0.2,0.4,0.3,0.7c0,0.1-0.3,0.9-0.8,2c-0.5,1.2-1.2,2.8-2,4.4
		c-0.1,0.3-0.3,0.5-0.4,0.8c-0.1-0.7-0.1-1.4-0.1-2.1c0-0.9,0.1-1.7,0.3-2.6c0.2-0.8,0.3-1.6,0.6-2.3c0.1-0.3,0.2-0.6,0.3-0.9
		c0.1-0.3,0.2-0.5,0.3-0.7c0.2-0.4,0.3-0.6,0.3-0.6s-0.2,0.2-0.4,0.5c-0.1,0.2-0.3,0.4-0.5,0.6c-0.2,0.2-0.4,0.5-0.6,0.8
		c-0.4,0.6-0.9,1.4-1.3,2.2c-0.4,0.8-0.8,1.7-1.1,2.6c-0.1,0.2-0.1,0.3-0.2,0.5c0-0.1,0-0.2,0-0.2c-0.1-1.1,0-2.3,0.1-3.4
		c0.1-1.1,0.2-2.1,0.3-3c0.1-0.9,0.3-1.6,0.5-2.2c0.1-0.3,0.2-0.5,0.3-0.6c0.1-0.1,0.1-0.2,0.1-0.2s-0.1,0.1-0.2,0.2
		c-0.1,0.1-0.2,0.3-0.4,0.6c-0.3,0.5-0.7,1.3-1,2.1c-0.2,0.4-0.3,0.9-0.5,1.3c-0.2-0.9-0.5-1.7-0.8-2.4c-0.3-0.8-0.7-1.4-1-1.9
		c-0.1-0.2-0.3-0.4-0.3-0.5c-0.1-0.1-0.1-0.2-0.1-0.2s0,0.1,0.1,0.2c0,0.1,0.1,0.3,0.2,0.5c0.2,0.5,0.4,1.1,0.5,1.9
		c0.1,0.8,0.2,1.8,0.1,2.8c0,0.5-0.1,1-0.2,1.6c-0.1,0.5-0.2,1.1-0.4,1.6c-0.4,1.3-0.9,2.7-1.5,3.8c-0.1-0.9-0.1-1.9-0.1-2.9
		c0-1.2,0-2.4,0-3.6c0.1-1.1,0.1-2.2,0.2-3.1c0-0.5,0.1-0.9,0.1-1.3c0-0.4,0.1-0.7,0.1-1c0.1-0.5,0.1-0.8,0.1-0.8s-0.1,0.3-0.3,0.8
		c-0.1,0.3-0.2,0.6-0.3,0.9c-0.1,0.4-0.3,0.8-0.4,1.2c-0.3,0.9-0.6,1.9-0.9,3.1c-0.1,0.4-0.2,0.8-0.3,1.2c-0.5-4.6-0.8-8.8-0.8-8.8
		s-0.8,5.3-1.2,10.6c-0.1,0.6-0.1,1.2-0.1,1.7c0,0.5-1,0.5-1.1,0c-0.1-0.8-0.2-1.7-0.3-2.6c-0.2-1.6-0.3-3.2-0.4-4.7
		c0.2-0.3,0.4-0.6,0.5-0.9c0.3-0.4,0.4-0.7,0.4-0.7s-0.2,0.2-0.6,0.6c-0.1,0.1-0.2,0.3-0.4,0.4c0-0.7-0.1-1.4-0.1-2
		c0-1-0.1-1.8-0.1-2.4c0-0.6,0-0.9,0-0.9s-0.1,0.3-0.2,0.9c-0.1,0.6-0.3,1.4-0.4,2.4c-0.2,1-0.4,2.2-0.6,3.5c-0.5,0.6-1.1,1.3-1.7,2
		c-0.4-0.8-0.9-1.4-1.3-2c-0.1-0.2-0.2-0.3-0.3-0.5c-0.1-0.2-0.2-0.3-0.3-0.4c-0.2-0.3-0.4-0.5-0.5-0.7c-0.3-0.4-0.5-0.6-0.5-0.6
		s0.1,0.2,0.3,0.6c0.1,0.2,0.2,0.4,0.3,0.7c0.1,0.1,0.1,0.3,0.2,0.5c0.1,0.2,0.1,0.3,0.2,0.5c0.2,0.4,0.3,0.8,0.4,1.3
		c-0.1,0.4-0.3,0.8-0.6,1.4c-0.5,1.2-1.2,2.8-2,4.4c-0.1,0.3-0.3,0.5-0.4,0.8c-0.1-0.7-0.1-1.4-0.1-2.1c0-0.9,0.1-1.7,0.3-2.6
		c0.2-0.8,0.3-1.6,0.6-2.3c0.1-0.3,0.2-0.6,0.3-0.9c0.1-0.3,0.2-0.5,0.3-0.7c0.2-0.4,0.3-0.6,0.3-0.6s-0.2,0.2-0.4,0.5
		c-0.1,0.2-0.3,0.4-0.5,0.6c-0.2,0.2-0.4,0.5-0.6,0.8c-0.4,0.6-0.9,1.4-1.3,2.2c-0.4,0.8-0.8,1.7-1.1,2.6c-0.1,0.2-0.1,0.3-0.2,0.5
		c0-0.1,0-0.2,0-0.2c-0.1-1.1,0-2.3,0.1-3.4c0.1-1.1,0.2-2.1,0.3-3c0.1-0.9,0.3-1.6,0.5-2.2c0.1-0.3,0.2-0.5,0.3-0.6
		c0.1-0.1,0.1-0.2,0.1-0.2s-0.1,0.1-0.2,0.2c-0.1,0.1-0.2,0.3-0.4,0.6c-0.3,0.5-0.7,1.3-1,2.1c-0.2,0.4-0.3,0.9-0.5,1.3
		c-0.2-0.9-0.5-1.7-0.8-2.4c-0.3-0.8-0.7-1.4-1-1.9c-0.1-0.2-0.3-0.4-0.3-0.5c-0.1-0.1-0.1-0.2-0.1-0.2s0,0.1,0.1,0.2
		c0,0.1,0.1,0.3,0.2,0.5c0.2,0.5,0.4,1.1,0.5,1.9c0.1,0.8,0.2,1.8,0.1,2.8c0,0.5-0.1,1-0.2,1.6c-0.1,0.5-0.2,1.1-0.4,1.6
		c-0.4,1.3-0.9,2.7-1.5,3.8c-0.1-0.9-0.1-1.9-0.1-2.9c0-1.2,0-2.4,0-3.6c0.1-1.1,0.1-2.2,0.2-3.1c0-0.5,0.1-0.9,0.1-1.3
		c0-0.4,0.1-0.7,0.1-1C108,43.3,108,43,108,43s-0.1,0.3-0.3,0.8c-0.1,0.3-0.2,0.6-0.3,0.9c-0.1,0.4-0.3,0.8-0.4,1.2
		c-0.3,0.9-0.6,1.9-0.9,3.1c-0.3,1.1-0.6,2.3-0.9,3.6c-0.1,0.5-0.2,1-0.3,1.4c-0.2-0.7-0.5-1.4-0.6-2.1c-0.3-1-0.4-1.9-0.5-2.9
		c0.3-0.6,0.6-1.1,0.8-1.5c0.4-0.8,0.8-1.4,1.1-1.9c0.3-0.4,0.4-0.7,0.4-0.7s-0.2,0.2-0.6,0.6c-0.4,0.4-0.9,1-1.5,1.7
		c-0.1,0.1-0.2,0.2-0.3,0.3c0-1.1,0.1-2.2,0.3-3.1c0.1-0.5,0.2-1,0.4-1.4c0-0.1,0.1-0.2,0.1-0.3c0-0.1,0.1-0.2,0.1-0.3
		c0.1-0.2,0.1-0.3,0.2-0.5c0.2-0.6,0.3-0.9,0.3-0.9s-0.2,0.3-0.5,0.9c-0.1,0.1-0.2,0.3-0.3,0.5c-0.1,0.1-0.1,0.2-0.2,0.3
		c0,0.1-0.1,0.2-0.1,0.3c-0.2,0.4-0.4,0.9-0.6,1.4c-0.1,0.3-0.2,0.5-0.3,0.8c-0.1,0.2-0.2,0.4-0.2,0.6c0,0,0,0,0,0
		c0,0.1,0,0.1-0.1,0.2c-0.2,0.6-0.4,1.2-0.5,1.9c0,0.2-0.1,0.4-0.1,0.5c0,0.2,0,0.3-0.1,0.5c-0.3-0.5-0.6-1-1-1.4
		c-0.1-0.2-0.2-0.3-0.3-0.5c-0.1-0.2-0.2-0.3-0.3-0.4c-0.2-0.3-0.4-0.5-0.5-0.7c-0.3-0.4-0.5-0.6-0.5-0.6s0.1,0.2,0.3,0.6
		c0.1,0.2,0.2,0.4,0.3,0.7c0.1,0.1,0.1,0.3,0.2,0.5c0.1,0.2,0.1,0.3,0.2,0.5c0.1,0.2,0.2,0.4,0.3,0.7c0,0.1-0.3,0.9-0.8,2
		c-0.5,1.2-1.2,2.8-2,4.4c-0.1,0.3-0.3,0.5-0.4,0.8c-0.1-0.7-0.1-1.4-0.1-2.1c0-0.9,0.1-1.7,0.3-2.6c0.2-0.8,0.3-1.6,0.6-2.3
		c0.1-0.3,0.2-0.6,0.3-0.9c0.1-0.3,0.2-0.5,0.3-0.7c0.2-0.4,0.3-0.6,0.3-0.6s-0.2,0.2-0.4,0.5c-0.1,0.2-0.3,0.4-0.5,0.6
		c-0.2,0.2-0.4,0.5-0.6,0.8c-0.4,0.6-0.9,1.4-1.3,2.2c-0.4,0.8-0.8,1.7-1.1,2.6c-0.1,0.2-0.1,0.3-0.2,0.5c0-0.1,0-0.2,0-0.2
		c-0.1-1.1,0-2.3,0.1-3.4c0.1-1.1,0.2-2.1,0.3-3c0.1-0.9,0.3-1.6,0.5-2.2c0.1-0.3,0.2-0.5,0.3-0.6c0.1-0.1,0.1-0.2,0.1-0.2
		s-0.1,0.1-0.2,0.2c-0.1,0.1-0.2,0.3-0.4,0.6c-0.3,0.5-0.7,1.3-1,2.1c-0.2,0.4-0.3,0.9-0.5,1.3c-0.2-0.9-0.5-1.7-0.8-2.4
		c-0.3-0.8-0.7-1.4-1-1.9c-0.1-0.2-0.3-0.4-0.3-0.5c-0.1-0.1-0.1-0.2-0.1-0.2s0,0.1,0.1,0.2c0,0.1,0.1,0.3,0.2,0.5
		c0.2,0.5,0.4,1.1,0.5,1.9c0.1,0.8,0.2,1.8,0.1,2.8c0,0.5-0.1,1-0.2,1.6c-0.1,0.5-0.2,1.1-0.4,1.6c-0.4,1.3-0.9,2.7-1.5,3.8
		c-0.1-0.9-0.1-1.9-0.1-2.9c0-1.2,0-2.4,0-3.6c0.1-1.1,0.1-2.2,0.2-3.1c0-0.5,0.1-0.9,0.1-1.3c0-0.4,0.1-0.7,0.1-1
		c0.1-0.5,0.1-0.8,0.1-0.8s-0.1,0.3-0.3,0.8c-0.1,0.3-0.2,0.6-0.3,0.9c-0.1,0.4-0.3,0.8-0.4,1.2c-0.3,0.9-0.6,1.9-0.9,3.1
		c-0.1,0.4-0.2,0.8-0.3,1.2c-0.5-4.6-0.8-8.8-0.8-8.8s-0.5,8.9-1.5,10.6c-0.2,0.3-0.6,0.6-1.1,0.4c0,0,0,0,0,0
		c-0.9-0.9-0.6-5.2-0.7-6.9C84.9,45.1,85,45,85,45s-0.1,0.1-0.3,0.3c0-0.4,0-0.9-0.1-1.3c0-1-0.1-1.8-0.1-2.4c0-0.6,0-0.9,0-0.9
		s-0.1,0.3-0.2,0.9c-0.1,0.6-0.3,1.4-0.4,2.4c-0.1,0.8-0.3,1.7-0.4,2.6c-0.2,0.2-0.4,0.4-0.6,0.7c-0.5,0.5-1,1.1-1.5,1.8
		c-0.3-0.6-0.7-1.1-1-1.5c-0.1-0.2-0.2-0.3-0.3-0.5c-0.1-0.2-0.2-0.3-0.3-0.4c-0.2-0.3-0.4-0.5-0.5-0.7c-0.3-0.4-0.5-0.6-0.5-0.6
		s0.1,0.2,0.3,0.6c0.1,0.2,0.2,0.4,0.3,0.7c0.1,0.1,0.1,0.3,0.2,0.5c0.1,0.2,0.1,0.3,0.2,0.5c0.3,0.7,0.5,1.6,0.8,2.5
		c-0.3,0.4-0.7,0.9-1,1.3c0-0.4,0.1-0.7,0.1-1c0-0.6,0.1-1.2,0.1-1.5c0-0.4,0-0.6,0-0.6s-0.3,0.8-0.8,2c-0.5,1.2-1.2,2.8-2,4.4
		c-0.1,0.3-0.3,0.5-0.4,0.8c-0.1-0.7-0.1-1.4-0.1-2.1c0-0.9,0.1-1.7,0.3-2.6c0.2-0.8,0.3-1.6,0.6-2.3c0.1-0.3,0.2-0.6,0.3-0.9
		c0.1-0.3,0.2-0.5,0.3-0.7c0.2-0.4,0.3-0.6,0.3-0.6s-0.2,0.2-0.4,0.5c-0.1,0.2-0.3,0.4-0.5,0.6c-0.2,0.2-0.4,0.5-0.6,0.8
		c-0.4,0.6-0.9,1.4-1.3,2.2c-0.4,0.8-0.8,1.7-1.1,2.6c-0.1,0.2-0.1,0.3-0.2,0.5c0-0.1,0-0.2,0-0.2c-0.1-1.1,0-2.3,0.1-3.4
		c0.1-1.1,0.2-2.1,0.3-3c0.1-0.9,0.3-1.6,0.5-2.2c0.1-0.3,0.2-0.5,0.3-0.6c0.1-0.1,0.1-0.2,0.1-0.2s-0.1,0.1-0.2,0.2
		c-0.1,0.1-0.2,0.3-0.4,0.6c-0.3,0.5-0.7,1.3-1,2.1c-0.2,0.4-0.3,0.9-0.5,1.3c-0.2-0.9-0.5-1.7-0.8-2.4c-0.3-0.8-0.7-1.4-1-1.9
		c-0.1-0.2-0.3-0.4-0.3-0.5c-0.1-0.1-0.1-0.2-0.1-0.2s0,0.1,0.1,0.2c0,0.1,0.1,0.3,0.2,0.5c0.2,0.5,0.4,1.1,0.5,1.9
		c0.1,0.8,0.2,1.8,0.1,2.8c0,0.5-0.1,1-0.2,1.6c-0.1,0.5-0.2,1.1-0.4,1.6c-0.4,1.3-0.9,2.7-1.5,3.8c-0.1-0.9-0.1-1.9-0.1-2.9
		c0-1.2,0-2.4,0-3.6c0.1-1.1,0.1-2.2,0.2-3.1c0-0.5,0.1-0.9,0.1-1.3c0-0.4,0.1-0.7,0.1-1c0.1-0.5,0.1-0.8,0.1-0.8s-0.1,0.3-0.3,0.8
		c-0.1,0.3-0.2,0.6-0.3,0.9c-0.1,0.4-0.3,0.8-0.4,1.2c-0.3,0.9-0.6,1.9-0.9,3.1c-0.3,1.1-0.6,2.3-0.9,3.6c-0.1,0.5-0.2,1-0.3,1.4
		c-0.2-0.7-0.5-1.4-0.6-2.1c-0.3-1-0.4-1.9-0.5-2.9c0.3-0.6,0.6-1.1,0.8-1.5c0.4-0.8,0.8-1.4,1.1-1.9c0.3-0.4,0.4-0.7,0.4-0.7
		s-0.2,0.2-0.6,0.6c-0.4,0.4-0.9,1-1.5,1.7c-0.1,0.1-0.2,0.2-0.3,0.3c0-1.1,0.1-2.2,0.3-3.1c0.1-0.5,0.2-1,0.4-1.4
		c0-0.1,0.1-0.2,0.1-0.3c0-0.1,0.1-0.2,0.1-0.3c0.1-0.2,0.1-0.3,0.2-0.5c0.2-0.6,0.3-0.9,0.3-0.9s-0.2,0.3-0.5,0.9
		c-0.1,0.1-0.2,0.3-0.3,0.5c-0.1,0.1-0.1,0.2-0.2,0.3c0,0.1-0.1,0.2-0.1,0.3c-0.2,0.4-0.4,0.9-0.6,1.4c-0.1,0.3-0.2,0.5-0.3,0.8
		c-0.1,0.2-0.2,0.4-0.2,0.6c0,0,0,0,0,0c0,0.1,0,0.1-0.1,0.2c-0.2,0.6-0.4,1.2-0.5,1.9l-0.1,0.6c0,0.2,0,0.3-0.1,0.5
		c-0.3-0.5-0.6-1-1-1.4c-0.1-0.2-0.2-0.3-0.3-0.5c-0.1-0.2-0.2-0.3-0.3-0.4c-0.2-0.3-0.4-0.5-0.5-0.7c-0.3-0.4-0.5-0.6-0.5-0.6
		s0.1,0.2,0.3,0.6c0.1,0.2,0.2,0.4,0.3,0.7c0.1,0.1,0.1,0.3,0.2,0.5c0.1,0.2,0.1,0.3,0.2,0.5c0.1,0.2,0.2,0.4,0.3,0.7
		c0,0.1-0.3,0.9-0.8,2c-0.5,1.2-1.2,2.8-2,4.4c-0.1,0.3-0.3,0.5-0.4,0.8c-0.1-0.7-0.1-1.4-0.1-2.1c0-0.9,0.1-1.7,0.3-2.6
		c0.2-0.8,0.3-1.6,0.6-2.3c0.1-0.3,0.2-0.6,0.3-0.9c0.1-0.3,0.2-0.5,0.3-0.7c0.2-0.4,0.3-0.6,0.3-0.6s-0.2,0.2-0.4,0.5
		c-0.1,0.2-0.3,0.4-0.5,0.6c-0.2,0.2-0.4,0.5-0.6,0.8c-0.4,0.6-0.9,1.4-1.3,2.2c-0.4,0.8-0.8,1.7-1.1,2.6c-0.1,0.2-0.1,0.3-0.2,0.5
		c0-0.1,0-0.2,0-0.2c-0.1-1.1,0-2.3,0.1-3.4c0.1-1.1,0.2-2.1,0.3-3c0.1-0.9,0.3-1.6,0.5-2.2c0.1-0.3,0.2-0.5,0.3-0.6
		c0.1-0.1,0.1-0.2,0.1-0.2s-0.1,0.1-0.2,0.2c-0.1,0.1-0.2,0.3-0.4,0.6c-0.3,0.5-0.7,1.3-1,2.1c-0.2,0.4-0.3,0.9-0.5,1.3
		c-0.2-0.9-0.5-1.7-0.8-2.4c-0.3-0.8-0.7-1.4-1-1.9c-0.1-0.2-0.3-0.4-0.3-0.5C54,43.4,54,43.3,54,43.3s0,0.1,0.1,0.2
		c0,0.1,0.1,0.3,0.2,0.5c0.2,0.5,0.4,1.1,0.5,1.9c0.1,0.8,0.2,1.8,0.1,2.8c0,0.5-0.1,1-0.2,1.6c-0.1,0.5-0.2,1.1-0.4,1.6
		c-0.4,1.3-0.9,2.7-1.5,3.8c-0.1-0.9-0.1-1.9-0.1-2.9c0-1.2,0-2.4,0-3.6c0.1-1.1,0.1-2.2,0.2-3.1c0-0.5,0.1-0.9,0.1-1.3
		c0-0.4,0.1-0.7,0.1-1c0.1-0.5,0.1-0.8,0.1-0.8s-0.1,0.3-0.3,0.8c-0.1,0.3-0.2,0.6-0.3,0.9c-0.1,0.4-0.3,0.8-0.4,1.2
		c-0.3,0.9-0.6,1.9-0.9,3.1c-0.1,0.4-0.2,0.8-0.3,1.2c-0.5-4.6-0.8-8.8-0.8-8.8s-0.8,5.3-1.2,10.6c-0.2,2.2,0.9,3.2,0.8,5
		c-0.4-1.9-2-3.3-2.3-5.9c-0.2-1.6-0.3-3.2-0.4-4.7c0.2-0.3,0.4-0.6,0.5-0.9c0.3-0.4,0.4-0.7,0.4-0.7s-0.2,0.2-0.6,0.6
		c-0.1,0.1-0.2,0.3-0.4,0.4c0-0.7-0.1-1.4-0.1-2c0-1-0.1-1.8-0.1-2.4c0-0.6,0-0.9,0-0.9s-0.1,0.3-0.2,0.9C46.3,42.2,46.2,43,46,44
		c-0.2,1-0.4,2.2-0.6,3.5c-0.5,0.6-1.1,1.3-1.7,2c-0.4-0.8-0.9-1.4-1.3-2c-0.1-0.2-0.2-0.3-0.3-0.5c-0.1-0.2-0.2-0.3-0.3-0.4
		c-0.2-0.3-0.4-0.5-0.5-0.7c-0.3-0.4-0.5-0.6-0.5-0.6s0.1,0.2,0.3,0.6c0.1,0.2,0.2,0.4,0.3,0.7c0.1,0.1,0.1,0.3,0.2,0.5
		c0.1,0.2,0.1,0.3,0.2,0.5c0.2,0.4,0.3,0.8,0.4,1.3c-0.1,0.4-0.3,0.8-0.6,1.4c-0.5,1.2-1.2,2.8-2,4.4c-0.1,0.3-0.3,0.5-0.4,0.8
		c-0.1-0.7-0.1-1.4-0.1-2.1c0-0.9,0.1-1.7,0.3-2.6c0.2-0.8,0.3-1.6,0.6-2.3c0.1-0.3,0.2-0.6,0.3-0.9c0.1-0.3,0.2-0.5,0.3-0.7
		c0.2-0.4,0.3-0.6,0.3-0.6s-0.2,0.2-0.4,0.5c-0.1,0.2-0.3,0.4-0.5,0.6c-0.2,0.2-0.4,0.5-0.6,0.8c-0.4,0.6-0.9,1.4-1.3,2.2
		c-0.4,0.8-0.8,1.7-1.1,2.6c-0.1,0.2-0.1,0.3-0.2,0.5c0-0.1,0-0.2,0-0.2c-0.1-1.1,0-2.3,0.1-3.4c0.1-1.1,0.2-2.1,0.3-3
		c0.1-0.9,0.3-1.6,0.5-2.2c0.1-0.3,0.2-0.5,0.3-0.6c0.1-0.1,0.1-0.2,0.1-0.2s-0.1,0.1-0.2,0.2c-0.1,0.1-0.2,0.3-0.4,0.6
		c-0.3,0.5-0.7,1.3-1,2.1c-0.2,0.4-0.3,0.9-0.5,1.3c-0.2-0.9-0.5-1.7-0.8-2.4c-0.3-0.8-0.7-1.4-1-1.9c-0.1-0.2-0.3-0.4-0.3-0.5
		c-0.1-0.1-0.1-0.2-0.1-0.2s0,0.1,0.1,0.2c0,0.1,0.1,0.3,0.2,0.5c0.2,0.5,0.4,1.1,0.5,1.9c0.1,0.8,0.2,1.8,0.1,2.8
		c0,0.5-0.1,1-0.2,1.6c-0.1,0.5-0.2,1.1-0.4,1.6c-0.4,1.3-0.9,2.7-1.5,3.8c-0.1-0.9-0.1-1.9-0.1-2.9c0-1.2,0-2.4,0-3.6
		c0.1-1.1,0.1-2.2,0.2-3.1c0-0.5,0.1-0.9,0.1-1.3c0-0.4,0.1-0.7,0.1-1c0.1-0.5,0.1-0.8,0.1-0.8s-0.1,0.3-0.3,0.8
		c-0.1,0.3-0.2,0.6-0.3,0.9c-0.1,0.4-0.3,0.8-0.4,1.2c-0.3,0.9-0.6,1.9-0.9,3.1c-0.3,1.1-0.6,2.3-0.9,3.6c-0.1,0.5-0.2,1-0.3,1.4
		c-0.2-0.7-0.5-1.4-0.6-2.1c-0.3-1-0.4-1.9-0.5-2.9c0.3-0.6,0.6-1.1,0.8-1.5c0.4-0.8,0.8-1.4,1.1-1.9c0.3-0.4,0.4-0.7,0.4-0.7
		s-0.2,0.2-0.6,0.6c-0.4,0.4-0.9,1-1.5,1.7c-0.1,0.1-0.2,0.2-0.3,0.3c0-1.1,0.1-2.2,0.3-3.1c0.1-0.5,0.2-1,0.4-1.4
		c0-0.1,0.1-0.2,0.1-0.3c0-0.1,0.1-0.2,0.1-0.3c0.1-0.2,0.1-0.3,0.2-0.5c0.2-0.6,0.3-0.9,0.3-0.9s-0.2,0.3-0.5,0.9
		c-0.1,0.1-0.2,0.3-0.3,0.5c-0.1,0.1-0.1,0.2-0.2,0.3c0,0.1-0.1,0.2-0.1,0.3c-0.2,0.4-0.4,0.9-0.6,1.4c-0.1,0.3-0.2,0.5-0.3,0.8
		c-0.1,0.2-0.2,0.4-0.2,0.6c0,0,0,0,0,0c0,0.1,0,0.1-0.1,0.2c-0.2,0.6-0.4,1.2-0.5,1.9L27,48.5c0,0.2,0,0.3-0.1,0.5
		c-0.3-0.5-0.6-1-1-1.4c-0.1-0.2-0.2-0.3-0.3-0.5c-0.1-0.2-0.2-0.3-0.3-0.4c-0.2-0.3-0.4-0.5-0.5-0.7c-0.3-0.4-0.5-0.6-0.5-0.6
		s0.1,0.2,0.3,0.6c0.1,0.2,0.2,0.4,0.3,0.7c0.1,0.1,0.1,0.3,0.2,0.5c0.1,0.2,0.1,0.3,0.2,0.5c0.1,0.2,0.2,0.4,0.3,0.7
		c0,0.1-0.3,0.9-0.8,2c-0.5,1.2-1.2,2.8-2,4.4c-0.1,0.3-0.3,0.5-0.4,0.8c-0.1-0.7-0.1-1.4-0.1-2.1c0-0.9,0.1-1.7,0.3-2.6
		c0.2-0.8,0.3-1.6,0.6-2.3c0.1-0.3,0.2-0.6,0.3-0.9c0.1-0.3,0.2-0.5,0.3-0.7c0.2-0.4,0.3-0.6,0.3-0.6s-0.2,0.2-0.4,0.5
		c-0.1,0.2-0.3,0.4-0.5,0.6c-0.2,0.2-0.4,0.5-0.6,0.8c-0.4,0.6-0.9,1.4-1.3,2.2c-0.4,0.8-0.8,1.7-1.1,2.6c-0.1,0.2-0.1,0.3-0.2,0.5
		c0-0.1,0-0.2,0-0.2c-0.1-1.1,0-2.3,0.1-3.4c0.1-1.1,0.2-2.1,0.3-3c0.1-0.9,0.3-1.6,0.5-2.2c0.1-0.3,0.2-0.5,0.3-0.6
		c0.1-0.1,0.1-0.2,0.1-0.2s-0.1,0.1-0.2,0.2c-0.1,0.1-0.2,0.3-0.4,0.6c-0.3,0.5-0.7,1.3-1,2.1c-0.2,0.4-0.3,0.9-0.5,1.3
		c-0.2-0.9-0.5-1.7-0.8-2.4c-0.3-0.8-0.7-1.4-1-1.9c-0.1-0.2-0.3-0.4-0.3-0.5c-0.1-0.1-0.1-0.2-0.1-0.2s0,0.1,0.1,0.2
		c0,0.1,0.1,0.3,0.2,0.5c0.2,0.5,0.4,1.1,0.5,1.9c0.1,0.8,0.2,1.8,0.1,2.8c0,0.5-0.1,1-0.2,1.6c-0.1,0.5-0.2,1.1-0.4,1.6
		c-0.4,1.3-0.9,2.7-1.5,3.8c-0.1-0.9-0.1-1.9-0.1-2.9c0-1.2,0-2.4,0-3.6c0.1-1.1,0.1-2.2,0.2-3.1c0-0.5,0.1-0.9,0.1-1.3
		c0-0.4,0.1-0.7,0.1-1C16,43.3,16,43,16,43s-0.1,0.3-0.3,0.8c-0.1,0.3-0.2,0.6-0.3,0.9c-0.1,0.4-0.3,0.8-0.4,1.2
		c-0.3,0.9-0.6,1.9-0.9,3.1c-0.1,0.4-0.2,0.8-0.3,1.2c-0.5-4.6-0.8-8.8-0.8-8.8s-0.8,5.3-1.2,10.6c0,0.5-0.1,1-0.1,1.5
		c0,0.5-1.1,0.5-1.1,0c-0.1-0.8-0.2-1.6-0.3-2.4C9.8,48.6,9.6,46,9.5,44c0-1-0.1-1.8-0.1-2.4c0-0.6,0-0.9,0-0.9S9.4,41,9.2,41.6
		C9.1,42.2,9,43,8.8,44c-0.3,2-0.7,4.6-1,7.2c0,0.3,0,0.5-0.1,0.8c-0.3-0.7-0.7-1.4-1-2.1c-0.5-0.9-1-1.7-1.5-2.4
		C5.1,47.4,5,47.2,4.9,47c-0.1-0.2-0.2-0.3-0.3-0.4c-0.2-0.3-0.4-0.5-0.5-0.7c-0.3-0.4-0.5-0.6-0.5-0.6s0.1,0.2,0.3,0.6
		c0.1,0.2,0.2,0.4,0.3,0.7c0.1,0.1,0.1,0.3,0.2,0.5c0.1,0.2,0.1,0.3,0.2,0.5c0.2,0.4,2.1,4.2,3.1,7.7c0.8,3,0.7,7.8,0.7,7.8h182.8
		c0,0,0-5.7,0.2-6.7c0.2-1,0.5-2.1,0.9-3.1c0.4-1.1,0.9-2.1,1.3-3.1c0.5-1,1-1.9,1.4-2.7c0.4-0.8,0.8-1.4,1.1-1.9
		c0.3-0.4,0.4-0.7,0.4-0.7s-0.2,0.2-0.6,0.6c-0.4,0.4-0.9,1-1.5,1.7c-0.6,0.7-1.3,1.5-2.1,2.5c-0.5,0.6-0.9,1.2-1.4,1.8
		c0-0.4,0.1-0.7,0.1-1c0-0.6,0.1-1.2,0.1-1.5c0-0.4,0-0.6,0-0.6s-0.3,0.8-0.8,2c-0.5,1.2-1.2,2.8-2,4.4c-0.1,0.3-0.3,0.5-0.4,0.8
		c-0.1-0.7-0.1-1.4-0.1-2.1c0-0.9,0.1-1.7,0.3-2.6c0.2-0.8,0.3-1.6,0.6-2.3c0.1-0.3,0.2-0.6,0.3-0.9c0.1-0.3,0.2-0.5,0.3-0.7
		c0.2-0.4,0.3-0.6,0.3-0.6s-0.2,0.2-0.4,0.5c-0.1,0.2-0.3,0.4-0.5,0.6c-0.2,0.2-0.4,0.5-0.6,0.8c-0.4,0.6-0.9,1.4-1.3,2.2
		c-0.4,0.8-0.8,1.7-1.1,2.6c-0.1,0.2-0.1,0.3-0.2,0.5c0-0.1,0-0.2,0-0.2c-0.1-1.1,0-2.3,0.1-3.4c0.1-1.1,0.2-2.1,0.3-3
		c0.1-0.9,0.3-1.6,0.5-2.2c0.1-0.3,0.2-0.5,0.3-0.6c0.1-0.1,0.1-0.2,0.1-0.2s-0.1,0.1-0.2,0.2c-0.1,0.1-0.2,0.3-0.4,0.6
		c-0.3,0.5-0.7,1.3-1,2.1c-0.2,0.4-0.3,0.9-0.5,1.3c-0.2-0.9-0.5-1.7-0.8-2.4c-0.3-0.8-0.7-1.4-1-1.9c-0.1-0.2-0.3-0.4-0.3-0.5
		c-0.1-0.1-0.1-0.2-0.1-0.2s0,0.1,0.1,0.2c0,0.1,0.1,0.3,0.2,0.5c0.2,0.5,0.4,1.1,0.5,1.9c0.1,0.8,0.2,1.8,0.1,2.8
		c0,0.5-0.1,1-0.2,1.6c-0.1,0.5-0.2,1.1-0.4,1.6c-0.4,1.3-0.9,2.7-1.5,3.8c-0.1-0.9-0.1-1.9-0.1-2.9c0-1.2,0-2.4,0-3.6
		c0.1-1.1,0.1-2.2,0.2-3.1c0-0.5,0.1-0.9,0.1-1.3c0-0.4,0.1-0.7,0.1-1c0.1-0.5,0.1-0.8,0.1-0.8s-0.1,0.3-0.3,0.8
		c-0.1,0.3-0.2,0.6-0.3,0.9c-0.1,0.4-0.3,0.8-0.4,1.2c-0.3,0.9-0.6,1.9-0.9,3.1c-0.3,1.1-0.6,2.3-0.9,3.6c-0.1,0.5-0.2,1-0.3,1.4
		c-0.2-0.7-0.5-1.4-0.6-2.1c-0.3-1-0.4-1.9-0.5-2.9c0.3-0.6,0.6-1.1,0.8-1.5c0.4-0.8,0.8-1.4,1.1-1.9c0.3-0.4,0.4-0.7,0.4-0.7
		s-0.2,0.2-0.6,0.6c-0.4,0.4-0.9,1-1.5,1.7c-0.1,0.1-0.2,0.2-0.3,0.3c0-1.1,0.1-2.2,0.3-3.1c0.1-0.5,0.2-1,0.4-1.4
		c0-0.1,0.1-0.2,0.1-0.3c0-0.1,0.1-0.2,0.1-0.3 M177.6,42.7 M25.4,51.5c0-0.4,0.1-0.7,0.1-1c0-0.6,0.1-1.2,0.1-1.5
		c0-0.3,0-0.5,0-0.6c0.2,0.5,0.4,1.1,0.5,1.7c0,0.1,0.1,0.2,0.1,0.4C25.9,50.8,25.6,51.2,25.4,51.5z M42.2,51.5c0-0.4,0.1-0.7,0.1-1
		c0-0.3,0-0.6,0.1-0.9c0.1,0.2,0.1,0.4,0.2,0.6c0.1,0.3,0.1,0.5,0.2,0.8C42.5,51.1,42.4,51.3,42.2,51.5z M45,51.2
		c0,0.3,0,0.5-0.1,0.8c-0.1-0.3-0.3-0.7-0.5-1c0.1-0.3,0.3-0.5,0.4-0.8c0.1-0.2,0.2-0.4,0.3-0.6C45.1,50.1,45.1,50.6,45,51.2z
		 M62.6,51.5c0-0.4,0.1-0.7,0.1-1c0-0.6,0.1-1.2,0.1-1.5c0-0.3,0-0.5,0-0.6c0.2,0.5,0.4,1.1,0.5,1.7c0,0.1,0.1,0.2,0.1,0.4
		C63.1,50.8,62.8,51.2,62.6,51.5z M82.9,51.2c0,0.3,0,0.5-0.1,0.8c-0.3-0.6-0.5-1.1-0.8-1.7c0,0,0-0.1,0-0.1
		c0.4-0.8,0.8-1.6,1.2-2.3C83.2,48.9,83,50.1,82.9,51.2z M100.5,51.5c0-0.4,0.1-0.7,0.1-1c0-0.6,0.1-1.2,0.1-1.5c0-0.3,0-0.5,0-0.6
		c0.2,0.5,0.4,1.1,0.5,1.7c0,0.1,0.1,0.2,0.1,0.4C101,50.8,100.7,51.2,100.5,51.5z M117.3,51.5c0-0.4,0.1-0.7,0.1-1
		c0-0.3,0-0.6,0.1-0.9c0.1,0.2,0.1,0.4,0.2,0.6c0.1,0.3,0.1,0.5,0.2,0.8C117.6,51.1,117.5,51.3,117.3,51.5z M120.1,51.2
		c0,0.3,0,0.5-0.1,0.8c-0.1-0.3-0.3-0.7-0.5-1c0.1-0.3,0.3-0.5,0.4-0.8c0.1-0.2,0.2-0.4,0.3-0.6C120.2,50.1,120.2,50.6,120.1,51.2z
		 M137.7,51.5c0-0.4,0.1-0.7,0.1-1c0-0.6,0.1-1.2,0.1-1.5c0-0.3,0-0.5,0-0.6c0.2,0.5,0.4,1.1,0.5,1.7c0,0.1,0.1,0.2,0.1,0.4
		C138.2,50.8,137.9,51.2,137.7,51.5z M157.4,50.3c-0.1,0.5-0.2,1.1-0.4,1.6c-0.6,2-1.4,3.9-2.2,5.4c0-0.3,0.1-0.6,0.1-0.9
		c0.2-1,0.5-2.1,0.9-3.1c0.4-1.1,0.9-2.1,1.3-3.1c0.1-0.2,0.2-0.5,0.4-0.7C157.5,49.7,157.5,50,157.4,50.3z M174,51.5
		c0-0.4,0.1-0.7,0.1-1c0-0.6,0.1-1.2,0.1-1.5c0-0.3,0-0.5,0-0.6c0.2,0.5,0.4,1.1,0.5,1.7c0,0.1,0.1,0.2,0.1,0.4
		C174.6,50.8,174.3,51.2,174,51.5z"/>
	<g>
		<path class="st0" d="M62.1,59.1h-9.9L27.8,25.5h-0.2v33.6H17V7h9.9l24.4,33.6h0.2V7h10.7V59.1z"/>
		<path class="st0" d="M124.7,59.1h-10.5l-12.8-37.4h-0.2L88.4,59.1H77.9L65.6,7h11l7.2,36.3H84L96,7h10.6l11.9,36.3h0.2L126,7H137
			L124.7,59.1z"/>
		<path class="st0" d="M164.8,6.1c7.2,0,13.3,1.9,18,5.7l-4.3,8c-3.8-2.9-8.3-4.3-13.3-4.3c-5.2,0-9.4,1.4-12.8,4.4
			c-3.3,2.9-5,7.3-5,13.2c0,11.8,6.6,17.7,17.4,17.7c2.9,0,5.4-0.3,7.5-0.8V38.1h-8.7v-8.3h18.6v25.1c-4.5,3.4-10.6,5.1-18.1,5.1
			c-8.2,0-14.9-2.2-20-6.6c-5.1-4.5-7.6-11.2-7.6-20.2C136.5,14.6,150.1,6.1,164.8,6.1z"/>
	</g>
	<g>
		<g>
			<path class="st0" d="M16.5,76c1.5-1.3,3.3-1.9,5.4-1.9c0.9,0,1.7,0.1,2.4,0.3c0.7,0.2,1.2,0.4,1.5,0.5c0.2,0.2,0.5,0.4,0.9,0.6
				l-0.4,0.7c-1.2-0.9-2.6-1.4-4.3-1.4c-1.9,0-3.6,0.6-4.9,1.8c-1.3,1.2-1.9,3-1.9,5.3c0,2.4,0.6,4.2,1.8,5.4
				c1.2,1.2,2.8,1.8,4.8,1.8c1.8,0,3.3-0.4,4.5-1.4l0.4,0.7c-0.4,0.3-0.7,0.5-0.9,0.6c-0.2,0.2-0.8,0.3-1.5,0.5S22.6,90,21.7,90
				c-2.3,0-4.1-0.7-5.5-2c-1.4-1.3-2.1-3.3-2.1-6C14.2,79.4,15.1,77.2,16.5,76z"/>
			<path class="st0" d="M46.2,82.1c0,2.5-0.6,4.5-2,5.9C42.9,89.3,41.2,90,39,90s-4-0.7-5.3-2.1c-1.3-1.4-2-3.4-2-5.9s0.6-4.5,2-5.9
				c1.3-1.4,3.1-2.1,5.3-2.1s3.9,0.7,5.3,2.1C45.5,77.6,46.2,79.5,46.2,82.1z M45.3,82.1c0-2.3-0.6-4-1.7-5.3
				c-1.1-1.3-2.7-1.9-4.6-1.9s-3.5,0.6-4.6,1.9c-1.1,1.3-1.7,3-1.7,5.3s0.6,4,1.7,5.3c1.1,1.3,2.7,1.9,4.6,1.9s3.5-0.6,4.6-1.9
				C44.7,86.1,45.3,84.3,45.3,82.1z"/>
			<path class="st0" d="M68.4,89.8h-0.9V76.1h0l-6.5,13.7H60l-6.5-13.7h0v13.7h-0.9V74.3h1.1l6.8,14.3h0l6.8-14.3h1V89.8z"/>
			<path class="st0" d="M91.4,89.8h-0.9V76.1h0L84,89.8h-0.9l-6.5-13.7h0v13.7h-0.9V74.3h1.1l6.8,14.3h0l6.8-14.3h1V89.8z"/>
			<path class="st0" d="M108.2,75.1h-8.7v6.4h7.9v0.8h-7.9V89h8.9v0.8h-9.8V74.3h9.6V75.1z"/>
			<path class="st0" d="M124.5,89.8l-4.5-6.6c-0.4,0-0.9,0.1-1.4,0.1h-3.2v6.5h-0.9V74.3h4.2c4.3,0,6.3,1.4,6.3,4.4
				c0,2.3-1.4,3.8-4.1,4.4l4.6,6.7H124.5z M118.7,75.1h-3.3v7.4h3.2c3.6,0,5.5-1.4,5.5-3.8C124.1,76.3,122.3,75.1,118.7,75.1z"/>
			<path class="st0" d="M133.2,76c1.5-1.3,3.3-1.9,5.4-1.9c0.9,0,1.7,0.1,2.4,0.3c0.7,0.2,1.2,0.4,1.5,0.5c0.2,0.2,0.5,0.4,0.9,0.6
				l-0.4,0.7c-1.2-0.9-2.6-1.4-4.3-1.4c-1.9,0-3.6,0.6-4.9,1.8c-1.3,1.2-1.9,3-1.9,5.3c0,2.4,0.6,4.2,1.8,5.4
				c1.2,1.2,2.8,1.8,4.8,1.8c1.8,0,3.3-0.4,4.5-1.4l0.4,0.7c-0.4,0.3-0.7,0.5-0.9,0.6c-0.2,0.2-0.8,0.3-1.5,0.5
				c-0.7,0.2-1.5,0.3-2.4,0.3c-2.3,0-4.1-0.7-5.5-2c-1.4-1.3-2.1-3.3-2.1-6C130.9,79.4,131.8,77.2,133.2,76z"/>
			<path class="st0" d="M150.5,89.8h-0.9V74.3h0.9V89.8z"/>
			<path class="st0" d="M170.1,89.8h-0.9l-2.3-5.8h-6.9l-2.3,5.8h-0.9l6.2-15.4h0.9L170.1,89.8z M163.4,75.3L163.4,75.3l-3.2,7.9
				h6.3L163.4,75.3z"/>
			<path class="st0" d="M176.8,89h8.9v0.8h-9.8V74.3h0.9V89z"/>
		</g>
		<g>
			<path class="st0" d="M27.3,97.7c1.5-1.3,3.4-1.9,5.6-1.9c1.9,0,3.5,0.5,4.9,1.5L37.4,98c-1.3-0.9-2.8-1.4-4.5-1.4
				c-2,0-3.7,0.6-5.1,1.8c-1.3,1.2-2,3-2,5.4s0.6,4.2,1.9,5.4s3,1.8,5.1,1.8c1.7,0,3-0.3,4.1-0.8v-5.6h-3.3v-0.8h4.1v6.7
				c-1.2,0.8-2.8,1.3-5,1.3c-2.4,0-4.2-0.6-5.7-2c-1.5-1.3-2.2-3.3-2.2-6C24.9,101.2,25.8,99,27.3,97.7z"/>
			<path class="st0" d="M56.6,111.6h-0.9l-2.3-5.8h-6.9l-2.3,5.8h-0.9l6.2-15.4h0.9L56.6,111.6z M50,97.1L50,97.1l-3.2,7.9h6.3
				L50,97.1z"/>
			<path class="st0" d="M72.4,111.6l-4.5-6.6c-0.4,0-0.9,0.1-1.4,0.1h-3.2v6.5h-0.9V96.1h4.2c4.3,0,6.3,1.4,6.3,4.4
				c0,2.3-1.4,3.8-4.1,4.4l4.6,6.7H72.4z M66.6,96.9h-3.3v7.4h3.2c3.6,0,5.5-1.4,5.5-3.8C72,98.1,70.2,96.9,66.6,96.9z"/>
			<path class="st0" d="M83.8,111.6h-4.1V96.1h4.1c6.2,0,9.3,2.5,9.3,7.6C93.1,109.1,89.8,111.6,83.8,111.6z M83.8,96.9h-3.2v13.9
				h3.2c5.4,0,8.4-2.3,8.4-7.1C92.2,99.2,89.4,96.9,83.8,96.9z"/>
			<path class="st0" d="M109,96.9h-8.7v6.4h7.9v0.8h-7.9v6.6h8.9v0.8h-9.8V96.1h9.6V96.9z"/>
			<path class="st0" d="M127.5,111.6h-0.9l-10.4-13.9h0v13.9h-0.9V96.1h0.9l10.4,13.9h0V96.1h0.9V111.6z"/>
			<path class="st0" d="M135.9,111.6H135V96.1h0.9V111.6z"/>
			<path class="st0" d="M155.7,111.6h-0.9l-10.4-13.9h0v13.9h-0.9V96.1h0.9l10.4,13.9h0V96.1h0.9V111.6z"/>
			<path class="st0" d="M164.5,97.7c1.5-1.3,3.4-1.9,5.6-1.9c1.9,0,3.5,0.5,4.9,1.5l-0.4,0.7c-1.3-0.9-2.8-1.4-4.5-1.4
				c-2,0-3.7,0.6-5.1,1.8c-1.3,1.2-2,3-2,5.4s0.6,4.2,1.9,5.4c1.3,1.2,3,1.8,5.1,1.8c1.7,0,3-0.3,4.1-0.8v-5.6h-3.3v-0.8h4.1v6.7
				c-1.2,0.8-2.8,1.3-5,1.3c-2.4,0-4.2-0.6-5.7-2s-2.2-3.3-2.2-6C162.1,101.2,163,99,164.5,97.7z"/>
		</g>
	</g>
</g>
</svg>
