<?xml version="1.0" encoding="utf-8"?>
<!-- Generator: Adobe Illustrator 19.2.1, SVG Export Plug-In . SVG Version: 6.00 Build 0)  -->
<svg version="1.1" id="Layer_1" xmlns="http://www.w3.org/2000/svg" xmlns:xlink="http://www.w3.org/1999/xlink" x="0px" y="0px"
	 viewBox="0 0 601.9 595" enable-background="new 0 0 601.9 595" xml:space="preserve">
<g>
	<path fill="#FFFFFF" d="M301.3,36.5c-144.2,0-261,116.9-261,261c0,144.2,116.9,261,261,261c144.2,0,261-116.9,261-261
		C562.3,153.3,445.4,36.5,301.3,36.5z M301.3,11.9c157.7,0,285.6,127.9,285.6,285.6c0,157.7-127.9,285.6-285.6,285.6
		c-157.7,0-285.6-127.9-285.6-285.6C15.7,139.8,143.5,11.9,301.3,11.9z"/>
	<path fill="#FFFFFF" d="M425.2,302c0.1-25.3-45.3-37.7-98.2-22.4c-28.4,8.2-79.5,24.1-135.4,108.9c-11.9,18.1-23.6,14.5-28.8,11.5
		c-40.5-23.7-34.5-88.6,21.6-131.9c36.8-28.5,84.8-53.4,85.4-89.6c0.3-14.5-11.8-21.9-25.3-21.9c-11.9,0-25.6,8.4-37.3,19.1
		c-10,10.4-24.6,20.4-31.1,20.2c-2.6-0.1-3.5-1.5-2.7-3c2.1-4,17.3-11.2,16-20.1c-5.7-38.1,24.6-46.8,41.8-46.7
		c36.9,0.3,56.2,25.2,56.2,52.6c0,27-20.7,59.3-54.9,84.5c-65.4,48.1-69.2,94.7-64.1,114c2.4,8.8,8.1,8.4,10.9,1.6
		c11.9-29.5,58.3-121.5,181.6-135.9c82.2-9.6,101,30.8,100.5,56.2c-0.8,42.4-60.7,78.7-131.3,65.6
		C347.5,365.7,424.9,348.2,425.2,302z"/>
	<path fill="#FFFFFF" d="M222.8,403.6c1.5,9.6,93.1-8.5,92.7,16.9c-0.2,9.5-19.6,9.8-27.7,9.8c-3.2,0-13.4,0-19.1,1.8
		c-3.8,1.2-4.9,5.9,0.4,8.7c22.4,12,116.8,6.4,153.2-7.2c-25.5,17.5-76.5,24.8-105.3,24.8c-10,0-83.9-0.2-83.9-22.5
		c0-15,33.4-9.5,42.6-12.7c3.3-1.2,1.8-4.1-0.4-4.8c-13-4.5-69.3,8.4-73.3-10.9c-3.6-17.7,34.8-32.6,86.4-32.6
		c36.3,0,76.3,16.1,124,16.1c17.6,0,61.5-7.4,74.2-23.8c0,0-27.3,61-128.3,40.4c-29.3-5.8-55.7-14.6-93.9-12.9
		C249.4,395.4,221.9,397.8,222.8,403.6z"/>
</g>
</svg>
