<?xml version="1.0" encoding="utf-8"?>
<!-- Generator: Adobe Illustrator 16.0.0, SVG Export Plug-In . SVG Version: 6.00 Build 0)  -->
<!DOCTYPE svg PUBLIC "-//W3C//DTD SVG 1.1//EN" "http://www.w3.org/Graphics/SVG/1.1/DTD/svg11.dtd">
<svg version="1.1" id="Sprites" xmlns="http://www.w3.org/2000/svg" xmlns:xlink="http://www.w3.org/1999/xlink" x="0px" y="0px"
	 width="960px" height="1440.011px" viewBox="-445.496 772.489 960 1440.011"
	 enable-background="new -445.496 772.489 960 1440.011" xml:space="preserve">
<g>
	<path fill="#F8D531" d="M-365.497,1775.511c-20.434,0-37,16.561-37,36.99s16.566,36.988,37,36.988s37-16.559,37-36.988
		S-345.063,1775.511-365.497,1775.511z"/>
</g>
<g>
	<circle fill-rule="evenodd" clip-rule="evenodd" fill="#F8D531" cx="-366.772" cy="850.361" r="5.957"/>
	<path fill-rule="evenodd" clip-rule="evenodd" fill="#F8D531" d="M-365.497,832.489c-11.045,0-20,8.953-20,20
		c0,11.045,8.955,20,20,20c11.047,0,20-8.955,20-20C-345.497,841.442-354.45,832.489-365.497,832.489z M-354.737,862.397
		c-0.665,0.664-1.742,0.664-2.406,0l-4.328-4.328c-3.648,2.514-8.678,2.156-11.921-1.088c-3.656-3.656-3.656-9.584,0-13.24
		c3.655-3.656,9.583-3.656,13.239,0c3.244,3.244,3.603,8.275,1.09,11.92l4.326,4.328
		C-354.072,860.655-354.072,861.733-354.737,862.397z"/>
</g>
<g>
	<path fill-rule="evenodd" clip-rule="evenodd" fill="#F8D531" d="M-365.497,988.989c-12.979,0-23.5,10.521-23.5,23.5
		s10.521,23.5,23.5,23.5c12.979,0,23.5-10.521,23.5-23.5S-352.518,988.989-365.497,988.989z"/>
</g>
<g>
	<g>
		<g>
			<path fill="#FFFFFF" d="M-352.141,1011.662l-11.81-12.021c-0.854-0.869-2.239-0.869-3.094,0l-11.809,12.021
				c-0.854,0.869-0.854,2.279,0,3.148c0.854,0.869,2.239,0.869,3.093,0l8.257-8.405v17.582c0,1.229,0.799,2.003,2.006,2.003
				c1.208,0,1.994-0.773,1.994-2.003v-17.594l8.27,8.417c0.854,0.869,2.238,0.869,3.093,0
				C-351.287,1013.941-351.287,1012.531-352.141,1011.662z"/>
		</g>
	</g>
</g>
<g>
	<path fill-rule="evenodd" clip-rule="evenodd" fill="#F8D531" d="M-199.486,1013.903c0.781-0.781,0.781-2.047,0-2.828l-9.193-9.192
		c-0.78-0.781-2.047-0.781-2.828,0l0,0c-0.781,0.781-0.781,2.047,0,2.828l9.193,9.192
		C-201.533,1014.685-200.268,1014.685-199.486,1013.903L-199.486,1013.903z"/>
	<path fill-rule="evenodd" clip-rule="evenodd" fill="#F8D531" d="M-199.486,1013.903c0.781-0.781,0.781-2.047,0-2.828l0,0
		c-0.781-0.781-2.047-0.781-2.828,0l-9.193,9.192c-0.781,0.781-0.781,2.047,0,2.828l0,0c0.781,0.781,2.048,0.781,2.828,0
		L-199.486,1013.903z"/>
</g>
<g>
	<path fill-rule="evenodd" clip-rule="evenodd" fill="#F8D531" d="M-211.508,851.075c-0.781,0.781-0.781,2.047,0,2.828l9.193,9.192
		c0.78,0.781,2.047,0.781,2.828,0l0,0c0.781-0.781,0.781-2.047,0-2.828l-9.193-9.192
		C-209.461,850.294-210.727,850.294-211.508,851.075L-211.508,851.075z"/>
	<path fill-rule="evenodd" clip-rule="evenodd" fill="#F8D531" d="M-211.508,851.075c-0.781,0.781-0.781,2.047,0,2.828l0,0
		c0.781,0.781,2.047,0.781,2.828,0l9.193-9.192c0.781-0.781,0.781-2.047,0-2.828l0,0c-0.781-0.781-2.048-0.781-2.828,0
		L-211.508,851.075z"/>
</g>
<path fill="#F8D531" d="M-205.497,1156.5c9.374,0,17,7.626,17,17s-7.626,17-17,17s-17-7.626-17-17S-214.871,1156.5-205.497,1156.5
	 M-205.497,1153.5c-11.045,0-20,8.953-20,20c0,11.045,8.955,20,20,20c11.047,0,20-8.955,20-20
	C-185.497,1162.453-194.45,1153.5-205.497,1153.5L-205.497,1153.5z"/>
<path fill="#D1DBD9" d="M-38.729,843.064c-2.436-0.911-5.056,0.817-6.767,2.593c-1.713-1.776-4.332-3.504-6.768-2.593
	c-3.338,1.248-5.059,5.039-3.844,8.467c1.215,3.429,10.611,10.635,10.611,10.635s9.396-7.206,10.609-10.635
	C-33.671,848.103-35.392,844.312-38.729,843.064z"/>
<path fill="#F8D531" d="M121.272,843.064c-2.436-0.911-5.057,0.817-6.768,2.593c-1.713-1.776-4.332-3.504-6.768-2.593
	c-3.338,1.248-5.059,5.039-3.844,8.467c1.215,3.429,10.611,10.635,10.611,10.635s9.396-7.206,10.609-10.635
	C126.329,848.103,124.608,844.312,121.272,843.064z"/>
<rect x="-445.496" y="772.489" opacity="0.25" fill="#EB212E" enable-background="new    " width="1" height="1"/>
<rect x="513.504" y="1731.489" opacity="0.25" fill="#EB212E" enable-background="new    " width="1" height="1"/>
<g>
	<g>
		<path fill="#D1DBD9" d="M285.504,850.99c0-6.075-4.926-9-11-9c-6.076,0-11,2.925-11,9c0,6.076,4.924,9,11,9
			c0.521,0,1.028-0.03,1.53-0.073c2.371,1.896,6.468,3.071,6.468,3.071s-1.356-2.267-1.634-4.358
			C283.67,857.216,285.504,854.691,285.504,850.99z"/>
	</g>
</g>
<g>
	<g>
		<g>
			<path fill="#FFE300" d="M445.504,850.99c0-6.075-4.926-9-11-9c-6.076,0-11,2.925-11,9c0,6.076,4.924,9,11,9
				c0.521,0,1.028-0.03,1.53-0.073c2.371,1.896,6.468,3.071,6.468,3.071s-1.356-2.267-1.634-4.358
				C443.67,857.216,445.504,854.691,445.504,850.99z"/>
		</g>
	</g>
</g>
<g>
	<g>
		<path fill-rule="evenodd" clip-rule="evenodd" fill="#D1DBD9" d="M-45.496,1001.502c-6.074,0-10.998,4.924-10.998,10.998
			s4.924,10.998,10.998,10.998s10.998-4.924,10.998-10.998S-39.422,1001.502-45.496,1001.502z M-42.342,1012.121h-2.025v7.586
			h-3.031v-7.586h-1.518v-2.614h1.518v-1.572c0-2.132,0.855-3.4,3.285-3.4h2.021v2.615h-1.262c-0.949,0-1.01,0.366-1.01,1.046
			l-0.004,1.311h2.291L-42.342,1012.121z"/>
	</g>
</g>
<g>
	<g>
		<path fill-rule="evenodd" clip-rule="evenodd" fill="#FFE300" d="M114.504,1001.502c-6.074,0-10.998,4.924-10.998,10.998
			s4.924,10.998,10.998,10.998s10.998-4.924,10.998-10.998S120.578,1001.502,114.504,1001.502z M117.658,1012.121h-2.025v7.586
			h-3.031v-7.586h-1.518v-2.614h1.518v-1.572c0-2.132,0.855-3.4,3.285-3.4h2.021v2.615h-1.262c-0.949,0-1.01,0.366-1.01,1.046
			l-0.004,1.311h2.291L117.658,1012.121z"/>
	</g>
</g>
<g>
	<g>
		<path fill="#D1DBD9" d="M274.504,1001.502c-6.074,0-11,4.924-11,10.998s4.926,10.998,11,10.998s10.998-4.924,10.998-10.998
			S280.578,1001.502,274.504,1001.502z M280.914,1009.833c0.008,0.131,0.01,0.264,0.01,0.396c0,4.05-3.131,8.72-8.855,8.72
			c-1.76,0-3.396-0.507-4.771-1.377c0.24,0.028,0.49,0.043,0.74,0.043c1.463,0,2.805-0.49,3.867-1.312
			c-1.363-0.026-2.512-0.911-2.908-2.128c0.189,0.035,0.385,0.054,0.588,0.054c0.283,0,0.557-0.036,0.818-0.107
			c-1.424-0.282-2.5-1.519-2.5-3.004c0-0.014,0-0.026,0.004-0.04c0.42,0.229,0.898,0.368,1.41,0.383
			c-0.836-0.549-1.387-1.488-1.387-2.551c0-0.561,0.156-1.088,0.422-1.542c1.537,1.855,3.828,3.075,6.416,3.204
			c-0.053-0.226-0.08-0.46-0.08-0.697c0-1.694,1.395-3.065,3.115-3.065c0.895,0,1.703,0.372,2.268,0.966
			c0.713-0.135,1.375-0.393,1.979-0.743c-0.23,0.715-0.727,1.316-1.369,1.695c0.631-0.074,1.229-0.238,1.789-0.482
			C282.051,1008.86,281.521,1009.401,280.914,1009.833z"/>
	</g>
</g>
<g>
	<g>
		<path fill="#FFE300" d="M434.504,1001.502c-6.074,0-11,4.924-11,10.998s4.926,10.998,11,10.998s10.998-4.924,10.998-10.998
			S440.578,1001.502,434.504,1001.502z M440.914,1009.833c0.008,0.131,0.01,0.264,0.01,0.396c0,4.05-3.131,8.72-8.855,8.72
			c-1.76,0-3.396-0.507-4.771-1.377c0.24,0.028,0.49,0.043,0.74,0.043c1.463,0,2.805-0.49,3.867-1.312
			c-1.363-0.026-2.512-0.911-2.908-2.128c0.189,0.035,0.385,0.054,0.588,0.054c0.283,0,0.557-0.036,0.818-0.107
			c-1.424-0.282-2.5-1.519-2.5-3.004c0-0.014,0-0.026,0.004-0.04c0.42,0.229,0.898,0.368,1.41,0.383
			c-0.836-0.549-1.387-1.488-1.387-2.551c0-0.561,0.156-1.088,0.422-1.542c1.537,1.855,3.828,3.075,6.416,3.204
			c-0.053-0.226-0.08-0.46-0.08-0.697c0-1.694,1.395-3.065,3.115-3.065c0.895,0,1.703,0.372,2.268,0.966
			c0.713-0.135,1.375-0.393,1.979-0.743c-0.23,0.715-0.727,1.316-1.369,1.695c0.631-0.074,1.229-0.238,1.789-0.482
			C442.051,1008.86,441.521,1009.401,440.914,1009.833z"/>
	</g>
</g>
<g>
	<g>
		<path fill="#4E5755" d="M-45.496,1158c-8.009,0-14.5,6.491-14.5,14.5s6.491,14.5,14.5,14.5s14.5-6.491,14.5-14.5
			S-37.487,1158-45.496,1158z"/>
	</g>
</g>
<path fill="#F8D531" d="M115.992,1182.5h-3.996v-10h-2v-3.447h2v-2.07c0-2.811,1.127-4.482,4.33-4.482h2.666v3.447h-1.664
	c-1.25,0-1.33,0.482-1.33,1.379l-0.006,1.727h3.02l-0.352,3.447h-2.668V1182.5z"/>
<g>
	<path fill-rule="evenodd" clip-rule="evenodd" fill="#F8D531" d="M274.504,1161.5c-6.628,0-12,5.372-12,12c0,6.626,5.372,12,12,12
		s12-5.374,12-12C286.504,1166.872,281.132,1161.5,274.504,1161.5z"/>
	<g>
		<g>
			<path fill-rule="evenodd" clip-rule="evenodd" fill="#FFFFFF" d="M272.919,1173.014l4.308-4.244c0.311-0.305,0.311-0.801,0-1.105
				c-0.311-0.307-0.812-0.307-1.123,0l-4.869,4.797c-0.311,0.305-0.311,0.801,0,1.105l4.869,4.797c0.311,0.307,0.812,0.307,1.123,0
				c0.311-0.305,0.311-0.801,0-1.107L272.919,1173.014z"/>
		</g>
	</g>
</g>
<g>
	<path fill-rule="evenodd" clip-rule="evenodd" fill="#4E5755" d="M434.504,1161.5c-6.628,0-12,5.372-12,12c0,6.626,5.372,12,12,12
		s12-5.374,12-12C446.504,1166.872,441.132,1161.5,434.504,1161.5z"/>
	<g>
		<g>
			<path fill-rule="evenodd" clip-rule="evenodd" fill="#FFFFFF" d="M432.919,1173.014l4.308-4.244c0.311-0.305,0.311-0.801,0-1.105
				c-0.311-0.307-0.812-0.307-1.123,0l-4.869,4.797c-0.311,0.305-0.311,0.801,0,1.105l4.869,4.797c0.311,0.307,0.812,0.307,1.123,0
				c0.311-0.305,0.311-0.801,0-1.107L432.919,1173.014z"/>
		</g>
	</g>
</g>
<g>
	<path fill-rule="evenodd" clip-rule="evenodd" fill="#F8D531" d="M262.482,1332.5c0,6.626,5.377,12,12.011,12
		s12.011-5.374,12.011-12c0-6.628-5.377-12-12.011-12S262.482,1325.872,262.482,1332.5z"/>
	<g>
		<g>
			<path fill-rule="evenodd" clip-rule="evenodd" fill="#FFFFFF" d="M278.281,1331.45l-4.869-4.797
				c-0.311-0.307-0.812-0.307-1.123,0c-0.311,0.305-0.311,0.801,0,1.105l4.308,4.244l-4.308,4.242c-0.311,0.307-0.311,0.803,0,1.107
				c0.311,0.307,0.812,0.307,1.123,0l4.869-4.797C278.592,1332.251,278.592,1331.755,278.281,1331.45z"/>
		</g>
	</g>
</g>
<g>
	<path fill-rule="evenodd" clip-rule="evenodd" fill="#4E5755" d="M422.482,1332.5c0,6.626,5.377,12,12.011,12
		s12.011-5.374,12.011-12c0-6.628-5.377-12-12.011-12S422.482,1325.872,422.482,1332.5z"/>
	<g>
		<g>
			<path fill-rule="evenodd" clip-rule="evenodd" fill="#FFFFFF" d="M438.281,1331.45l-4.869-4.797
				c-0.311-0.307-0.812-0.307-1.123,0c-0.311,0.305-0.311,0.801,0,1.105l4.308,4.244l-4.308,4.242c-0.311,0.307-0.311,0.803,0,1.107
				c0.311,0.307,0.812,0.307,1.123,0l4.869-4.797C438.592,1332.251,438.592,1331.755,438.281,1331.45z"/>
		</g>
	</g>
</g>
<g>
	<path fill-rule="evenodd" clip-rule="evenodd" fill="#F8D531" d="M-377.497,1332.5c0,6.626,5.372,12,12,12s12-5.374,12-12
		c0-6.628-5.372-12-12-12S-377.497,1325.872-377.497,1332.5z"/>
</g>
<g>
	<g>
		<path fill="#FFFFFF" d="M-360.325,1331.989c-1.005-2.011-6-2-6-2v-3l-5,5l5,5.002v-3.002c0,0,2.988-0.012,4,1c1,1,1,1.998,1,3
			C-359.325,1335.989-359.325,1333.989-360.325,1331.989z"/>
	</g>
</g>
<path fill="#4E5755" d="M-176.497,1332.489c0-6.496-5.16-11.775-11.6-11.98v-0.02h-34.801v0.02c-6.439,0.205-11.6,5.484-11.6,11.98
	s5.16,11.775,11.6,11.98v0.02h34.801v-0.02C-181.657,1344.265-176.497,1338.985-176.497,1332.489z"/>
<g>
	<path fill="#F8D531" d="M-365.497,1455.495c-20.434,0-37,16.566-37,37.004s16.566,37.006,37,37.006s37-16.568,37-37.006
		S-345.063,1455.495-365.497,1455.495z"/>
</g>
<g>
	<path fill="#F8D531" d="M-365.497,1615.511c-20.434,0-37,16.561-37,36.99s16.566,36.988,37,36.988s37-16.559,37-36.988
		S-345.063,1615.511-365.497,1615.511z"/>
</g>
<g>
	<path fill="#F8D531" d="M-365.497,1947.5c-13.807,0-25,11.192-25,25.001s11.193,24.999,25,24.999s25-11.19,25-24.999
		S-351.69,1947.5-365.497,1947.5z"/>
</g>
<g>
	<path fill="#2C3130" d="M-205.497,1455.495c-20.434,0-37,16.566-37,37.004s16.566,37.006,37,37.006s37-16.568,37-37.006
		S-185.063,1455.495-205.497,1455.495z"/>
</g>
<path fill="#FFFFFF" d="M-198.552,1491.993h-4.41v16.221h-6.59v-16.221h-3.547v-5.576h3.547v-3.369c0-4.531,1.762-7.277,7.105-7.277
	h4.553v5.576h-2.883c-2.086,0-2.219,0.807-2.219,2.252l-0.008,2.818h5.037L-198.552,1491.993z"/>
<g>
	<path fill="#2C3130" d="M-205.497,1615.511c-20.434,0-37,16.561-37,36.99s16.566,36.988,37,36.988s37-16.559,37-36.988
		S-185.063,1615.511-205.497,1615.511z"/>
</g>
<path fill="#F8D531" d="M114.504,1158c8.009,0,14.5,6.491,14.5,14.5s-6.491,14.5-14.5,14.5s-14.5-6.491-14.5-14.5
	S106.495,1158,114.504,1158 M114.504,1156c-9.098,0-16.5,7.401-16.5,16.5s7.402,16.5,16.5,16.5s16.5-7.401,16.5-16.5
	S123.602,1156,114.504,1156L114.504,1156z"/>
<g>
	<path fill="#F8D531" d="M114.504,1317.989c8.009,0,14.5,6.491,14.5,14.5s-6.491,14.5-14.5,14.5s-14.5-6.491-14.5-14.5
		S106.495,1317.989,114.504,1317.989 M114.504,1315.989c-9.098,0-16.5,7.402-16.5,16.5s7.402,16.5,16.5,16.5s16.5-7.402,16.5-16.5
		S123.602,1315.989,114.504,1315.989L114.504,1315.989z"/>
	<path fill="#F8D531" d="M125.004,1326.882c-0.736,0.322-1.525,0.539-2.357,0.637c0.848-0.5,1.5-1.293,1.805-2.234
		c-0.795,0.461-1.67,0.8-2.607,0.979c-0.744-0.783-1.811-1.273-2.99-1.273c-2.268,0-4.105,1.807-4.105,4.04
		c0,0.312,0.035,0.622,0.105,0.919c-3.41-0.168-6.434-1.777-8.459-4.223c-0.35,0.598-0.555,1.293-0.555,2.033
		c0,1.4,0.725,2.639,1.828,3.361c-0.676-0.02-1.307-0.202-1.859-0.504c-0.006,0.018-0.006,0.035-0.006,0.053
		c0,1.957,1.418,3.588,3.295,3.959c-0.344,0.094-0.705,0.143-1.078,0.143c-0.268,0-0.525-0.024-0.773-0.072
		c0.521,1.604,2.035,2.771,3.832,2.805c-1.4,1.084-3.17,1.73-5.096,1.73c-0.33,0-0.66-0.02-0.979-0.057
		c1.814,1.146,3.971,1.814,6.291,1.814c7.545,0,11.674-6.156,11.674-11.494c0-0.176-0.002-0.35-0.012-0.522
		C123.758,1328.404,124.453,1327.692,125.004,1326.882z"/>
</g>
<g>
	<g>
		<g>
			<path fill="#4E5755" d="M-45.496,1317.989c-8.009,0-14.5,6.491-14.5,14.5s6.491,14.5,14.5,14.5s14.5-6.491,14.5-14.5
				S-37.487,1317.989-45.496,1317.989z M-37.043,1328.975c0.01,0.173,0.012,0.347,0.012,0.522c0,5.338-4.129,11.494-11.674,11.494
				c-2.32,0-4.477-0.668-6.291-1.814c0.318,0.037,0.648,0.057,0.979,0.057c1.926,0,3.695-0.646,5.096-1.73
				c-1.797-0.033-3.311-1.2-3.832-2.805c0.248,0.048,0.506,0.072,0.773,0.072c0.373,0,0.734-0.049,1.078-0.143
				c-1.877-0.371-3.295-2.002-3.295-3.959c0-0.018,0-0.035,0.006-0.053c0.553,0.302,1.184,0.484,1.859,0.504
				c-1.104-0.723-1.828-1.961-1.828-3.361c0-0.74,0.205-1.436,0.555-2.033c2.025,2.445,5.049,4.055,8.459,4.223
				c-0.07-0.297-0.105-0.606-0.105-0.919c0-2.233,1.838-4.04,4.105-4.04c1.18,0,2.246,0.49,2.99,1.273
				c0.938-0.179,1.812-0.518,2.607-0.979c-0.305,0.941-0.957,1.734-1.805,2.234c0.832-0.098,1.621-0.314,2.357-0.637
				C-35.547,1327.692-36.242,1328.404-37.043,1328.975z"/>
		</g>
	</g>
</g>
<g>
	<circle fill="#F8D531" cx="274.504" cy="1492.5" r="23.5"/>
	<path fill-rule="evenodd" clip-rule="evenodd" fill="#FFFFFF" d="M267.756,1479.401c-1.004-1.006-1.004-2.639,0-3.645
		c1.002-1.008,2.629-1.008,3.631,0l13.863,13.918c1.004,1.008,1.004,2.639,0,3.646l-13.863,13.92c-1.002,1.006-2.629,1.006-3.631,0
		c-1.004-1.008-1.004-2.641,0-3.646l12.049-12.096L267.756,1479.401z"/>
</g>
<g>
	<circle fill="#4E5755" cx="434.504" cy="1492.5" r="23.5"/>
	<path fill-rule="evenodd" clip-rule="evenodd" fill="#FFFFFF" d="M427.756,1479.401c-1.004-1.006-1.004-2.639,0-3.645
		c1.002-1.008,2.629-1.008,3.631,0l13.863,13.918c1.004,1.008,1.004,2.639,0,3.646l-13.863,13.92c-1.002,1.006-2.629,1.006-3.631,0
		c-1.004-1.008-1.004-2.641,0-3.646l12.049-12.096L427.756,1479.401z"/>
</g>
<g>
	<circle fill="#F8D531" cx="274.504" cy="1652.5" r="23.5"/>
	<path fill-rule="evenodd" clip-rule="evenodd" fill="#FFFFFF" d="M269.201,1651.499l12.049,12.096c1.004,1.006,1.004,2.639,0,3.646
		c-1.002,1.006-2.629,1.006-3.631,0l-13.863-13.92c-1.004-1.008-1.004-2.639,0-3.646l13.863-13.918c1.002-1.008,2.629-1.008,3.631,0
		c1.004,1.006,1.004,2.639,0,3.645L269.201,1651.499z"/>
</g>
<g>
	<circle fill="#4E5755" cx="434.504" cy="1652.5" r="23.5"/>
	<path fill-rule="evenodd" clip-rule="evenodd" fill="#FFFFFF" d="M429.201,1651.499l12.049,12.096c1.004,1.006,1.004,2.639,0,3.646
		c-1.002,1.006-2.629,1.006-3.631,0l-13.863-13.92c-1.004-1.008-1.004-2.639,0-3.646l13.863-13.918c1.002-1.008,2.629-1.008,3.631,0
		c1.004,1.006,1.004,2.639,0,3.645L429.201,1651.499z"/>
</g>
<g>
	<g>
		<g opacity="0.8">
			<path fill-rule="evenodd" clip-rule="evenodd" fill="#FFFFFF" d="M-354.497,1173.5h-9.5v-9.5c0-0.828-0.672-1.5-1.5-1.5
				s-1.5,0.672-1.5,1.5v9.5h-9.5c-0.828,0-1.5,0.672-1.5,1.5s0.672,1.5,1.5,1.5h9.5v9.5c0,0.828,0.672,1.5,1.5,1.5
				s1.5-0.672,1.5-1.5v-9.5h9.5c0.828,0,1.5-0.672,1.5-1.5S-353.668,1173.5-354.497,1173.5z"/>
		</g>
	</g>
</g>
<g>
	<g>
		<path fill="#F8D531" d="M-45.496,1455.495c-20.434,0-37,16.566-37,37.004s16.566,37.006,37,37.006s37-16.568,37-37.006
			S-25.062,1455.495-45.496,1455.495z"/>
	</g>
</g>
<g>
	<g>
		<path fill="#2C3130" d="M114.504,1455.495c-20.434,0-37,16.566-37,37.004s16.566,37.006,37,37.006s37-16.568,37-37.006
			S134.938,1455.495,114.504,1455.495z"/>
	</g>
</g>
<g>
	<g>
		<path fill="#F8D531" d="M-45.496,1615.511c-20.434,0-37,16.561-37,36.99s16.566,36.988,37,36.988s37-16.559,37-36.988
			S-25.062,1615.511-45.496,1615.511z"/>
	</g>
	<polygon id="Plus" fill="#FFFFFF" points="-24.496,1643.5 -30.496,1643.5 -30.496,1637.5 -31.496,1637.5 -31.496,1643.5 
		-37.496,1643.5 -37.496,1644.5 -31.496,1644.5 -31.496,1651.5 -30.496,1651.5 -30.496,1644.5 -24.496,1644.5 	"/>
	<path id="g" fill="#FFFFFF" d="M-44.039,1654.691c-0.814-0.578-2.376-1.984-2.376-2.81c0-0.967,0.276-1.443,1.733-2.581
		c1.492-1.166,2.549-2.743,2.549-4.651c0-2.27-1.012-5.149-2.91-5.149h2.862l2.021-2c0,0-6.771,0-9.027,0
		c-4.047,0-7.856,3.271-7.856,6.823c0,3.629,2.76,6.661,6.877,6.661c0.285,0,0.564,0.048,0.837,0.028
		c-0.268,0.511-0.458,1.112-0.458,1.71c0,1.009,0.542,1.839,1.228,2.508c-0.518,0-1.019,0.021-1.564,0.021
		c-5.013,0-8.871,3.196-8.871,6.506c0,3.261,4.229,5.303,9.243,5.303c5.714,0,8.87-3.242,8.87-6.503
		C-40.883,1657.942-41.652,1656.377-44.039,1654.691z M-48.86,1650.167c-2.326-0.068-4.537-2.601-4.939-5.655
		c-0.399-3.055,1.159-5.391,3.483-5.322c2.325,0.07,4.538,2.521,4.938,5.575C-44.977,1647.818-46.536,1650.238-48.86,1650.167z
		 M-49.771,1665.62c-3.466,0-5.968-2.194-5.968-4.829c0-2.581,3.104-4.731,6.568-4.694c0.809,0.009,1.562,0.14,2.247,0.361
		c1.88,1.307,3.229,2.046,3.61,3.537c0.071,0.303,0.111,0.612,0.111,0.931C-43.202,1663.561-44.9,1665.62-49.771,1665.62z"/>
</g>
<g>
	<g>
		<path fill="#2C3130" d="M114.504,1615.511c-20.434,0-37,16.561-37,36.99s16.566,36.988,37,36.988s37-16.559,37-36.988
			S134.938,1615.511,114.504,1615.511z"/>
	</g>
	<polygon id="Plus_1_" fill="#FFFFFF" points="135.504,1643.5 129.504,1643.5 129.504,1637.5 128.504,1637.5 128.504,1643.5 
		122.504,1643.5 122.504,1644.5 128.504,1644.5 128.504,1651.5 129.504,1651.5 129.504,1644.5 135.504,1644.5 	"/>
	<path id="g_1_" fill="#FFFFFF" d="M115.961,1654.691c-0.814-0.578-2.376-1.984-2.376-2.81c0-0.967,0.276-1.443,1.733-2.581
		c1.492-1.166,2.549-2.743,2.549-4.651c0-2.27-1.012-5.149-2.91-5.149h2.862l2.021-2c0,0-6.771,0-9.027,0
		c-4.047,0-7.856,3.271-7.856,6.823c0,3.629,2.76,6.661,6.877,6.661c0.285,0,0.564,0.048,0.837,0.028
		c-0.268,0.511-0.458,1.112-0.458,1.71c0,1.009,0.542,1.839,1.228,2.508c-0.518,0-1.019,0.021-1.564,0.021
		c-5.013,0-8.871,3.196-8.871,6.506c0,3.261,4.229,5.303,9.243,5.303c5.714,0,8.87-3.242,8.87-6.503
		C119.117,1657.942,118.348,1656.377,115.961,1654.691z M111.14,1650.167c-2.326-0.068-4.537-2.601-4.939-5.655
		c-0.399-3.055,1.159-5.391,3.483-5.322c2.325,0.07,4.538,2.521,4.938,5.575C115.023,1647.818,113.464,1650.238,111.14,1650.167z
		 M110.229,1665.62c-3.466,0-5.968-2.194-5.968-4.829c0-2.581,3.104-4.731,6.568-4.694c0.809,0.009,1.562,0.14,2.247,0.361
		c1.88,1.307,3.229,2.046,3.61,3.537c0.071,0.303,0.111,0.612,0.111,0.931C116.798,1663.561,115.1,1665.62,110.229,1665.62z"/>
</g>
<g>
	<path fill="#FFFFFF" d="M-216.061,1335.782c0,0.035-0.002,0.082-0.006,0.141s-0.023,0.098-0.059,0.117
		c-0.039,0.02-0.062,0.053-0.072,0.1s-0.016,0.094-0.016,0.141s-0.002,0.09-0.006,0.127s-0.02,0.055-0.047,0.055
		c-0.02,0-0.035-0.004-0.047-0.014s-0.027-0.016-0.047-0.016s-0.039,0.01-0.059,0.029s-0.029,0.039-0.029,0.059
		s0.008,0.035,0.021,0.045s0.02,0.023,0.02,0.043c0,0.016-0.029,0.035-0.088,0.057s-0.125,0.043-0.199,0.064
		s-0.146,0.039-0.217,0.053s-0.117,0.02-0.141,0.02c-0.141,0-0.281-0.025-0.422-0.076s-0.277-0.098-0.41-0.141
		c-0.16-0.055-0.277-0.145-0.354-0.27s-0.133-0.266-0.168-0.422s-0.061-0.316-0.078-0.48s-0.051-0.311-0.098-0.439
		c-0.02-0.059-0.029-0.107-0.029-0.146s0.006-0.07,0.016-0.096s0.021-0.047,0.035-0.064s0.025-0.033,0.035-0.047
		s0.014-0.029,0.014-0.045c0-0.047-0.014-0.094-0.041-0.141s-0.041-0.109-0.041-0.188c0-0.043,0.002-0.084,0.004-0.125
		s0.002-0.084,0.002-0.127c0-0.145-0.012-0.264-0.037-0.357s-0.061-0.18-0.105-0.258s-0.098-0.156-0.158-0.234
		s-0.129-0.172-0.203-0.281c-0.035,0.008-0.07,0.012-0.107,0.012c-0.039,0-0.076,0-0.115,0c-0.078,0-0.154-0.004-0.23-0.012
		s-0.154-0.012-0.232-0.012c-0.082,0-0.166,0.008-0.25,0.023s-0.168,0.023-0.254,0.023c-0.055,0-0.109-0.008-0.164-0.025
		s-0.109-0.027-0.164-0.027c-0.066,0-0.133,0.014-0.199,0.039s-0.127,0.061-0.182,0.105s-0.1,0.098-0.133,0.158
		s-0.049,0.125-0.049,0.195v0.188c0,0.34-0.029,0.674-0.088,1.002c-0.008,0.051-0.016,0.102-0.023,0.15s-0.012,0.1-0.012,0.154
		c0,0.16,0.031,0.289,0.096,0.387s0.145,0.178,0.238,0.238s0.197,0.109,0.311,0.148s0.217,0.08,0.311,0.121s0.172,0.09,0.236,0.148
		s0.098,0.139,0.098,0.24c0,0.039-0.008,0.076-0.021,0.109s-0.029,0.064-0.049,0.096c-0.051,0.082-0.1,0.145-0.145,0.186
		s-0.094,0.072-0.146,0.096s-0.109,0.041-0.172,0.053s-0.137,0.027-0.223,0.047c-0.066,0.016-0.137,0.027-0.209,0.033
		s-0.143,0.008-0.213,0.008c-0.109,0-0.217-0.012-0.322-0.037s-0.213-0.039-0.322-0.039c-0.082,0-0.166,0.008-0.25,0.021
		s-0.166,0.029-0.248,0.047s-0.164,0.033-0.246,0.047s-0.164,0.02-0.246,0.02c-0.055,0-0.115-0.006-0.18-0.018
		s-0.123-0.031-0.178-0.061s-0.102-0.068-0.139-0.115s-0.055-0.104-0.055-0.17c0-0.055,0.014-0.104,0.041-0.146
		s0.062-0.08,0.107-0.111s0.094-0.057,0.145-0.076s0.1-0.031,0.146-0.035c0.043-0.004,0.078-0.006,0.107-0.006
		s0.055-0.004,0.076-0.012s0.045-0.02,0.068-0.035s0.051-0.039,0.082-0.07c0.02-0.02,0.037-0.035,0.055-0.047
		s0.041-0.018,0.068-0.018c0.02,0,0.039,0.002,0.059,0.006s0.039,0.006,0.059,0.006c0.031,0,0.062-0.01,0.094-0.029
		c0.082-0.047,0.141-0.107,0.176-0.182s0.059-0.154,0.07-0.242s0.018-0.18,0.02-0.273s0.014-0.18,0.033-0.258
		c0.02-0.086,0.029-0.166,0.029-0.24c0-0.137-0.018-0.271-0.051-0.404s-0.049-0.268-0.049-0.404c0-0.164,0.012-0.328,0.035-0.492
		s0.035-0.328,0.035-0.492c0-0.043-0.002-0.084-0.004-0.123s-0.002-0.08-0.002-0.123c0-0.281,0.018-0.559,0.053-0.832
		s0.053-0.551,0.053-0.832c0-0.078-0.002-0.154-0.006-0.229s-0.01-0.15-0.018-0.229c-0.008-0.062-0.016-0.141-0.023-0.232
		s-0.02-0.186-0.035-0.283s-0.037-0.195-0.062-0.293s-0.061-0.186-0.105-0.262s-0.1-0.139-0.164-0.188s-0.141-0.072-0.23-0.072
		c-0.02,0-0.041,0.002-0.062,0.006s-0.041,0.006-0.061,0.006c-0.043,0-0.078-0.014-0.105-0.039s-0.049-0.057-0.064-0.094
		s-0.027-0.076-0.033-0.119s-0.008-0.08-0.008-0.111c0-0.133,0.033-0.23,0.102-0.293s0.152-0.105,0.252-0.129
		s0.207-0.035,0.322-0.033s0.219,0,0.309-0.008c0.102-0.008,0.201-0.025,0.301-0.053s0.203-0.041,0.309-0.041
		c0.152,0,0.303,0.02,0.451,0.059s0.299,0.059,0.451,0.059c0.125,0,0.246-0.012,0.363-0.033s0.234-0.051,0.352-0.09
		c0.059-0.02,0.111-0.029,0.158-0.029c0.152,0,0.303,0.02,0.451,0.059s0.297,0.062,0.445,0.07c0.102,0.008,0.207,0.025,0.316,0.055
		s0.213,0.07,0.309,0.123s0.178,0.121,0.248,0.203s0.115,0.178,0.135,0.287c0.012,0.066,0.039,0.129,0.082,0.189
		s0.09,0.115,0.139,0.164s0.092,0.094,0.129,0.135s0.055,0.076,0.055,0.104s-0.012,0.047-0.037,0.061s-0.039,0.037-0.039,0.068
		c0,0.02,0.014,0.041,0.039,0.064s0.053,0.051,0.084,0.082s0.061,0.064,0.086,0.102s0.037,0.078,0.037,0.121
		c0,0.059-0.018,0.109-0.055,0.154s-0.057,0.098-0.057,0.156l0.012,0.018l0.082-0.023l0.012,0.012
		c0.016,0.062,0.023,0.127,0.021,0.195s-0.004,0.131-0.004,0.186c0,0.074-0.002,0.156-0.006,0.246s-0.014,0.178-0.029,0.264
		s-0.039,0.166-0.07,0.24s-0.076,0.133-0.135,0.176c-0.035,0.027-0.07,0.047-0.107,0.061s-0.074,0.029-0.109,0.047
		s-0.066,0.041-0.094,0.068s-0.049,0.064-0.064,0.111c-0.02,0.066-0.053,0.129-0.1,0.188s-0.094,0.117-0.143,0.172
		c-0.049,0.057-0.092,0.115-0.129,0.174s-0.057,0.123-0.057,0.193c0,0.113,0.027,0.219,0.08,0.316s0.1,0.197,0.143,0.299
		c0.043,0.105,0.074,0.213,0.094,0.32s0.035,0.215,0.045,0.324s0.018,0.219,0.023,0.328s0.016,0.219,0.031,0.328
		c0.008,0.047,0.027,0.125,0.057,0.232s0.064,0.215,0.107,0.324s0.092,0.205,0.146,0.287s0.111,0.123,0.17,0.123
		c0.051,0,0.092-0.027,0.123-0.082s0.062-0.117,0.092-0.188s0.062-0.139,0.1-0.205s0.086-0.111,0.148-0.135
		c0.121,0.012,0.223,0.035,0.303,0.07s0.141,0.084,0.184,0.145s0.074,0.135,0.092,0.223S-216.061,1335.665-216.061,1335.782z
		 M-217.812,1330.392c0-0.055-0.012-0.119-0.035-0.191s-0.053-0.145-0.088-0.219s-0.072-0.145-0.113-0.211s-0.082-0.121-0.121-0.164
		c-0.082,0-0.137-0.006-0.164-0.018s-0.045-0.027-0.053-0.045s-0.016-0.037-0.025-0.061s-0.039-0.047-0.086-0.07
		c-0.137-0.066-0.26-0.117-0.369-0.152s-0.24-0.053-0.393-0.053c-0.043,0-0.084,0.012-0.125,0.035s-0.078,0.035-0.109,0.035
		c-0.09,0-0.178-0.012-0.264-0.033s-0.174-0.031-0.264-0.031c-0.129,0-0.262,0.016-0.398,0.047c-0.09,0.023-0.18,0.045-0.27,0.064
		s-0.17,0.049-0.24,0.088s-0.129,0.092-0.174,0.158s-0.066,0.158-0.066,0.275c0,0.121,0.012,0.24,0.037,0.357
		s0.039,0.236,0.039,0.357c0,0.059-0.01,0.115-0.027,0.17s-0.035,0.107-0.055,0.16s-0.039,0.107-0.057,0.162
		s-0.025,0.111-0.025,0.17c0,0.07,0.006,0.141,0.02,0.213s0.039,0.137,0.074,0.193s0.08,0.104,0.137,0.139s0.129,0.053,0.215,0.053
		c0.082,0,0.16-0.018,0.234-0.051s0.152-0.049,0.234-0.049c0.043,0,0.084,0.01,0.123,0.031s0.078,0.045,0.117,0.068
		s0.08,0.045,0.123,0.066s0.09,0.033,0.141,0.033c0.039,0,0.076-0.006,0.111-0.016s0.068-0.021,0.1-0.037
		c0.148-0.066,0.305-0.127,0.473-0.18c0.166-0.053,0.33-0.078,0.494-0.078c0.043,0,0.094-0.025,0.152-0.074s0.119-0.111,0.182-0.188
		s0.125-0.16,0.188-0.252s0.119-0.184,0.168-0.275s0.088-0.176,0.117-0.252S-217.812,1330.435-217.812,1330.392z"/>
	<path fill="#FFFFFF" d="M-208.857,1330.86c0,0.016-0.01,0.047-0.029,0.094s-0.043,0.098-0.068,0.152s-0.051,0.105-0.078,0.152
		s-0.049,0.078-0.064,0.094l0.012,0.006c-0.008,0-0.016,0.002-0.023,0.006h-0.029c-0.016,0.004-0.033,0.006-0.051,0.006
		s-0.035,0-0.055,0l0.023-0.006c-0.09-0.004-0.172-0.021-0.244-0.051s-0.131-0.084-0.178-0.166c-0.008-0.016-0.02-0.045-0.035-0.086
		s-0.031-0.084-0.047-0.131s-0.029-0.092-0.039-0.133s-0.014-0.07-0.014-0.09c0-0.031,0.002-0.064,0.008-0.1s0.01-0.068,0.01-0.1
		c0-0.121-0.012-0.24-0.035-0.357s-0.035-0.236-0.035-0.357c0-0.078,0.01-0.154,0.029-0.229s0.055-0.143,0.105-0.205h-0.029
		c-0.047,0-0.084-0.016-0.111-0.045s-0.072-0.043-0.135-0.043c-0.148,0-0.293,0.018-0.434,0.053s-0.289,0.053-0.445,0.053
		c-0.062,0-0.125-0.002-0.188-0.004s-0.127-0.002-0.193-0.002c-0.121,0-0.24,0.014-0.357,0.041s-0.232,0.041-0.34,0.041
		c-0.012,0-0.018-0.002-0.018-0.006c0-0.008,0.012-0.02,0.041-0.033c0.025-0.014,0.041-0.023,0.041-0.031
		c0-0.016-0.014-0.023-0.039-0.023s-0.043,0-0.049,0c-0.033,0-0.059,0.016-0.08,0.047s-0.055,0.053-0.098,0.064
		c-0.059,0.016-0.121,0.023-0.188,0.023s-0.131,0-0.193,0c-0.039,0-0.096-0.002-0.17-0.006s-0.148-0.014-0.223-0.027
		s-0.141-0.035-0.201-0.064s-0.096-0.07-0.104-0.125c-0.043,0.012-0.07,0.031-0.084,0.061s-0.025,0.061-0.035,0.092
		s-0.025,0.059-0.045,0.084s-0.059,0.041-0.117,0.045c-0.109,0.008-0.18,0.043-0.211,0.105s-0.047,0.133-0.047,0.211
		c0,0.043,0.002,0.086,0.006,0.129s0.006,0.086,0.006,0.129c0,0.156-0.002,0.311-0.008,0.465s-0.01,0.311-0.01,0.467
		c0,0.066,0.002,0.154,0.004,0.266s0.01,0.221,0.023,0.328s0.033,0.203,0.061,0.287s0.066,0.133,0.117,0.145
		c0.031,0.008,0.064,0.012,0.1,0.014s0.07,0.004,0.105,0.004c0.137,0,0.271-0.016,0.402-0.047s0.264-0.047,0.4-0.047
		c0.055,0,0.107,0.008,0.156,0.023s0.098,0.023,0.148,0.023c0.074,0,0.133-0.037,0.174-0.109s0.07-0.156,0.088-0.252
		s0.027-0.191,0.033-0.289c0.002-0.098,0.006-0.17,0.006-0.217c0-0.098-0.004-0.195-0.01-0.291s-0.008-0.191-0.008-0.289h0.035
		c0.096,0,0.189,0.016,0.275,0.047c0.084,0.031,0.176,0.047,0.27,0.047c0.039,0,0.068-0.002,0.088-0.006
		c0,0.078,0.014,0.156,0.041,0.234s0.041,0.158,0.041,0.24c0,0.102-0.055,0.166-0.164,0.193c0.031,0.055,0.057,0.109,0.076,0.164
		s0.029,0.111,0.029,0.17c0,0.043-0.004,0.084-0.012,0.125s-0.012,0.084-0.012,0.127c0,0.039,0.012,0.068,0.037,0.09
		s0.039,0.047,0.039,0.074c0,0.047-0.02,0.105-0.057,0.176s-0.055,0.143-0.055,0.217c0,0.086,0.008,0.176,0.023,0.27
		s0.033,0.191,0.053,0.293s0.037,0.205,0.053,0.309s0.023,0.207,0.023,0.312c0,0.062-0.004,0.127-0.01,0.193
		s-0.02,0.131-0.041,0.191s-0.051,0.115-0.088,0.166s-0.084,0.094-0.143,0.129c-0.074-0.008-0.139-0.029-0.188-0.066
		c-0.051-0.037-0.094-0.082-0.127-0.135s-0.059-0.111-0.076-0.176s-0.031-0.131-0.037-0.197c-0.018-0.102-0.023-0.195-0.023-0.281
		s-0.02-0.158-0.057-0.219s-0.107-0.109-0.211-0.145s-0.266-0.053-0.484-0.053c-0.062,0-0.15,0.006-0.266,0.018
		s-0.23,0.033-0.344,0.062s-0.211,0.07-0.295,0.125s-0.127,0.123-0.127,0.205c0,0.047,0.006,0.094,0.016,0.139
		s0.014,0.09,0.014,0.137c0,0.039-0.002,0.078-0.006,0.117s-0.006,0.08-0.006,0.123c0,0.105,0.006,0.211,0.018,0.314
		s0.018,0.207,0.018,0.312c0,0.113-0.014,0.225-0.043,0.334s-0.045,0.221-0.045,0.334c0,0.125,0.031,0.225,0.092,0.297
		s0.137,0.127,0.23,0.164s0.195,0.061,0.305,0.072s0.211,0.018,0.305,0.018c0.188,0,0.375-0.012,0.562-0.035
		s0.377-0.035,0.564-0.035c0.117,0,0.234,0.006,0.352,0.018s0.234,0.018,0.352,0.018c0.09,0,0.189-0.002,0.299-0.008
		s0.213-0.025,0.312-0.057s0.186-0.076,0.258-0.137s0.119-0.148,0.139-0.262c0.004-0.031,0.014-0.053,0.031-0.066
		s0.037-0.025,0.059-0.035s0.041-0.021,0.057-0.033s0.023-0.031,0.023-0.059c0-0.031-0.012-0.066-0.035-0.107
		s-0.039-0.08-0.047-0.115c-0.016-0.074-0.025-0.148-0.027-0.225s-0.002-0.152-0.002-0.227c0-0.117,0.018-0.219,0.055-0.307
		s0.057-0.186,0.057-0.291c0-0.031-0.002-0.061-0.004-0.088s-0.002-0.057-0.002-0.088c0-0.023,0.018-0.047,0.053-0.07
		s0.076-0.043,0.123-0.061s0.094-0.033,0.141-0.045s0.082-0.018,0.105-0.018c0.098,0,0.178,0.035,0.24,0.104s0.109,0.15,0.143,0.248
		s0.057,0.199,0.068,0.305s0.018,0.195,0.018,0.27c0,0.121-0.01,0.258-0.029,0.41s-0.047,0.309-0.08,0.469s-0.07,0.316-0.113,0.467
		s-0.086,0.281-0.129,0.395c-0.023,0.055-0.047,0.096-0.068,0.123s-0.045,0.051-0.07,0.068s-0.053,0.035-0.082,0.053
		s-0.061,0.045-0.096,0.084c-0.031,0.035-0.092,0.059-0.18,0.07s-0.18,0.018-0.277,0.018c-0.074,0-0.145-0.002-0.211-0.006
		s-0.117-0.006-0.152-0.006c-0.129,0-0.234,0.016-0.314,0.047s-0.154,0.047-0.225,0.047c-0.051,0-0.084-0.01-0.1-0.031
		s-0.039-0.033-0.07-0.033c-0.027,0-0.053,0.012-0.076,0.035s-0.059,0.035-0.105,0.035s-0.096,0-0.145-0.002s-0.1-0.004-0.148-0.004
		c-0.293,0-0.586,0.01-0.875,0.027s-0.58,0.029-0.873,0.037c-0.199,0.008-0.396,0.031-0.592,0.07s-0.393,0.059-0.592,0.059
		c-0.07,0-0.15-0.006-0.24-0.02s-0.174-0.039-0.254-0.074s-0.148-0.082-0.203-0.143s-0.082-0.137-0.082-0.227
		c0-0.086,0.031-0.168,0.094-0.246s0.139-0.15,0.227-0.217s0.178-0.127,0.271-0.184s0.17-0.111,0.229-0.162
		c-0.004-0.031-0.006-0.061-0.006-0.088s0-0.055,0-0.082c0-0.059,0.002-0.117,0.004-0.176s0.012-0.117,0.031-0.176
		c0.008-0.035,0.029-0.076,0.062-0.125s0.049-0.092,0.049-0.127c0-0.027-0.004-0.053-0.014-0.076s-0.02-0.049-0.027-0.076
		c-0.043-0.105-0.072-0.199-0.09-0.281s-0.027-0.182-0.027-0.299c0-0.07,0.002-0.131,0.004-0.184s0.006-0.104,0.012-0.152
		s0.016-0.1,0.029-0.152s0.031-0.113,0.055-0.18c-0.016-0.027-0.033-0.068-0.053-0.123s-0.029-0.098-0.029-0.129l0.082-0.832
		c-0.004-0.012-0.006-0.031-0.006-0.059c0-0.035,0.006-0.07,0.018-0.105s0.018-0.072,0.018-0.111c0-0.09-0.016-0.18-0.047-0.268
		s-0.047-0.176-0.047-0.266c0-0.031,0.008-0.068,0.023-0.111s0.033-0.09,0.051-0.141s0.033-0.107,0.049-0.168
		s0.023-0.125,0.023-0.195c0-0.055-0.012-0.102-0.037-0.141s-0.039-0.084-0.039-0.135c0-0.047,0.012-0.094,0.035-0.141
		s0.035-0.098,0.035-0.152c0-0.078-0.014-0.154-0.043-0.227s-0.061-0.141-0.092-0.207c-0.047-0.098-0.082-0.178-0.107-0.238
		s-0.057-0.109-0.092-0.146s-0.082-0.064-0.143-0.082s-0.148-0.029-0.262-0.037c-0.055-0.004-0.105-0.021-0.154-0.051
		s-0.092-0.066-0.129-0.113s-0.068-0.098-0.092-0.152s-0.035-0.107-0.035-0.158c0-0.07,0.031-0.131,0.094-0.18
		s0.143-0.088,0.24-0.117s0.207-0.053,0.328-0.07s0.24-0.031,0.355-0.041s0.221-0.016,0.316-0.02s0.168-0.01,0.219-0.018
		c0.078-0.012,0.154-0.02,0.229-0.023s0.15-0.006,0.229-0.006c0.152,0,0.307,0.004,0.461,0.014s0.307,0.016,0.459,0.016
		c0.164,0,0.326-0.016,0.484-0.047s0.32-0.047,0.484-0.047c0.148,0,0.295,0.016,0.439,0.049s0.287,0.051,0.428,0.051
		c0.137,0,0.271-0.018,0.404-0.051s0.268-0.049,0.404-0.049c0.059,0,0.117,0.006,0.176,0.018c0.086,0.094,0.164,0.172,0.236,0.234
		s0.135,0.125,0.188,0.189s0.096,0.141,0.129,0.227s0.057,0.199,0.068,0.34c0.004,0.051,0.006,0.111,0.006,0.184
		s0.002,0.143,0.006,0.211s0.014,0.131,0.031,0.186s0.047,0.088,0.086,0.1c0,0.055-0.027,0.082-0.082,0.082
		c0.004,0.055,0.016,0.109,0.035,0.166s0.039,0.113,0.059,0.17s0.037,0.113,0.053,0.17S-208.857,1330.81-208.857,1330.86z
		 M-213.934,1332.302c-0.023,0-0.045,0.004-0.064,0.012s-0.033,0.025-0.041,0.053c0.148,0.086,0.268,0.166,0.355,0.242
		s0.156,0.139,0.205,0.186s0.084,0.074,0.107,0.08s0.047-0.02,0.07-0.074c0.031-0.07,0.027-0.137-0.014-0.199
		s-0.098-0.115-0.17-0.158s-0.15-0.076-0.234-0.104C-213.803,1332.313-213.875,1332.302-213.934,1332.302z"/>
	<path fill="#FFFFFF" d="M-207.668,1329.19c-0.016,0.02-0.033,0.037-0.051,0.053s-0.037,0.023-0.061,0.023
		c-0.027,0-0.051-0.012-0.068-0.035s-0.025-0.049-0.025-0.076c0-0.004,0.002-0.01,0.006-0.018s0.006-0.016,0.006-0.023l0.035-0.012
		c0.031,0,0.061,0.01,0.088,0.029S-207.688,1329.171-207.668,1329.19z M-201.914,1330.667c0,0.059-0.002,0.125-0.006,0.199
		s-0.01,0.15-0.02,0.229s-0.021,0.152-0.035,0.225s-0.031,0.137-0.051,0.191c-0.055,0.133-0.125,0.254-0.213,0.363
		s-0.158,0.232-0.209,0.369c-0.012,0.035-0.045,0.074-0.1,0.117s-0.115,0.086-0.182,0.129s-0.131,0.084-0.195,0.119
		c-0.064,0.039-0.115,0.068-0.15,0.092c-0.223,0.137-0.445,0.24-0.668,0.311s-0.463,0.105-0.721,0.105h-0.035
		c-0.062-0.035-0.115-0.059-0.156-0.07s-0.098-0.018-0.172-0.018s-0.146,0.002-0.217,0.006s-0.141,0.01-0.211,0.018
		c-0.027,0.004-0.082,0.02-0.162,0.045s-0.162,0.055-0.248,0.088s-0.164,0.066-0.232,0.1s-0.102,0.059-0.102,0.078v0.023
		c0.008,0.027,0.018,0.041,0.029,0.041c0.02,0,0.037-0.01,0.055-0.031s0.039-0.033,0.062-0.033c0.02,0,0.035,0.01,0.047,0.029
		s0.02,0.043,0.025,0.068s0.01,0.051,0.012,0.076s0.004,0.043,0.004,0.055c0,0.113-0.012,0.227-0.035,0.338
		s-0.035,0.223-0.035,0.336s-0.002,0.227-0.004,0.338s-0.002,0.223-0.002,0.336c0,0.207,0.01,0.363,0.031,0.469
		s0.064,0.186,0.127,0.238s0.148,0.092,0.258,0.117s0.252,0.061,0.428,0.107c-0.012,0.035-0.018,0.068-0.018,0.1
		c0,0.047,0.014,0.082,0.043,0.104s0.061,0.043,0.094,0.064s0.064,0.045,0.094,0.072s0.045,0.07,0.045,0.129
		c0,0.051-0.02,0.096-0.059,0.135c-0.047,0.047-0.078,0.086-0.092,0.117s-0.025,0.057-0.037,0.074s-0.033,0.031-0.064,0.041
		s-0.088,0.016-0.17,0.02c-0.188,0.012-0.373,0.018-0.557,0.018c-0.07,0-0.141,0-0.211-0.002s-0.143-0.004-0.217-0.004
		c-0.188,0-0.371,0.006-0.551,0.018c-0.109,0.008-0.217,0.025-0.32,0.053s-0.211,0.041-0.324,0.041
		c-0.129,0-0.217-0.037-0.264-0.111s-0.07-0.17-0.07-0.287c0-0.113,0.025-0.207,0.076-0.283s0.113-0.139,0.189-0.188
		s0.158-0.09,0.246-0.121s0.17-0.061,0.246-0.09s0.141-0.061,0.191-0.092s0.076-0.072,0.076-0.123c0-0.047-0.01-0.092-0.027-0.135
		s-0.025-0.088-0.025-0.135c0-0.027,0.014-0.08,0.041-0.158s0.041-0.17,0.041-0.275c0-0.043,0-0.084,0-0.125
		s-0.002-0.084-0.006-0.127c-0.023-0.012-0.041-0.035-0.053-0.07s-0.021-0.072-0.027-0.113s-0.008-0.082-0.008-0.123
		s0-0.074,0-0.098c0-0.148,0.01-0.295,0.029-0.441s0.029-0.295,0.029-0.443c0-0.094-0.006-0.186-0.018-0.275
		s-0.018-0.182-0.018-0.275c0-0.027,0.008-0.047,0.023-0.059c-0.035-0.027-0.053-0.066-0.053-0.117c0-0.055,0.008-0.105,0.025-0.152
		s0.027-0.096,0.027-0.146c0-0.078-0.008-0.156-0.023-0.234s-0.033-0.156-0.051-0.232s-0.033-0.152-0.047-0.229
		s-0.02-0.152-0.02-0.23c0-0.047,0.006-0.092,0.02-0.135s0.027-0.088,0.041-0.133s0.027-0.09,0.041-0.135s0.021-0.092,0.021-0.143
		c0-0.133-0.014-0.264-0.039-0.391s-0.037-0.256-0.037-0.389c0-0.078,0.018-0.137,0.055-0.174s0.078-0.066,0.121-0.09
		s0.082-0.047,0.119-0.068s0.057-0.053,0.057-0.096c0-0.027-0.014-0.051-0.039-0.07s-0.049-0.029-0.072-0.029
		c-0.055,0-0.102,0.018-0.141,0.053s-0.084,0.053-0.135,0.053c-0.031,0-0.061-0.021-0.086-0.062s-0.053-0.084-0.082-0.131
		s-0.062-0.092-0.1-0.133s-0.08-0.061-0.131-0.061c-0.043,0-0.086,0.006-0.129,0.018s-0.086,0.018-0.129,0.018
		c-0.059,0-0.096-0.014-0.111-0.041s-0.023-0.062-0.023-0.105c0-0.02,0-0.039,0.002-0.059s0.004-0.039,0.004-0.059
		c0-0.031-0.006-0.064-0.018-0.1s-0.039-0.053-0.082-0.053c-0.023,0-0.047,0.004-0.07,0.012c0.055-0.07,0.127-0.125,0.217-0.162
		s0.184-0.064,0.283-0.084s0.201-0.035,0.305-0.045s0.197-0.023,0.279-0.043c0.031-0.008,0.059-0.014,0.084-0.018
		s0.055-0.006,0.086-0.006c0.07,0,0.139,0.006,0.207,0.02s0.137,0.021,0.203,0.021c0.074,0,0.133-0.018,0.178-0.051
		s0.1-0.049,0.162-0.049c0.031,0.016,0.072,0.033,0.123,0.055s0.092,0.033,0.123,0.033c0.133,0,0.264-0.008,0.393-0.023
		s0.258-0.023,0.387-0.023c0.141,0,0.275,0.018,0.408,0.055c0.129,0.037,0.26,0.08,0.393,0.127c0.131,0.047,0.26,0.094,0.389,0.141
		s0.262,0.082,0.398,0.105c0.047,0.008,0.094,0.025,0.139,0.053s0.088,0.059,0.131,0.096s0.086,0.076,0.127,0.115
		s0.078,0.072,0.113,0.1c0.055,0.043,0.1,0.092,0.133,0.146s0.066,0.109,0.1,0.166s0.068,0.111,0.105,0.164s0.084,0.1,0.143,0.139
		c0.055,0.035,0.098,0.084,0.129,0.148s0.055,0.135,0.068,0.209s0.021,0.148,0.025,0.223S-201.914,1330.608-201.914,1330.667z
		 M-202.881,1331.024c0-0.25-0.037-0.479-0.113-0.684s-0.186-0.381-0.328-0.527s-0.316-0.26-0.52-0.342s-0.43-0.123-0.68-0.123
		c-0.039,0-0.098,0-0.176,0s-0.164,0.002-0.258,0.006s-0.191,0.01-0.293,0.018s-0.195,0.018-0.281,0.031s-0.162,0.031-0.227,0.053
		s-0.105,0.049-0.125,0.08c-0.027,0.043-0.066,0.094-0.115,0.154s-0.072,0.115-0.072,0.162c0,0.043,0.012,0.086,0.035,0.131
		s0.049,0.094,0.078,0.145s0.057,0.102,0.082,0.154s0.039,0.107,0.039,0.162c-0.031,0.004-0.061,0.012-0.088,0.025
		s-0.041,0.039-0.041,0.074c0,0.059,0.018,0.123,0.055,0.193s0.057,0.143,0.057,0.217c0,0.055-0.012,0.096-0.035,0.125
		s-0.049,0.055-0.076,0.074s-0.053,0.039-0.076,0.059s-0.035,0.045-0.035,0.076c0,0.035,0.025,0.094,0.076,0.176
		s0.107,0.168,0.17,0.26s0.119,0.176,0.17,0.252s0.076,0.123,0.076,0.139c0.094,0.012,0.186,0.018,0.275,0.018
		c0.059,0,0.154-0.004,0.289-0.01s0.277-0.014,0.426-0.023s0.287-0.02,0.416-0.031s0.217-0.023,0.264-0.035
		c0.051-0.012,0.086-0.029,0.105-0.053s0.039-0.047,0.059-0.07s0.045-0.045,0.074-0.062s0.076-0.025,0.143-0.025
		c0.121,0,0.225-0.021,0.309-0.064s0.15-0.102,0.201-0.174s0.088-0.156,0.109-0.252S-202.881,1331.134-202.881,1331.024z
		 M-205.998,1333.368v0.018c-0.004-0.012-0.006-0.021-0.006-0.031s0-0.02,0-0.027l0.006,0.035V1333.368z"/>
	<path fill="#FFFFFF" d="M-194.611,1335.079c0,0.051-0.01,0.098-0.029,0.141s-0.029,0.09-0.029,0.141
		c0,0.039,0.008,0.078,0.023,0.115s0.023,0.074,0.023,0.113c0,0.031-0.006,0.082-0.018,0.15s-0.027,0.139-0.045,0.213
		s-0.035,0.145-0.055,0.209s-0.037,0.107-0.053,0.131h-0.17c-0.016,0.082-0.043,0.166-0.082,0.252
		c-0.148,0.07-0.275,0.115-0.381,0.135s-0.219,0.029-0.34,0.029c-0.055,0-0.113,0-0.174-0.002s-0.125-0.004-0.195-0.004
		c-0.129,0-0.242,0.008-0.34,0.021s-0.203,0.053-0.316,0.119c-0.035,0.016-0.072,0.023-0.111,0.023
		c-0.074,0-0.148-0.008-0.221-0.023s-0.143-0.033-0.213-0.053s-0.143-0.037-0.215-0.053s-0.146-0.023-0.221-0.023
		c-0.105,0-0.211-0.01-0.316-0.031s-0.211-0.033-0.316-0.033c-0.078,0-0.154,0.008-0.229,0.021s-0.148,0.029-0.225,0.047
		s-0.152,0.033-0.227,0.047s-0.15,0.02-0.229,0.02c-0.07,0-0.139-0.008-0.205-0.023s-0.135-0.023-0.205-0.023
		c-0.125,0-0.248,0.012-0.371,0.033s-0.248,0.031-0.373,0.031c-0.164,0-0.299-0.039-0.406-0.119s-0.162-0.209-0.162-0.385
		c0-0.07,0.016-0.133,0.047-0.188c0.09-0.164,0.184-0.281,0.279-0.354s0.188-0.125,0.275-0.156s0.17-0.053,0.248-0.064
		s0.146-0.037,0.205-0.076s0.105-0.105,0.139-0.199s0.049-0.238,0.049-0.434c0-0.23-0.018-0.457-0.055-0.682
		s-0.057-0.455-0.057-0.689c0-0.113,0.012-0.225,0.035-0.334s0.035-0.221,0.035-0.334c0-0.195-0.008-0.387-0.025-0.578
		c-0.018-0.189-0.027-0.379-0.027-0.57c0-0.133-0.018-0.264-0.053-0.391s-0.053-0.256-0.053-0.389c0-0.078,0.008-0.154,0.023-0.227
		s0.023-0.145,0.023-0.219c0-0.113-0.006-0.227-0.018-0.34s-0.021-0.227-0.029-0.34c-0.004-0.062-0.012-0.125-0.025-0.186
		s-0.037-0.113-0.068-0.158s-0.072-0.08-0.123-0.107s-0.113-0.041-0.188-0.041c-0.07,0-0.139,0.012-0.207,0.035
		s-0.141,0.035-0.215,0.035c-0.043,0-0.084-0.004-0.123-0.012s-0.078-0.018-0.117-0.029c-0.02-0.027-0.035-0.059-0.049-0.094
		s-0.029-0.07-0.045-0.104s-0.035-0.062-0.059-0.088s-0.057-0.041-0.1-0.049c0.039-0.059,0.076-0.135,0.111-0.229
		s0.076-0.184,0.121-0.27s0.098-0.16,0.16-0.223s0.139-0.094,0.229-0.094c0.074,0,0.145,0.018,0.209,0.053s0.133,0.053,0.207,0.053
		c0.094,0,0.184-0.02,0.27-0.059s0.178-0.059,0.275-0.059c0.078,0,0.148,0.027,0.211,0.082c0.07-0.02,0.135-0.029,0.193-0.029
		c0.039,0,0.078,0.006,0.115,0.018s0.074,0.018,0.113,0.018c0.117,0,0.232-0.018,0.344-0.051s0.225-0.049,0.342-0.049
		c0.094,0,0.184,0.014,0.27,0.041s0.17,0.059,0.252,0.096s0.164,0.076,0.248,0.115c0.082,0.039,0.166,0.068,0.258,0.088
		c0.002,0.02,0.006,0.035,0.008,0.049s0.004,0.031,0.004,0.051v0.023l-0.006,0.023c-0.004,0.074-0.018,0.146-0.041,0.219
		s-0.041,0.145-0.053,0.215c-0.021,0.094-0.055,0.152-0.104,0.178s-0.107,0.039-0.18,0.039c-0.031,0-0.064-0.002-0.1-0.004
		s-0.068-0.002-0.1-0.002c-0.145,0-0.287,0.01-0.43,0.031s-0.283,0.055-0.42,0.098c-0.039,0.074-0.059,0.156-0.059,0.246
		c0,0.07,0.008,0.141,0.023,0.211s0.027,0.141,0.035,0.211c-0.043-0.008-0.08-0.02-0.113-0.033s-0.072-0.02-0.115-0.02
		c-0.031,0-0.059,0.018-0.084,0.053s-0.039,0.068-0.039,0.1c0,0.027,0.01,0.051,0.029,0.07s0.043,0.035,0.07,0.047
		s0.057,0.02,0.088,0.023s0.057,0.006,0.076,0.006l0.006,0.117c0,0.145-0.016,0.285-0.049,0.424s-0.051,0.281-0.051,0.426
		c0,0.043,0.006,0.086,0.016,0.129s0.014,0.086,0.014,0.129c0,0.051-0.014,0.082-0.043,0.094s-0.061,0.018-0.094,0.018
		s-0.064,0.002-0.094,0.006s-0.045,0.021-0.045,0.053c0,0.012,0.002,0.021,0.006,0.029c-0.016,0.031-0.023,0.059-0.023,0.082
		c0,0.035,0.014,0.057,0.041,0.064s0.057,0.012,0.088,0.014s0.061,0.006,0.088,0.012s0.041,0.023,0.041,0.051
		c0,0.043-0.006,0.082-0.018,0.119s-0.018,0.076-0.018,0.115c0,0.105,0.021,0.207,0.064,0.305s0.064,0.199,0.064,0.305
		c0,0.094-0.012,0.188-0.037,0.279s-0.039,0.184-0.039,0.277c0,0.059,0.01,0.117,0.027,0.174s0.037,0.113,0.059,0.17
		s0.041,0.113,0.059,0.17s0.025,0.113,0.025,0.172c0,0.082-0.014,0.162-0.041,0.24s-0.041,0.158-0.041,0.24
		c0,0.02,0.004,0.049,0.012,0.088c0.016,0.09,0.031,0.197,0.045,0.32s0.037,0.24,0.072,0.352s0.088,0.205,0.158,0.283
		s0.17,0.117,0.299,0.117c0.121,0,0.238-0.018,0.352-0.055s0.23-0.057,0.354-0.057c0.072,0,0.146,0.01,0.219,0.027
		s0.145,0.037,0.215,0.061s0.141,0.045,0.213,0.062s0.148,0.025,0.227,0.025c0.117,0,0.232-0.014,0.348-0.041s0.232-0.051,0.35-0.07
		c0.164-0.031,0.287-0.086,0.369-0.166s0.123-0.209,0.123-0.385s-0.021-0.346-0.062-0.512s-0.061-0.338-0.061-0.514
		c0-0.105,0.016-0.207,0.047-0.307s0.08-0.189,0.146-0.268c0.094-0.031,0.188-0.047,0.281-0.047c0.172,0,0.293,0.057,0.363,0.168
		s0.105,0.242,0.105,0.395c0,0.066-0.014,0.113-0.041,0.139s-0.041,0.049-0.041,0.072c0,0.008,0.008,0.02,0.023,0.033
		s0.033,0.029,0.053,0.049s0.037,0.043,0.053,0.07s0.023,0.057,0.023,0.088c0,0.027-0.012,0.047-0.035,0.059
		c0,0.043-0.002,0.096-0.006,0.158s-0.008,0.125-0.01,0.188s0,0.121,0.004,0.176s0.014,0.096,0.029,0.123L-194.611,1335.079z"/>
	<path fill="#FFFFFF" d="M-191.324,1329.079c-0.047,0.012-0.088,0.027-0.123,0.049s-0.07,0.047-0.105,0.076
		s-0.074,0.064-0.115,0.104s-0.09,0.084-0.148,0.135c-0.012,0.078-0.018,0.156-0.018,0.234c0,0.082,0.01,0.146,0.029,0.195
		s0.041,0.09,0.064,0.123s0.045,0.064,0.064,0.094s0.029,0.064,0.029,0.104c0,0.086,0.023,0.176,0.072,0.27s0.109,0.184,0.18,0.271
		s0.143,0.172,0.217,0.252s0.139,0.15,0.193,0.209h0.018c0.035,0,0.074-0.016,0.119-0.047s0.09-0.07,0.133-0.115
		s0.078-0.092,0.107-0.143s0.045-0.094,0.045-0.129c0-0.039,0.014-0.076,0.041-0.109s0.059-0.066,0.098-0.1
		c0.035-0.033,0.072-0.064,0.111-0.094c0.035-0.029,0.064-0.061,0.084-0.096v-0.252c0.023-0.023,0.047-0.045,0.068-0.064
		c0.02-0.02,0.039-0.041,0.055-0.064s0.027-0.051,0.035-0.082s0.012-0.072,0.012-0.123c0-0.031,0-0.061-0.002-0.086
		c-0.004-0.025-0.004-0.053-0.004-0.084c0.027-0.043,0.055-0.086,0.082-0.127s0.057-0.08,0.088-0.119
		c0.035-0.082,0.037-0.141,0.004-0.176s-0.082-0.059-0.146-0.07s-0.135-0.02-0.209-0.021s-0.135-0.008-0.182-0.02l-0.07-0.012
		c-0.047-0.008-0.1-0.023-0.158-0.045s-0.109-0.076-0.152-0.166c-0.047-0.094-0.062-0.178-0.045-0.25s0.053-0.133,0.104-0.184
		s0.111-0.092,0.182-0.123s0.135-0.055,0.193-0.07c0.102-0.031,0.203-0.059,0.303-0.082s0.199-0.035,0.301-0.035
		c0.117,0,0.234,0.01,0.35,0.031s0.23,0.033,0.348,0.033c0.125,0,0.25-0.012,0.373-0.035s0.246-0.035,0.371-0.035
		c0.082,0,0.16,0.006,0.234,0.018s0.143,0.031,0.203,0.061s0.111,0.072,0.154,0.129s0.074,0.129,0.094,0.215
		c0.02,0.09,0.023,0.162,0.012,0.217s-0.012,0.098,0,0.129c-0.055,0.141-0.127,0.242-0.219,0.305s-0.191,0.107-0.297,0.135
		s-0.213,0.049-0.322,0.066s-0.207,0.053-0.293,0.104s-0.156,0.131-0.213,0.24s-0.086,0.268-0.086,0.475
		c-0.055,0.035-0.111,0.082-0.17,0.143s-0.113,0.127-0.166,0.197s-0.102,0.141-0.146,0.213s-0.08,0.139-0.104,0.197
		c0.043,0.016,0.066,0.039,0.07,0.07c-0.031,0.055-0.057,0.113-0.076,0.176s-0.045,0.121-0.076,0.176
		c-0.023,0.043-0.047,0.074-0.072,0.096s-0.049,0.045-0.07,0.07s-0.039,0.059-0.053,0.1s-0.021,0.102-0.021,0.18
		c0,0.035-0.004,0.068-0.012,0.102s-0.029,0.064-0.064,0.092c-0.098,0.078-0.176,0.176-0.236,0.295
		c-0.062,0.121-0.109,0.246-0.141,0.381c-0.035,0.137-0.057,0.273-0.068,0.412s-0.018,0.266-0.018,0.383
		c0,0.105,0.016,0.209,0.051,0.311c0.031,0.102,0.049,0.205,0.049,0.311s-0.008,0.213-0.023,0.32s-0.023,0.213-0.023,0.318
		c0,0.055,0.004,0.107,0.012,0.156s0.012,0.098,0.012,0.148c0,0.055-0.002,0.1-0.002,0.135c-0.004,0.035-0.004,0.066-0.004,0.094
		c0,0.043,0.01,0.08,0.029,0.111s0.062,0.086,0.129,0.164c0.016,0.02,0.039,0.051,0.068,0.094s0.055,0.064,0.078,0.064
		c0.066,0,0.133-0.008,0.197-0.025s0.129-0.037,0.193-0.059s0.129-0.041,0.193-0.059s0.131-0.027,0.201-0.027
		c0.008,0,0.031,0.004,0.068,0.012s0.078,0.018,0.123,0.029s0.09,0.023,0.135,0.033s0.08,0.016,0.107,0.02
		c0.016,0.027,0.031,0.055,0.045,0.08s0.025,0.053,0.037,0.084c0.035,0.016,0.076,0.033,0.121,0.051s0.086,0.039,0.125,0.064
		s0.072,0.055,0.1,0.09s0.041,0.076,0.041,0.123c0,0.059-0.008,0.117-0.025,0.174s-0.027,0.113-0.027,0.172
		c0,0.051-0.045,0.09-0.135,0.117s-0.193,0.049-0.311,0.062s-0.23,0.021-0.34,0.025s-0.184,0.006-0.223,0.006
		c-0.266,0-0.527-0.01-0.787-0.029c-0.262-0.02-0.523-0.029-0.789-0.029c-0.168,0-0.334,0.016-0.496,0.045s-0.324,0.043-0.488,0.043
		c-0.09,0-0.178-0.012-0.264-0.035s-0.174-0.035-0.264-0.035c-0.102,0-0.201,0.018-0.297,0.051s-0.193,0.049-0.295,0.049
		c-0.059,0-0.111-0.008-0.158-0.023c0-0.051-0.012-0.098-0.033-0.141s-0.045-0.084-0.07-0.125s-0.049-0.084-0.07-0.127
		s-0.031-0.09-0.031-0.141c0-0.094,0.041-0.17,0.125-0.23s0.191-0.109,0.32-0.146s0.271-0.066,0.43-0.086s0.314-0.033,0.467-0.043
		s0.291-0.018,0.416-0.021s0.221-0.012,0.287-0.023c0.039-0.074,0.07-0.166,0.094-0.275s0.041-0.227,0.055-0.354
		s0.023-0.26,0.027-0.396s0.006-0.271,0.006-0.404c0-0.18,0.002-0.346,0.006-0.5s0-0.303-0.01-0.443s-0.027-0.275-0.053-0.406
		s-0.066-0.264-0.125-0.396c-0.051-0.113-0.119-0.213-0.203-0.299s-0.156-0.182-0.219-0.287c-0.066-0.113-0.119-0.234-0.158-0.361
		s-0.092-0.248-0.158-0.365c-0.137-0.246-0.264-0.496-0.379-0.748s-0.217-0.512-0.307-0.781c-0.055-0.008-0.096-0.021-0.123-0.041
		s-0.051-0.041-0.068-0.064s-0.035-0.049-0.055-0.074s-0.049-0.047-0.088-0.066c-0.047-0.023-0.113-0.043-0.199-0.057
		s-0.18-0.027-0.281-0.041s-0.205-0.029-0.309-0.049s-0.197-0.045-0.283-0.074s-0.156-0.068-0.211-0.117s-0.082-0.109-0.082-0.184
		c0-0.082,0.027-0.164,0.082-0.246s0.109-0.152,0.164-0.211c0.062-0.066,0.145-0.119,0.248-0.158s0.213-0.07,0.328-0.092
		s0.232-0.035,0.352-0.041s0.229-0.008,0.326-0.008h0.123l0.375,0.006c0.102,0,0.197,0.008,0.287,0.025s0.178,0.039,0.264,0.062
		s0.172,0.047,0.26,0.072s0.184,0.047,0.285,0.062c0.074,0.004,0.135,0.039,0.182,0.107s0.078,0.146,0.094,0.232
		s0.016,0.17,0.002,0.252S-191.277,1329.044-191.324,1329.079z"/>
</g>
<g>
	<path fill="#FFFFFF" d="M-378.059,1977.456h-0.721v-4.746h-6.202v4.746h-0.721v-9.906h0.721v4.621h6.202v-4.621h0.721V1977.456z"/>
	<path fill="#FFFFFF" d="M-366.284,1972.499c0,0.766-0.114,1.461-0.343,2.084c-0.229,0.621-0.551,1.154-0.966,1.596
		c-0.416,0.439-0.913,0.781-1.491,1.021c-0.579,0.24-1.221,0.361-1.925,0.361c-0.695,0-1.333-0.121-1.911-0.361
		c-0.579-0.24-1.076-0.582-1.491-1.021c-0.415-0.441-0.738-0.975-0.97-1.596c-0.23-0.623-0.347-1.318-0.347-2.084
		c0-0.76,0.116-1.451,0.347-2.074c0.231-0.623,0.555-1.156,0.97-1.598c0.415-0.439,0.912-0.781,1.491-1.025
		c0.578-0.242,1.216-0.363,1.911-0.363c0.704,0,1.346,0.121,1.925,0.361c0.578,0.24,1.075,0.582,1.491,1.025
		c0.415,0.443,0.737,0.977,0.966,1.6S-366.284,1971.739-366.284,1972.499z M-367.026,1972.499c0-0.689-0.096-1.311-0.287-1.861
		s-0.461-1.018-0.809-1.4s-0.766-0.676-1.256-0.879s-1.034-0.305-1.631-0.305c-0.588,0-1.126,0.102-1.614,0.305
		c-0.487,0.203-0.907,0.496-1.26,0.879s-0.625,0.85-0.818,1.4c-0.194,0.551-0.291,1.172-0.291,1.861
		c0,0.695,0.097,1.318,0.291,1.865c0.193,0.549,0.466,1.016,0.818,1.396c0.353,0.383,0.772,0.676,1.26,0.875
		c0.488,0.201,1.026,0.303,1.614,0.303c0.597,0,1.141-0.102,1.631-0.303c0.49-0.199,0.908-0.492,1.256-0.875
		c0.348-0.381,0.617-0.848,0.809-1.396C-367.122,1973.817-367.026,1973.194-367.026,1972.499z"/>
	<path fill="#FFFFFF" d="M-359.011,1974.991c0.027-0.074,0.057-0.148,0.087-0.221s0.064-0.141,0.102-0.205l3.893-6.883
		c0.037-0.061,0.074-0.098,0.111-0.111s0.089-0.021,0.154-0.021h0.497v9.906h-0.63v-8.443c0-0.121,0.007-0.248,0.021-0.385
		l-3.898,6.924c-0.065,0.121-0.159,0.182-0.28,0.182h-0.112c-0.116,0-0.21-0.061-0.279-0.182l-4.005-6.93
		c0.015,0.135,0.021,0.266,0.021,0.391v8.443h-0.623v-9.906h0.49c0.065,0,0.117,0.008,0.157,0.021s0.078,0.051,0.115,0.111
		l3.997,6.889C-359.123,1974.702-359.062,1974.843-359.011,1974.991z"/>
	<path fill="#FFFFFF" d="M-345.291,1967.55v0.596h-5.215v4.004h4.34v0.582h-4.34v4.129h5.215v0.596h-5.936v-9.906H-345.291z"/>
</g>
<g>
	<g>
		<path fill="#F8D531" d="M-205.497,1952.5c-11.045,0-20,8.954-20,20.001s8.955,19.999,20,19.999s20-8.952,20-19.999
			S-194.452,1952.5-205.497,1952.5z"/>
	</g>
	<g>
		<path fill="#FFFFFF" d="M-211.747,1965.05c0.55,0,1.064,0.061,1.544,0.182c0.479,0.12,0.914,0.298,1.307,0.531h3.438v0.824
			c0,0.275-0.176,0.45-0.525,0.525l-1.438,0.2c0.283,0.542,0.425,1.146,0.425,1.812c0,0.616-0.118,1.177-0.356,1.681
			c-0.237,0.505-0.566,0.936-0.987,1.294s-0.921,0.634-1.5,0.825s-1.214,0.287-1.906,0.287c-0.592,0-1.149-0.07-1.675-0.212
			c-0.268,0.172-0.469,0.357-0.606,0.556s-0.206,0.392-0.206,0.581c0,0.311,0.121,0.545,0.362,0.705
			c0.241,0.159,0.562,0.273,0.962,0.342c0.4,0.069,0.855,0.104,1.363,0.104s1.027,0,1.557,0s1.047,0.047,1.556,0.14
			s0.962,0.244,1.362,0.455s0.721,0.502,0.963,0.873s0.362,0.853,0.362,1.442c0,0.549-0.136,1.08-0.406,1.595
			s-0.661,0.972-1.169,1.373c-0.508,0.4-1.129,0.721-1.862,0.962c-0.733,0.24-1.562,0.36-2.487,0.36
			c-0.926,0-1.736-0.092-2.432-0.275s-1.273-0.43-1.73-0.738c-0.459-0.309-0.803-0.665-1.031-1.069
			c-0.23-0.405-0.344-0.828-0.344-1.271c0-0.626,0.197-1.157,0.594-1.596c0.395-0.438,0.939-0.786,1.631-1.045
			c-0.358-0.166-0.645-0.389-0.856-0.667c-0.212-0.279-0.319-0.651-0.319-1.117c0-0.183,0.033-0.372,0.101-0.568
			c0.067-0.195,0.169-0.389,0.306-0.58c0.139-0.191,0.307-0.374,0.507-0.549s0.433-0.329,0.7-0.462
			c-0.625-0.35-1.115-0.814-1.469-1.394c-0.354-0.579-0.531-1.257-0.531-2.031c0-0.617,0.119-1.177,0.355-1.682
			c0.238-0.504,0.569-0.933,0.994-1.287c0.426-0.354,0.932-0.627,1.52-0.819C-213.091,1965.146-212.447,1965.05-211.747,1965.05z
			 M-207.797,1978.567c0-0.323-0.088-0.582-0.263-0.777s-0.413-0.347-0.712-0.453c-0.301-0.106-0.646-0.185-1.038-0.235
			s-0.804-0.077-1.237-0.077s-0.875,0-1.325,0s-0.88-0.056-1.288-0.168c-0.475,0.225-0.859,0.501-1.156,0.826
			c-0.295,0.325-0.443,0.713-0.443,1.164c0,0.283,0.073,0.549,0.219,0.795c0.146,0.246,0.369,0.459,0.669,0.639
			c0.3,0.179,0.677,0.321,1.132,0.426c0.453,0.104,0.988,0.156,1.605,0.156c0.6,0,1.138-0.056,1.613-0.166
			c0.475-0.11,0.877-0.268,1.205-0.472c0.33-0.204,0.582-0.446,0.757-0.727S-207.797,1978.907-207.797,1978.567z M-211.747,1971.737
			c0.45,0,0.849-0.062,1.194-0.188s0.635-0.3,0.868-0.525c0.233-0.225,0.408-0.493,0.524-0.806c0.117-0.312,0.176-0.656,0.176-1.031
			c0-0.775-0.236-1.392-0.707-1.851c-0.471-0.458-1.156-0.688-2.056-0.688c-0.892,0-1.573,0.229-2.044,0.688
			c-0.471,0.459-0.706,1.075-0.706,1.851c0,0.375,0.061,0.719,0.181,1.031c0.121,0.312,0.299,0.581,0.531,0.806
			c0.234,0.226,0.521,0.4,0.863,0.525S-212.189,1971.737-211.747,1971.737z"/>
		<path fill="#FFFFFF" d="M-198.109,1965.062c0.925,0,1.76,0.154,2.506,0.462c0.746,0.309,1.379,0.746,1.9,1.312
			c0.521,0.567,0.92,1.253,1.199,2.057c0.279,0.805,0.42,1.702,0.42,2.693c0,1-0.141,1.9-0.42,2.7s-0.679,1.483-1.199,2.05
			c-0.521,0.567-1.154,1.003-1.9,1.307s-1.581,0.456-2.506,0.456c-0.926,0-1.761-0.152-2.506-0.456
			c-0.746-0.304-1.382-0.739-1.906-1.307c-0.525-0.566-0.93-1.25-1.213-2.05s-0.426-1.7-0.426-2.7c0-0.991,0.143-1.889,0.426-2.693
			c0.283-0.804,0.688-1.489,1.213-2.057c0.524-0.566,1.16-1.004,1.906-1.312C-199.87,1965.217-199.035,1965.062-198.109,1965.062z
			 M-198.109,1976.362c1.25,0,2.184-0.419,2.8-1.256c0.616-0.838,0.925-2.007,0.925-3.507c0-1.508-0.309-2.683-0.925-3.524
			s-1.55-1.263-2.8-1.263c-0.634,0-1.184,0.108-1.65,0.325s-0.855,0.529-1.168,0.938s-0.547,0.91-0.701,1.506
			s-0.23,1.269-0.23,2.019s0.076,1.421,0.23,2.013s0.389,1.09,0.701,1.494s0.701,0.714,1.168,0.931
			S-198.743,1976.362-198.109,1976.362z"/>
	</g>
</g>
<g>
	<path fill-rule="evenodd" clip-rule="evenodd" fill="#F8D531" d="M-41.96,1811.439c0.585,0.586,0.585,1.536,0,2.121l-4.95,4.95
		c-0.585,0.585-1.536,0.585-2.121,0l0,0c-0.585-0.585-0.585-1.536,0-2.121l4.95-4.95
		C-43.496,1810.854-42.546,1810.854-41.96,1811.439L-41.96,1811.439z"/>
	<path fill-rule="evenodd" clip-rule="evenodd" fill="#F8D531" d="M-41.96,1813.561c-0.586,0.586-1.536,0.586-2.121,0l-4.95-4.949
		c-0.585-0.586-0.585-1.535,0-2.121l0,0c0.585-0.586,1.536-0.586,2.121,0l4.95,4.949
		C-41.375,1812.025-41.375,1812.976-41.96,1813.561L-41.96,1813.561z"/>
</g>
<g>
	<g>
		<g>
			<path fill-rule="evenodd" clip-rule="evenodd" fill="#474E4D" d="M124.953,1820.542l-4.326-4.328
				c2.513-3.645,2.154-8.676-1.089-11.92c-3.657-3.656-9.585-3.656-13.24,0c-3.656,3.656-3.656,9.584,0,13.24
				c3.243,3.244,8.273,3.602,11.921,1.088l4.327,4.328c0.665,0.664,1.742,0.664,2.407,0S125.618,1821.208,124.953,1820.542z
				 M117.131,1815.126c-2.327,2.328-6.099,2.328-8.427,0c-2.326-2.326-2.325-6.098,0-8.424c2.328-2.328,6.1-2.328,8.427,0
				C119.457,1809.028,119.456,1812.8,117.131,1815.126z"/>
		</g>
	</g>
</g>
<g>
	<g>
		<path fill-rule="evenodd" clip-rule="evenodd" fill="#F8D531" d="M274.504,1836c12.98,0,23.5-10.521,23.5-23.5
			s-10.52-23.5-23.5-23.5c-12.979,0-23.5,10.521-23.5,23.5S261.525,1836,274.504,1836z"/>
	</g>
	<g>
		<g>
			<g>
				<path fill="#FFFFFF" d="M261.148,1813.327l11.811,12.021c0.854,0.869,2.238,0.869,3.094,0l11.809-12.021
					c0.854-0.869,0.854-2.279,0-3.148c-0.855-0.869-2.24-0.869-3.094,0l-8.256,8.404v-17.581c0-1.229-0.799-2.003-2.006-2.003
					c-1.209,0-1.994,0.773-1.994,2.003v17.594l-8.27-8.417c-0.854-0.869-2.238-0.869-3.094,0
					C260.295,1811.048,260.295,1812.458,261.148,1813.327z"/>
			</g>
		</g>
	</g>
</g>
<path fill="#FFFFFF" d="M-352.497,1795.5h-26c-2.2,0-4,1.8-4,4v26c0,2.2,1.8,4,4,4h26c2.2,0,4-1.8,4-4v-26
	C-348.497,1797.3-350.296,1795.5-352.497,1795.5z M-365.497,1806.5c3.313,0,6,2.687,6,6s-2.687,6-6,6s-6-2.687-6-6
	S-368.81,1806.5-365.497,1806.5z M-352.497,1825.5h-26v-16h3.459c-0.297,0.947-0.459,1.954-0.459,3c0,5.522,4.478,10,10,10
	s10-4.478,10-10c0-1.046-0.162-2.053-0.459-3h3.459V1825.5z M-352.497,1803.5c0,1.1-0.9,2-2,2h-2c-1.1,0-2-0.9-2-2v-2
	c0-1.1,0.9-2,2-2h2c1.1,0,2,0.9,2,2V1803.5z"/>
<g>
	<path fill="#2C3130" d="M-205.497,1775.511c-20.434,0-37,16.561-37,36.99s16.566,36.988,37,36.988s37-16.559,37-36.988
		S-185.063,1775.511-205.497,1775.511z"/>
</g>
<path fill="#FFFFFF" d="M-192.497,1795.5h-26c-2.2,0-4,1.8-4,4v26c0,2.2,1.8,4,4,4h26c2.2,0,4-1.8,4-4v-26
	C-188.497,1797.3-190.297,1795.5-192.497,1795.5z M-205.497,1806.5c3.313,0,6,2.687,6,6s-2.687,6-6,6s-6-2.687-6-6
	S-208.811,1806.5-205.497,1806.5z M-192.497,1825.5h-26v-16h3.459c-0.297,0.947-0.459,1.954-0.459,3c0,5.522,4.478,10,10,10
	s10-4.478,10-10c0-1.046-0.162-2.053-0.459-3h3.459V1825.5z M-192.497,1803.5c0,1.1-0.9,2-2,2h-2c-1.1,0-2-0.9-2-2v-2
	c0-1.1,0.9-2,2-2h2c1.1,0,2,0.9,2,2V1803.5z"/>
<path fill="#FFFFFF" d="M-358.551,1491.993h-4.41v16.221h-6.59v-16.221h-3.547v-5.576h3.547v-3.369c0-4.531,1.762-7.277,7.105-7.277
	h4.553v5.576h-2.883c-2.086,0-2.219,0.807-2.219,2.252l-0.008,2.818h5.037L-358.551,1491.993z"/>
<path fill="#FFFFFF" d="M-44.374,1475.828c-8.919,0-13.418,6.389-13.418,11.724c0,3.225,1.228,6.096,3.846,7.169
	c0.43,0.173,0.812,0.005,0.943-0.472c0.084-0.327,0.294-1.162,0.378-1.508c0.126-0.467,0.074-0.635-0.271-1.045
	c-0.747-0.887-1.232-2.045-1.232-3.678c0-4.742,3.542-8.989,9.241-8.989c5.026,0,7.803,3.081,7.803,7.192
	c0,5.409-2.398,9.979-5.955,9.979c-1.955,0-3.426-1.625-2.954-3.617c0.56-2.376,1.661-4.942,1.661-6.66
	c0-1.535-0.83-2.814-2.534-2.814c-2.007,0-3.621,2.072-3.621,4.854c0,1.773,0.602,2.974,0.602,2.974s-2.062,8.699-2.417,10.226
	c-0.719,3.033-0.104,6.753-0.062,7.131c0.033,0.225,0.322,0.28,0.453,0.107c0.178-0.242,2.571-3.192,3.389-6.142
	c0.229-0.835,1.32-5.157,1.32-5.157c0.648,1.241,2.558,2.338,4.578,2.338c6.04,0,10.128-5.498,10.128-12.862
	C-32.496,1481.009-37.205,1475.828-44.374,1475.828z"/>
<path fill="#FFFFFF" d="M115.626,1475.828c-8.919,0-13.418,6.389-13.418,11.724c0,3.225,1.228,6.096,3.846,7.169
	c0.43,0.173,0.812,0.005,0.943-0.472c0.084-0.327,0.294-1.162,0.378-1.508c0.126-0.467,0.074-0.635-0.271-1.045
	c-0.747-0.887-1.232-2.045-1.232-3.678c0-4.742,3.542-8.989,9.241-8.989c5.026,0,7.803,3.081,7.803,7.192
	c0,5.409-2.398,9.979-5.955,9.979c-1.955,0-3.426-1.625-2.954-3.617c0.56-2.376,1.661-4.942,1.661-6.66
	c0-1.535-0.83-2.814-2.534-2.814c-2.007,0-3.621,2.072-3.621,4.854c0,1.773,0.602,2.974,0.602,2.974s-2.062,8.699-2.417,10.226
	c-0.719,3.033-0.104,6.753-0.062,7.131c0.033,0.225,0.322,0.28,0.453,0.107c0.178-0.242,2.571-3.192,3.389-6.142
	c0.229-0.835,1.32-5.157,1.32-5.157c0.648,1.241,2.558,2.338,4.578,2.338c6.04,0,10.128-5.498,10.128-12.862
	C127.504,1481.009,122.795,1475.828,115.626,1475.828z"/>
<path fill="#FFFFFF" d="M-190.882,1645.878c0.018,0.283,0.021,0.57,0.021,0.855c0,8.736-6.656,18.816-18.82,18.816
	c-3.742,0-7.219-1.096-10.143-2.971c0.514,0.059,1.043,0.092,1.576,0.092c3.105,0,5.959-1.057,8.217-2.83
	c-2.896-0.055-5.34-1.969-6.18-4.594c0.4,0.078,0.814,0.119,1.246,0.119c0.604,0,1.186-0.082,1.74-0.234
	c-3.025-0.607-5.312-3.277-5.312-6.482c0-0.029,0-0.057,0.008-0.084c0.893,0.494,1.908,0.793,2.998,0.826
	c-1.777-1.184-2.945-3.211-2.945-5.502c0-1.213,0.328-2.352,0.895-3.328c3.266,4.004,8.139,6.635,13.637,6.91
	c-0.113-0.484-0.17-0.992-0.17-1.504c0-3.656,2.963-6.613,6.619-6.613c1.902,0,3.619,0.801,4.82,2.086
	c1.512-0.293,2.924-0.848,4.203-1.604c-0.49,1.541-1.543,2.84-2.908,3.658c1.342-0.16,2.611-0.516,3.801-1.041
	C-188.468,1643.778-189.589,1644.946-190.882,1645.878z"/>
<path fill="#FFFFFF" d="M-350.881,1645.878c0.018,0.283,0.021,0.57,0.021,0.855c0,8.736-6.656,18.816-18.82,18.816
	c-3.742,0-7.219-1.096-10.143-2.971c0.514,0.059,1.043,0.092,1.576,0.092c3.105,0,5.959-1.057,8.217-2.83
	c-2.896-0.055-5.34-1.969-6.18-4.594c0.4,0.078,0.814,0.119,1.246,0.119c0.604,0,1.186-0.082,1.74-0.234
	c-3.025-0.607-5.312-3.277-5.312-6.482c0-0.029,0-0.057,0.008-0.084c0.893,0.494,1.908,0.793,2.998,0.826
	c-1.777-1.184-2.945-3.211-2.945-5.502c0-1.213,0.328-2.352,0.895-3.328c3.266,4.004,8.139,6.635,13.637,6.91
	c-0.113-0.484-0.17-0.992-0.17-1.504c0-3.656,2.963-6.613,6.619-6.613c1.902,0,3.619,0.801,4.82,2.086
	c1.512-0.293,2.924-0.848,4.203-1.604c-0.49,1.541-1.543,2.84-2.908,3.658c1.342-0.16,2.611-0.516,3.801-1.041
	C-348.467,1643.778-349.588,1644.946-350.881,1645.878z"/>
<g>
	<path fill="#FFFFFF" d="M-41.34,1172.5h-2.668v10h-3.996v-10h-2v-3.447h2v-2.07c0-2.811,1.127-4.482,4.33-4.482h2.666v3.447h-1.664
		c-1.25,0-1.33,0.482-1.33,1.379l-0.006,1.727h3.02L-41.34,1172.5z"/>
</g>
</svg>
