<?xml version="1.0" encoding="utf-8"?>
<!-- Generator: Adobe Illustrator 18.1.1, SVG Export Plug-In . SVG Version: 6.00 Build 0)  -->
<svg version="1.1" id="Layer_1" xmlns="http://www.w3.org/2000/svg" xmlns:xlink="http://www.w3.org/1999/xlink" x="0px" y="0px"
	 viewBox="140 243.9 315.3 354.1" enable-background="new 140 243.9 315.3 354.1" xml:space="preserve">
<circle fill="#E6332A" cx="297.9" cy="455.8" r="58.9"/>
<g>
	<path fill="#E6332A" d="M209.2,446.7c4.1-42.3,37.3-75.5,79.6-79.6V324c-65.5,4.1-118.6,57.2-122.7,122.7H209.2z"/>
	<path fill="#E6332A" d="M306.2,367.1c42.3,4.1,75.5,37.3,79.6,79.6h43.1c-4.1-65.5-57.2-118.6-122.7-122.7V367.1z"/>
	<path fill="#E6332A" d="M288.8,543.7c-42.3-4.1-75.5-37.3-79.6-79.6h-43.1c4.1,66.3,57.2,118.6,122.7,122.7V543.7z"/>
	<path fill="#E6332A" d="M385.8,464.1c-4.1,42.3-37.3,75.5-79.6,79.6v43.1c66.3-4.1,118.6-57.2,122.7-122.7
		C428.9,464.1,385.8,464.1,385.8,464.1z"/>
</g>
<path fill="#E6332A" d="M151.1,362.2c5.4-5,10.9-9.7,16.5-14.3c5.6-4.7,11.3-9.1,16.9-13.7l17.3-13.1c5.8-4.4,11.6-8.6,17.5-12.8
	c23.5-16.8,47.5-32.7,72-47.9l6.7-4.1l6.6,4.1c12.2,7.6,24.4,15.4,36.4,23.3c12,8,23.9,16.1,35.6,24.5c5.9,4.2,11.7,8.4,17.5,12.8
	l17.3,13.2c5.6,4.6,11.4,9,16.9,13.7c5.6,4.7,11.1,9.4,16.5,14.4c-6.9-2.6-13.5-5.5-20.2-8.4s-13.2-6.1-19.8-9.1l-19.4-9.6
	c-6.5-3.2-12.9-6.6-19.2-10c-12.7-6.8-25.3-13.9-37.8-21.1c-12.5-7.2-24.8-14.7-37-22.2h13.3c-24.5,15.2-49.4,29.6-74.8,43.3
	c-6.4,3.4-12.7,6.8-19.2,10l-19.4,9.6c-6.6,3-13.1,6.2-19.8,9.1C164.7,356.7,158,359.6,151.1,362.2z"/>
</svg>
