<?xml version="1.0" encoding="utf-8"?>
<!-- Generator: Adobe Illustrator 18.1.1, SVG Export Plug-In . SVG Version: 6.00 Build 0)  -->
<svg version="1.1" id="Layer_1" xmlns="http://www.w3.org/2000/svg" xmlns:xlink="http://www.w3.org/1999/xlink" x="0px" y="0px"
	 viewBox="0 0 452 40.9" enable-background="new 0 0 452 40.9" xml:space="preserve">
<g>
	<path d="M42.2,20.3l-2.5,7.4h-3.2l8-23.6h3.7l8.1,23.6h-3.3l-2.5-7.4H42.2z M49.9,18l-2.3-6.8c-0.5-1.5-0.9-2.9-1.2-4.3h-0.1
		c-0.4,1.4-0.7,2.8-1.2,4.3L42.8,18H49.9z"/>
	<path d="M59.6,24.6c0.9,0.6,2.5,1.2,4.1,1.2c2.2,0,3.3-1.1,3.3-2.5c0-1.5-0.9-2.3-3.2-3.1c-3-1.1-4.5-2.8-4.5-4.8
		c0-2.7,2.2-5,5.8-5c1.7,0,3.2,0.5,4.2,1.1l-0.8,2.2c-0.7-0.4-1.9-1-3.5-1c-1.8,0-2.8,1-2.8,2.3c0,1.4,1,2,3.2,2.9
		c2.9,1.1,4.4,2.6,4.4,5.1c0,3-2.3,5.1-6.3,5.1c-1.9,0-3.6-0.5-4.8-1.2L59.6,24.6z"/>
	<path d="M74.3,27.8c0.1-1.2,0.1-2.9,0.1-4.4V2.9h3v10.6h0.1c1.1-1.9,3-3.1,5.8-3.1c4.2,0,7.2,3.5,7.1,8.6c0,6.1-3.8,9.1-7.6,9.1
		c-2.5,0-4.4-0.9-5.7-3.2h-0.1l-0.1,2.8H74.3z M77.4,21c0,0.4,0.1,0.8,0.1,1.1c0.6,2.1,2.4,3.6,4.6,3.6c3.2,0,5.1-2.6,5.1-6.5
		c0-3.4-1.8-6.3-5-6.3c-2.1,0-4.1,1.4-4.7,3.8c-0.1,0.3-0.2,0.8-0.2,1.3V21z"/>
	<path d="M96.5,19.9c0.1,4.2,2.7,5.9,5.8,5.9c2.2,0,3.5-0.4,4.7-0.9l0.5,2.2c-1.1,0.5-2.9,1-5.6,1c-5.2,0-8.3-3.4-8.3-8.5
		c0-5.1,3-9.1,7.9-9.1c5.5,0,7,4.9,7,8c0,0.6-0.1,1.1-0.1,1.4H96.5z M105.6,17.7c0-2-0.8-5-4.3-5c-3.1,0-4.5,2.9-4.7,5H105.6z"/>
	<path d="M112.5,24.6c0.9,0.6,2.5,1.2,4.1,1.2c2.2,0,3.3-1.1,3.3-2.5c0-1.5-0.9-2.3-3.2-3.1c-3-1.1-4.5-2.8-4.5-4.8
		c0-2.7,2.2-5,5.8-5c1.7,0,3.2,0.5,4.2,1.1l-0.8,2.2c-0.7-0.4-1.9-1-3.5-1c-1.8,0-2.8,1-2.8,2.3c0,1.4,1,2,3.2,2.9
		c2.9,1.1,4.4,2.6,4.4,5.1c0,3-2.3,5.1-6.3,5.1c-1.9,0-3.6-0.5-4.8-1.2L112.5,24.6z"/>
	<path d="M131,6v4.9h4.4v2.3H131v9.1c0,2.1,0.6,3.3,2.3,3.3c0.8,0,1.4-0.1,1.8-0.2l0.1,2.3c-0.6,0.2-1.5,0.4-2.7,0.4
		c-1.4,0-2.6-0.5-3.3-1.3c-0.9-0.9-1.2-2.4-1.2-4.4v-9.2h-2.6v-2.3h2.6V6.8L131,6z"/>
	<path d="M154.5,19.2c0,6.3-4.3,9-8.4,9c-4.6,0-8.1-3.4-8.1-8.7c0-5.7,3.7-9,8.4-9C151.2,10.4,154.5,14,154.5,19.2z M141.1,19.3
		c0,3.7,2.1,6.5,5.1,6.5c2.9,0,5.1-2.8,5.1-6.6c0-2.9-1.4-6.5-5.1-6.5C142.6,12.8,141.1,16.1,141.1,19.3z"/>
	<path d="M158.5,24.6c0.9,0.6,2.5,1.2,4.1,1.2c2.2,0,3.3-1.1,3.3-2.5c0-1.5-0.9-2.3-3.2-3.1c-3-1.1-4.5-2.8-4.5-4.8
		c0-2.7,2.2-5,5.8-5c1.7,0,3.2,0.5,4.2,1.1l-0.8,2.2c-0.7-0.4-1.9-1-3.5-1c-1.8,0-2.8,1-2.8,2.3c0,1.4,1,2,3.2,2.9
		c2.9,1.1,4.4,2.6,4.4,5.1c0,3-2.3,5.1-6.3,5.1c-1.9,0-3.6-0.5-4.8-1.2L158.5,24.6z"/>
	<path d="M180.9,24.1c1.4,0.8,3.4,1.5,5.5,1.5c3.1,0,4.9-1.6,4.9-4c0-2.2-1.3-3.5-4.4-4.7c-3.9-1.4-6.2-3.4-6.2-6.7
		c0-3.7,3-6.4,7.6-6.4c2.4,0,4.2,0.6,5.2,1.2l-0.8,2.5c-0.8-0.4-2.3-1.1-4.5-1.1c-3.2,0-4.4,1.9-4.4,3.5c0,2.2,1.4,3.3,4.7,4.6
		c4,1.5,6,3.5,6,6.9c0,3.6-2.7,6.8-8.3,6.8c-2.3,0-4.8-0.7-6-1.5L180.9,24.1z"/>
	<path d="M214.6,19.2c0,6.3-4.3,9-8.4,9c-4.6,0-8.1-3.4-8.1-8.7c0-5.7,3.7-9,8.4-9C211.3,10.4,214.6,14,214.6,19.2z M201.1,19.3
		c0,3.7,2.1,6.5,5.1,6.5c2.9,0,5.1-2.8,5.1-6.6c0-2.9-1.4-6.5-5.1-6.5C202.7,12.8,201.1,16.1,201.1,19.3z"/>
	<path d="M219,2.9h3.1v24.9H219V2.9z"/>
	<path d="M241.9,23.1c0,1.8,0,3.3,0.1,4.6h-2.7l-0.2-2.8h-0.1c-0.8,1.4-2.6,3.2-5.6,3.2c-2.7,0-5.8-1.5-5.8-7.4v-9.9h3.1v9.4
		c0,3.2,1,5.4,3.8,5.4c2.1,0,3.5-1.4,4.1-2.8c0.2-0.5,0.3-1,0.3-1.6V10.8h3.1V23.1z"/>
	<path d="M251.3,6v4.9h4.4v2.3h-4.4v9.1c0,2.1,0.6,3.3,2.3,3.3c0.8,0,1.4-0.1,1.8-0.2l0.1,2.3c-0.6,0.2-1.5,0.4-2.7,0.4
		c-1.4,0-2.6-0.5-3.3-1.3c-0.9-0.9-1.2-2.4-1.2-4.4v-9.2h-2.6v-2.3h2.6V6.8L251.3,6z"/>
	<path d="M263.1,6.1c0,1-0.7,1.9-2,1.9c-1.1,0-1.9-0.8-1.9-1.9c0-1.1,0.8-1.9,1.9-1.9C262.4,4.1,263.1,5,263.1,6.1z M259.7,27.8
		V10.8h3.1v16.9H259.7z"/>
	<path d="M283.7,19.2c0,6.3-4.3,9-8.4,9c-4.6,0-8.1-3.4-8.1-8.7c0-5.7,3.7-9,8.4-9C280.4,10.4,283.7,14,283.7,19.2z M270.3,19.3
		c0,3.7,2.1,6.5,5.1,6.5c2.9,0,5.1-2.8,5.1-6.6c0-2.9-1.4-6.5-5.1-6.5S270.3,16.1,270.3,19.3z"/>
	<path d="M288.1,15.4c0-1.8,0-3.2-0.1-4.6h2.7l0.2,2.8h0.1c0.8-1.6,2.8-3.2,5.6-3.2c2.3,0,6,1.4,6,7.2v10.1h-3.1V18c0-2.7-1-5-3.9-5
		c-2,0-3.6,1.4-4.1,3.2c-0.1,0.4-0.2,0.9-0.2,1.4v10.2h-3.1V15.4z"/>
	<path d="M316.1,4.5c1.5-0.2,3.4-0.5,5.8-0.5c3,0,5.2,0.7,6.6,2c1.3,1.1,2.1,2.8,2.1,4.9c0,2.1-0.6,3.8-1.8,5
		c-1.6,1.7-4.2,2.6-7.2,2.6c-0.9,0-1.8,0-2.5-0.2v9.5h-3V4.5z M319.2,15.8c0.7,0.2,1.5,0.2,2.5,0.2c3.7,0,5.9-1.8,5.9-5
		c0-3.1-2.2-4.6-5.6-4.6c-1.3,0-2.3,0.1-2.9,0.2V15.8z"/>
	<path d="M334.6,16.1c0-2,0-3.7-0.1-5.3h2.7l0.1,3.3h0.1c0.8-2.3,2.6-3.7,4.7-3.7c0.4,0,0.6,0,0.9,0.1v2.9c-0.3-0.1-0.6-0.1-1-0.1
		c-2.2,0-3.7,1.6-4.1,4c-0.1,0.4-0.1,0.9-0.1,1.4v9h-3V16.1z"/>
	<path d="M361.6,19.2c0,6.3-4.3,9-8.4,9c-4.6,0-8.1-3.4-8.1-8.7c0-5.7,3.7-9,8.4-9C358.3,10.4,361.6,14,361.6,19.2z M348.1,19.3
		c0,3.7,2.1,6.5,5.1,6.5c2.9,0,5.1-2.8,5.1-6.6c0-2.9-1.4-6.5-5.1-6.5S348.1,16.1,348.1,19.3z"/>
	<path d="M366.9,10.8l3.3,9.5c0.6,1.5,1,2.9,1.4,4.3h0.1c0.4-1.4,0.9-2.8,1.4-4.3l3.3-9.5h3.2L373,27.8h-2.9l-6.4-16.9H366.9z"/>
	<path d="M386.5,6.1c0,1-0.7,1.9-2,1.9c-1.1,0-1.9-0.8-1.9-1.9c0-1.1,0.8-1.9,1.9-1.9C385.8,4.1,386.5,5,386.5,6.1z M383.1,27.8
		V10.8h3.1v16.9H383.1z"/>
	<path d="M406.4,2.9v20.5c0,1.5,0,3.2,0.1,4.4h-2.8l-0.1-2.9h-0.1c-0.9,1.9-3,3.3-5.8,3.3c-4.1,0-7.2-3.5-7.2-8.6
		c0-5.6,3.5-9.1,7.6-9.1c2.6,0,4.3,1.2,5.1,2.6h0.1V2.9H406.4z M403.4,17.7c0-0.4,0-0.9-0.1-1.3c-0.5-2-2.1-3.6-4.4-3.6
		c-3.2,0-5.1,2.8-5.1,6.5c0,3.4,1.7,6.3,5,6.3c2.1,0,4-1.4,4.5-3.7c0.1-0.4,0.1-0.8,0.1-1.3V17.7z"/>
	<path d="M413.8,19.9c0.1,4.2,2.7,5.9,5.8,5.9c2.2,0,3.5-0.4,4.7-0.9l0.5,2.2c-1.1,0.5-2.9,1-5.6,1c-5.2,0-8.3-3.4-8.3-8.5
		c0-5.1,3-9.1,7.9-9.1c5.5,0,7,4.9,7,8c0,0.6-0.1,1.1-0.1,1.4H413.8z M422.8,17.7c0-2-0.8-5-4.3-5c-3.1,0-4.5,2.9-4.7,5H422.8z"/>
	<path d="M430.1,16.1c0-2,0-3.7-0.1-5.3h2.7l0.1,3.3h0.1c0.8-2.3,2.6-3.7,4.7-3.7c0.4,0,0.6,0,0.9,0.1v2.9c-0.3-0.1-0.6-0.1-1-0.1
		c-2.2,0-3.7,1.6-4.1,4c-0.1,0.4-0.1,0.9-0.1,1.4v9h-3V16.1z"/>
	<path d="M441.7,24.6c0.9,0.6,2.5,1.2,4.1,1.2c2.2,0,3.3-1.1,3.3-2.5c0-1.5-0.9-2.3-3.2-3.1c-3-1.1-4.5-2.8-4.5-4.8
		c0-2.7,2.2-5,5.8-5c1.7,0,3.2,0.5,4.2,1.1l-0.8,2.2c-0.7-0.4-1.9-1-3.5-1c-1.8,0-2.8,1-2.8,2.3c0,1.4,1,2,3.2,2.9
		c2.9,1.1,4.4,2.6,4.4,5.1c0,3-2.3,5.1-6.3,5.1c-1.9,0-3.6-0.5-4.8-1.2L441.7,24.6z"/>
</g>
<g>
	<path fill="#999999" d="M268.4,38c-0.4,0.2-1.2,0.4-2.1,0.4c-2.3,0-4-1.4-4-4.1c0-2.5,1.7-4.2,4.2-4.2c1,0,1.6,0.2,1.9,0.4
		l-0.3,0.9c-0.4-0.2-1-0.3-1.6-0.3c-1.9,0-3.2,1.2-3.2,3.3c0,2,1.1,3.2,3.1,3.2c0.6,0,1.3-0.1,1.7-0.3L268.4,38z"/>
	<path fill="#999999" d="M274.8,35.3c0,2.1-1.5,3.1-2.9,3.1c-1.6,0-2.8-1.2-2.8-3c0-1.9,1.3-3.1,2.9-3.1
		C273.6,32.4,274.8,33.6,274.8,35.3z M270.2,35.4c0,1.3,0.7,2.2,1.8,2.2c1,0,1.8-0.9,1.8-2.3c0-1-0.5-2.2-1.7-2.2
		S270.2,34.3,270.2,35.4z"/>
	<path fill="#999999" d="M276.1,34.1c0-0.6,0-1.1,0-1.6h0.9l0.1,1h0c0.3-0.6,1-1.1,1.9-1.1c0.8,0,2.1,0.5,2.1,2.5v3.5H280v-3.3
		c0-0.9-0.3-1.7-1.3-1.7c-0.7,0-1.2,0.5-1.4,1.1c0,0.1-0.1,0.3-0.1,0.5v3.5h-1.1V34.1z"/>
	<path fill="#999999" d="M282.6,37.2c0.3,0.2,0.9,0.4,1.4,0.4c0.8,0,1.1-0.4,1.1-0.9c0-0.5-0.3-0.8-1.1-1.1c-1-0.4-1.5-0.9-1.5-1.6
		c0-0.9,0.8-1.7,2-1.7c0.6,0,1.1,0.2,1.4,0.4l-0.3,0.8c-0.2-0.1-0.6-0.3-1.2-0.3c-0.6,0-1,0.4-1,0.8c0,0.5,0.3,0.7,1.1,1
		c1,0.4,1.5,0.9,1.5,1.8c0,1-0.8,1.7-2.2,1.7c-0.6,0-1.2-0.2-1.6-0.4L282.6,37.2z"/>
	<path fill="#999999" d="M292.4,36.7c0,0.6,0,1.1,0,1.6h-0.9l-0.1-0.9h0c-0.3,0.5-0.9,1.1-1.9,1.1c-0.9,0-2-0.5-2-2.5v-3.4h1.1v3.2
		c0,1.1,0.3,1.8,1.3,1.8c0.7,0,1.2-0.5,1.4-1c0.1-0.2,0.1-0.3,0.1-0.5v-3.6h1.1V36.7z"/>
	<path fill="#999999" d="M294.1,29.8h1.1v8.5h-1.1V29.8z"/>
	<path fill="#999999" d="M298.2,30.8v1.7h1.5v0.8h-1.5v3.1c0,0.7,0.2,1.1,0.8,1.1c0.3,0,0.5,0,0.6-0.1l0,0.8
		c-0.2,0.1-0.5,0.1-0.9,0.1c-0.5,0-0.9-0.2-1.1-0.4c-0.3-0.3-0.4-0.8-0.4-1.5v-3.2h-0.9v-0.8h0.9v-1.4L298.2,30.8z"/>
	<path fill="#999999" d="M304.1,38.3l-0.1-0.7h0c-0.3,0.5-0.9,0.9-1.8,0.9c-1.2,0-1.8-0.8-1.8-1.7c0-1.4,1.2-2.2,3.5-2.2v-0.1
		c0-0.5-0.1-1.3-1.3-1.3c-0.5,0-1.1,0.2-1.5,0.4l-0.2-0.7c0.5-0.3,1.2-0.5,1.9-0.5c1.8,0,2.2,1.2,2.2,2.4v2.2c0,0.5,0,1,0.1,1.4
		H304.1z M304,35.3c-1.2,0-2.5,0.2-2.5,1.3c0,0.7,0.5,1,1,1c0.8,0,1.2-0.5,1.4-1c0-0.1,0.1-0.2,0.1-0.3V35.3z"/>
	<path fill="#999999" d="M306.7,34.1c0-0.6,0-1.1,0-1.6h0.9l0.1,1h0c0.3-0.6,1-1.1,1.9-1.1c0.8,0,2.1,0.5,2.1,2.5v3.5h-1.1v-3.3
		c0-0.9-0.3-1.7-1.3-1.7c-0.7,0-1.2,0.5-1.4,1.1c0,0.1-0.1,0.3-0.1,0.5v3.5h-1.1V34.1z"/>
	<path fill="#999999" d="M317.5,38.1c-0.3,0.1-0.9,0.3-1.7,0.3c-1.8,0-2.9-1.2-2.9-3c0-1.8,1.2-3.1,3.1-3.1c0.6,0,1.2,0.2,1.5,0.3
		l-0.2,0.8c-0.3-0.1-0.6-0.3-1.2-0.3c-1.3,0-2.1,1-2.1,2.2c0,1.3,0.9,2.2,2,2.2c0.6,0,1-0.2,1.3-0.3L317.5,38.1z"/>
	<path fill="#999999" d="M319.3,32.5l1.3,3.4c0.1,0.4,0.3,0.8,0.4,1.2h0c0.1-0.3,0.2-0.8,0.4-1.2l1.2-3.4h1.1l-1.6,4.1
		c-0.8,2-1.3,3-2,3.6c-0.5,0.5-1,0.6-1.3,0.7l-0.3-0.9c0.3-0.1,0.6-0.3,0.9-0.5c0.3-0.2,0.6-0.6,0.9-1.2c0-0.1,0.1-0.2,0.1-0.3
		c0-0.1,0-0.1-0.1-0.3l-2.1-5.3H319.3z"/>
	<path fill="#999999" d="M323.5,39.8c0.3-0.7,0.6-2,0.7-2.9l1.2-0.1c-0.3,1-0.8,2.4-1.1,2.9L323.5,39.8z"/>
	<path fill="#999999" d="M329.1,37c0.5,0.3,1.2,0.5,1.9,0.5c1.1,0,1.7-0.6,1.7-1.4c0-0.8-0.4-1.2-1.5-1.6c-1.3-0.5-2.1-1.2-2.1-2.3
		c0-1.3,1-2.2,2.6-2.2c0.8,0,1.4,0.2,1.8,0.4l-0.3,0.9c-0.3-0.1-0.8-0.4-1.5-0.4c-1.1,0-1.5,0.7-1.5,1.2c0,0.8,0.5,1.1,1.6,1.6
		c1.4,0.5,2.1,1.2,2.1,2.4c0,1.2-0.9,2.3-2.8,2.3c-0.8,0-1.6-0.2-2.1-0.5L329.1,37z"/>
	<path fill="#999999" d="M340,36.7c0,0.6,0,1.1,0,1.6h-0.9l-0.1-0.9h0c-0.3,0.5-0.9,1.1-1.9,1.1c-0.9,0-2-0.5-2-2.5v-3.4h1.1v3.2
		c0,1.1,0.3,1.8,1.3,1.8c0.7,0,1.2-0.5,1.4-1c0.1-0.2,0.1-0.3,0.1-0.5v-3.6h1.1V36.7z"/>
	<path fill="#999999" d="M341.7,34.3c0-0.7,0-1.3,0-1.8h0.9l0,1.1h0c0.3-0.8,0.9-1.3,1.6-1.3c0.1,0,0.2,0,0.3,0v1
		c-0.1,0-0.2,0-0.4,0c-0.7,0-1.3,0.6-1.4,1.4c0,0.1,0,0.3,0,0.5v3.1h-1V34.3z"/>
	<path fill="#999999" d="M346.3,32.5l1.1,3.3c0.2,0.5,0.3,1,0.5,1.5h0c0.1-0.5,0.3-1,0.5-1.5l1.1-3.3h1.1l-2.3,5.8h-1l-2.2-5.8
		H346.3z"/>
	<path fill="#999999" d="M352.2,35.6c0,1.4,0.9,2,2,2c0.8,0,1.2-0.1,1.6-0.3l0.2,0.8c-0.4,0.2-1,0.4-1.9,0.4c-1.8,0-2.9-1.2-2.9-2.9
		s1-3.1,2.7-3.1c1.9,0,2.4,1.7,2.4,2.7c0,0.2,0,0.4,0,0.5H352.2z M355.3,34.8c0-0.7-0.3-1.7-1.5-1.7c-1.1,0-1.5,1-1.6,1.7H355.3z"/>
	<path fill="#999999" d="M358,32.5l1.3,3.4c0.1,0.4,0.3,0.8,0.4,1.2h0c0.1-0.3,0.2-0.8,0.4-1.2l1.2-3.4h1.1l-1.6,4.1
		c-0.8,2-1.3,3-2,3.6c-0.5,0.5-1,0.6-1.3,0.7l-0.3-0.9c0.3-0.1,0.6-0.3,0.9-0.5c0.3-0.2,0.6-0.6,0.9-1.2c0-0.1,0.1-0.2,0.1-0.3
		c0-0.1,0-0.1-0.1-0.3l-2.1-5.3H358z"/>
	<path fill="#999999" d="M363,37.2c0.3,0.2,0.9,0.4,1.4,0.4c0.8,0,1.1-0.4,1.1-0.9c0-0.5-0.3-0.8-1.1-1.1c-1-0.4-1.5-0.9-1.5-1.6
		c0-0.9,0.8-1.7,2-1.7c0.6,0,1.1,0.2,1.4,0.4l-0.3,0.8c-0.2-0.1-0.6-0.3-1.2-0.3c-0.6,0-1,0.4-1,0.8c0,0.5,0.3,0.7,1.1,1
		c1,0.4,1.5,0.9,1.5,1.8c0,1-0.8,1.7-2.2,1.7c-0.6,0-1.2-0.2-1.6-0.4L363,37.2z"/>
	<path fill="#999999" d="M375.6,38.3c-0.2-0.2-0.4-0.5-0.8-0.8c-0.7,0.6-1.5,0.9-2.4,0.9c-1.6,0-2.5-1.1-2.5-2.3
		c0-1.1,0.7-1.9,1.6-2.4v0c-0.4-0.5-0.7-1.1-0.7-1.7c0-1,0.7-2,2.1-2c1,0,1.8,0.7,1.8,1.7c0,0.9-0.5,1.5-1.8,2.2v0
		c0.7,0.8,1.5,1.7,2,2.3c0.4-0.6,0.6-1.3,0.8-2.4h1c-0.2,1.3-0.6,2.3-1.2,3c0.4,0.5,0.9,0.9,1.3,1.4H375.6z M374.3,36.9
		c-0.5-0.5-1.4-1.5-2.3-2.5c-0.4,0.3-1,0.8-1,1.6c0,0.9,0.7,1.6,1.7,1.6C373.3,37.6,373.9,37.3,374.3,36.9z M371.8,32
		c0,0.6,0.3,1,0.6,1.5c0.8-0.5,1.3-0.9,1.3-1.6c0-0.5-0.3-1-0.9-1C372.2,30.8,371.8,31.4,371.8,32z"/>
	<path fill="#999999" d="M381.6,35.8l-0.8,2.5h-1.1l2.7-8.1h1.3l2.8,8.1h-1.1l-0.9-2.5H381.6z M384.3,34.9l-0.8-2.3
		c-0.2-0.5-0.3-1-0.4-1.5h0c-0.1,0.5-0.3,1-0.4,1.5l-0.8,2.3H384.3z"/>
	<path fill="#999999" d="M388.8,30.9c0,0.4-0.3,0.6-0.7,0.6c-0.4,0-0.6-0.3-0.6-0.6c0-0.4,0.3-0.7,0.7-0.7
		C388.5,30.2,388.8,30.5,388.8,30.9z M387.6,38.3v-5.8h1.1v5.8H387.6z"/>
	<path fill="#999999" d="M390.4,34.3c0-0.7,0-1.3,0-1.8h0.9l0,1.1h0c0.3-0.8,0.9-1.3,1.6-1.3c0.1,0,0.2,0,0.3,0v1
		c-0.1,0-0.2,0-0.4,0c-0.7,0-1.3,0.6-1.4,1.4c0,0.1,0,0.3,0,0.5v3.1h-1V34.3z"/>
	<path fill="#999999" d="M403.7,34.7c-0.1-1.1-0.1-2.5-0.1-3.5h0c-0.3,0.9-0.6,2-1,3.1l-1.4,3.9h-0.8l-1.3-3.8
		c-0.4-1.1-0.7-2.2-0.9-3.1h0c0,1-0.1,2.4-0.2,3.6l-0.2,3.5h-1l0.6-8.1h1.3l1.4,3.9c0.3,1,0.6,1.9,0.8,2.7h0
		c0.2-0.8,0.5-1.7,0.9-2.7l1.4-3.9h1.3l0.5,8.1h-1L403.7,34.7z"/>
	<path fill="#999999" d="M411.8,35.3c0,2.1-1.5,3.1-2.9,3.1c-1.6,0-2.8-1.2-2.8-3c0-1.9,1.3-3.1,2.9-3.1
		C410.7,32.4,411.8,33.6,411.8,35.3z M407.2,35.4c0,1.3,0.7,2.2,1.8,2.2c1,0,1.8-0.9,1.8-2.3c0-1-0.5-2.2-1.7-2.2
		C407.8,33.1,407.2,34.3,407.2,35.4z"/>
	<path fill="#999999" d="M413.2,34.1c0-0.6,0-1.1,0-1.6h0.9l0.1,1h0c0.3-0.6,1-1.1,1.9-1.1c0.8,0,2.1,0.5,2.1,2.5v3.5H417v-3.3
		c0-0.9-0.3-1.7-1.3-1.7c-0.7,0-1.2,0.5-1.4,1.1c0,0.1-0.1,0.3-0.1,0.5v3.5h-1.1V34.1z"/>
	<path fill="#999999" d="M421,30.9c0,0.4-0.3,0.6-0.7,0.6c-0.4,0-0.6-0.3-0.6-0.6c0-0.4,0.3-0.7,0.7-0.7
		C420.7,30.2,421,30.5,421,30.9z M419.8,38.3v-5.8h1.1v5.8H419.8z"/>
	<path fill="#999999" d="M423.9,30.8v1.7h1.5v0.8h-1.5v3.1c0,0.7,0.2,1.1,0.8,1.1c0.3,0,0.5,0,0.6-0.1l0,0.8
		c-0.2,0.1-0.5,0.1-0.9,0.1c-0.5,0-0.9-0.2-1.1-0.4c-0.3-0.3-0.4-0.8-0.4-1.5v-3.2H422v-0.8h0.9v-1.4L423.9,30.8z"/>
	<path fill="#999999" d="M431.8,35.3c0,2.1-1.5,3.1-2.9,3.1c-1.6,0-2.8-1.2-2.8-3c0-1.9,1.3-3.1,2.9-3.1
		C430.7,32.4,431.8,33.6,431.8,35.3z M427.2,35.4c0,1.3,0.7,2.2,1.8,2.2c1,0,1.8-0.9,1.8-2.3c0-1-0.5-2.2-1.7-2.2
		S427.2,34.3,427.2,35.4z"/>
	<path fill="#999999" d="M433.1,34.3c0-0.7,0-1.3,0-1.8h0.9l0,1.1h0c0.3-0.8,0.9-1.3,1.6-1.3c0.1,0,0.2,0,0.3,0v1
		c-0.1,0-0.2,0-0.4,0c-0.7,0-1.3,0.6-1.4,1.4c0,0.1,0,0.3,0,0.5v3.1h-1V34.3z"/>
	<path fill="#999999" d="M438.3,30.9c0,0.4-0.3,0.6-0.7,0.6c-0.4,0-0.6-0.3-0.6-0.6c0-0.4,0.3-0.7,0.7-0.7
		C438,30.2,438.3,30.5,438.3,30.9z M437.1,38.3v-5.8h1.1v5.8H437.1z"/>
	<path fill="#999999" d="M439.9,34.1c0-0.6,0-1.1,0-1.6h0.9l0.1,1h0c0.3-0.6,1-1.1,1.9-1.1c0.8,0,2.1,0.5,2.1,2.5v3.5h-1.1v-3.3
		c0-0.9-0.3-1.7-1.3-1.7c-0.7,0-1.2,0.5-1.4,1.1c0,0.1-0.1,0.3-0.1,0.5v3.5h-1.1V34.1z"/>
	<path fill="#999999" d="M451.6,32.5c0,0.4,0,0.9,0,1.6v3.4c0,1.3-0.3,2.1-0.8,2.7c-0.6,0.5-1.4,0.7-2.1,0.7c-0.7,0-1.5-0.2-1.9-0.5
		l0.3-0.8c0.4,0.2,1,0.5,1.7,0.5c1.1,0,1.9-0.6,1.9-2v-0.6h0c-0.3,0.5-0.9,1-1.8,1c-1.4,0-2.5-1.2-2.5-2.8c0-2,1.3-3.1,2.6-3.1
		c1,0,1.6,0.5,1.8,1h0l0-0.9H451.6z M450.5,34.8c0-0.2,0-0.3-0.1-0.5c-0.2-0.6-0.7-1.1-1.5-1.1c-1,0-1.7,0.9-1.7,2.2
		c0,1.1,0.6,2.1,1.7,2.1c0.6,0,1.2-0.4,1.5-1.1c0.1-0.2,0.1-0.4,0.1-0.6V34.8z"/>
</g>
<circle fill="#E6332A" cx="15.9" cy="15.9" r="7.1"/>
<g>
	<path fill="#E6332A" d="M5.2,14.8c0.5-5.1,4.5-9.1,9.6-9.6V0C6.9,0.5,0.5,6.9,0,14.8H5.2z"/>
	<path fill="#E6332A" d="M16.9,5.2c5.1,0.5,9.1,4.5,9.6,9.6h5.2C31.2,6.9,24.8,0.5,16.9,0V5.2z"/>
	<path fill="#E6332A" d="M14.8,26.5c-5.1-0.5-9.1-4.5-9.6-9.6H0c0.5,8,6.9,14.3,14.8,14.8V26.5z"/>
	<path fill="#E6332A" d="M26.5,16.9c-0.5,5.1-4.5,9.1-9.6,9.6v5.2c8-0.5,14.3-6.9,14.8-14.8H26.5z"/>
</g>
</svg>
