<?xml version="1.0" encoding="utf-8"?>
<!-- Generator: Adobe Illustrator 18.1.1, SVG Export Plug-In . SVG Version: 6.00 Build 0)  -->
<svg version="1.1" id="Layer_1" xmlns="http://www.w3.org/2000/svg" xmlns:xlink="http://www.w3.org/1999/xlink" x="0px" y="0px"
	 viewBox="0 0 595.3 841.9" enable-background="new 0 0 595.3 841.9" xml:space="preserve">
<g>
	<path fill="#E6332A" d="M187.3,249.6c19.6,34,38.9,67.4,58.4,101.2c-9.2,6-14.7,14.5-17,25c-2.4,10.8-2.1,21.7,0.2,32.4
		c8,37.1,25.3,68.9,54.1,94c10.5,9.1,22.5,15.8,36.9,15.5c6.4-0.2,12.8-2.3,20-3.6c18.8,32.5,38.1,66,57.6,99.8
		c-21.1,12.3-42.2,22.8-66.8,13c-10.6-4.2-20.7-10.4-30-17c-24.5-17.6-44.8-39.6-63.2-63.4c-34.8-45-62.3-94.2-81-148.1
		c-9.1-26.4-15.4-53.4-16.1-81.5c-0.5-23.4,8.3-42,27.9-55.1C174.5,257.6,180.7,253.8,187.3,249.6z"/>
	<path fill="#E6332A" d="M265.1,349.6c-6.7-0.1-10.5-2.4-13.1-6.8c-18.2-31.4-36.4-62.8-54.4-94.3c-4.1-7.2-2.1-14.4,5-18.7
		c9-5.4,18.2-10.7,27.4-15.8c7.4-4.1,14.8-2.2,19.1,5.2c18,31.1,36,62.2,53.9,93.4c4.4,7.7,2.4,14.9-5.2,19.4
		c-8.9,5.3-17.9,10.5-27,15.5C268.7,348.7,266.2,349.3,265.1,349.6z"/>
	<path fill="#E6332A" d="M415.7,610.4c-6.5-0.1-10.4-2.2-12.8-6.4c-18.4-31.7-36.7-63.4-54.9-95.2c-3.8-6.7-1.7-13.9,4.9-17.9
		c9.3-5.6,18.8-11.1,28.3-16.3c6.9-3.8,14.3-1.8,18.4,5.1c18.2,31.4,36.4,62.8,54.4,94.3c4.1,7.2,2,14.4-5.1,18.7
		c-9.1,5.4-18.2,10.7-27.4,15.8C419.3,609.6,416.7,610.1,415.7,610.4z"/>
</g>
</svg>
