<?xml version="1.0" encoding="utf-8"?>
<!-- Generator: Adobe Illustrator 21.0.0, SVG Export Plug-In . SVG Version: 6.00 Build 0)  -->
<svg version="1.1" id="Layer_1" xmlns="http://www.w3.org/2000/svg" xmlns:xlink="http://www.w3.org/1999/xlink" x="0px" y="0px"
	 viewBox="0 0 390 106" enable-background="new 0 0 390 106" xml:space="preserve">
<path fill="#FFFFFF" d="M187.6,73.4c1-1.1,1.4-2.7,1.4-4.3c0-1.5-0.4-2.9-1.3-3.9c-1-1.1-2.5-1.7-4.8-1.7h-4.8v11.6h4.8
	C185.2,75.1,186.7,74.5,187.6,73.4 M196.3,43h15.3v-0.2c0-1.8-0.7-3.5-1.8-4.7c-1.3-1.4-3.2-2.1-5.7-2.1
	C200.1,36.1,196.8,38.5,196.3,43 M228.6,43h15.3v-0.2c0-1.8-0.7-3.5-1.8-4.7c-1.3-1.4-3.2-2.1-5.7-2.1
	C232.5,36.1,229.1,38.5,228.6,43 M247,69.3c0-3-2-6.1-6.2-6.1c-4.2,0-6.2,3-6.2,6.1c0,3,2,6.1,6.2,6.1C245,75.4,247,72.3,247,69.3
	 M261.5,68.2c2.1,0,3.5-0.6,3.5-2.4c0-1.9-1.4-2.3-3.4-2.3h-4.8v4.7H261.5z M277.8,70.9h6.3c-1-2.1-2.1-4.5-3.2-6.5
	C279.9,66.4,279,68.4,277.8,70.9 M321.8,69.3c0-3-2-6.1-6.2-6.1c-4.2,0-6.1,3-6.1,6.1c0,3,2,6.1,6.1,6.1
	C319.8,75.4,321.8,72.3,321.8,69.3 M336.3,68.2c2.1,0,3.5-0.6,3.5-2.4c0-1.9-1.4-2.3-3.4-2.3h-4.8v4.7H336.3z M349.9,65.2
	c0,1.2,1.2,1.8,2.9,2.1l2.9,0.6c3.7,0.8,5.3,2.3,5.3,5c0,3.5-2.7,5.5-7.3,5.5c-2.9,0-5.9-1.1-8-2.6l1.4-2.5c2,1.3,4.5,2.1,6.5,2.1
	c2.9,0,4.2-1.1,4.2-2.4c0-1-0.8-1.7-2.7-2.1l-3-0.6c-3.5-0.7-5.3-2.4-5.3-5.1c0-3.1,2.9-5,7.2-5c2.4,0,4.7,0.8,6.8,2l-1.2,2.6
	c-1.8-0.9-3.9-1.5-5.6-1.5C351.4,63.3,349.9,64,349.9,65.2 M344.4,75.9l-0.4,2.6l-1.4-0.2c-1.6-0.3-3-1.1-4-2.4l-3.8-4.7h-3.3v6.9
	h-3.3V60.5h8.1c3.8,0,6.8,1.2,6.8,5.2c0,3.2-1.7,4.8-4.4,5.3l2.6,3c0.7,0.8,1.5,1.3,2.1,1.5L344.4,75.9z M325.2,69.3
	c0,4.7-3.1,9.1-9.5,9.1c-6.4,0-9.5-4.4-9.5-9.1c0-4.7,3.1-9.1,9.5-9.1C322.1,60.2,325.2,64.6,325.2,69.3 M305.2,63.5h-6.8v14.6h-3.3
	V63.5h-6.3v-3h16.4V63.5z M282.5,60.5c3.1,5.5,5.7,11.6,8.1,17.6h-3.5c-0.5-1.5-1-2.7-1.7-4.3h-8.8c-0.6,1.5-1.1,2.9-1.6,4.3h-3.5
	c2.3-6.1,5-12.3,8.1-17.6H282.5z M274.5,36.3v9.3c0,2.1,0.2,3.5,1.1,4.5c0.8,1,2,1.3,3.5,1.6l1,0.2l-0.1,1.4l-1.2-0.1
	c-4.4-0.4-6.1-2.3-6.1-7.4v-17h1.9v6.1h5.5v1.5H274.5z M269.6,75.9l-0.4,2.6l-1.4-0.2c-1.6-0.3-2.9-1.1-4-2.4l-3.8-4.7h-3.3v6.9
	h-3.3V60.5h8.2c3.8,0,6.7,1.2,6.7,5.2c0,3.2-1.7,4.8-4.4,5.3l2.5,3c0.6,0.8,1.5,1.3,2.1,1.5L269.6,75.9z M268.1,37.3l-0.9,1.1
	c-2-1.4-4.3-2.4-7-2.4c-4.7,0-8.3,3-8.3,7.9c0,5,3.5,7.9,8.4,7.9c2.6,0,5-0.9,6.9-2.2l0.9,1.1c-2.1,1.6-4.7,2.6-7.9,2.6
	c-6.6,0-10.2-4.1-10.2-9.5c0-5.6,4.2-9.5,10.2-9.5C263.3,34.5,265.9,35.5,268.1,37.3 M250.3,69.3c0,4.7-3.1,9.1-9.5,9.1
	c-6.4,0-9.5-4.4-9.5-9.1c0-4.7,3.1-9.1,9.5-9.1C247.3,60.2,250.3,64.6,250.3,69.3 M245.9,44.5h-17.2c0.1,2.4,0.9,4.1,2.3,5.3
	c1.5,1.3,3.2,2,5.8,2c2.8,0,5.5-1,7.2-2.3l0.9,1.1c-2.2,1.8-5,2.7-8.1,2.7c-3.5,0-5.8-1.1-7.3-2.5c-2.1-2-2.7-4.6-2.7-7
	c0-4.3,3-9.4,9.7-9.4c3,0,5.4,0.8,7.1,2.6c1.8,1.8,2.4,4.6,2.4,7.3V44.5z M224.1,52.2l-0.1,1.4l-0.5,0c-3.7-0.3-5.2-2.1-5.2-6V28.7
	h1.9v18.7c0,3,0.8,4.5,3.6,4.8L224.1,52.2z M221,60.2c3,0,5.9,1.3,8.1,3.2l-1.8,2.3c-1.8-1.4-4.1-2.5-6.3-2.5
	c-3.7,0-6.3,2.6-6.3,6.1c0,3.6,2.4,6.1,6.3,6.1c2.1,0,4.4-1,6.3-2.4l1.8,2.2c-2.3,1.9-4.9,3.1-8.1,3.1c-6.4,0-9.7-3.9-9.7-9.1
	C211.3,64,215.2,60.2,221,60.2 M213.5,44.5h-17.2c0.1,2.4,0.9,4.1,2.3,5.3c1.5,1.3,3.2,2,5.8,2c2.8,0,5.4-1,7.2-2.3l0.9,1.1
	c-2.2,1.8-5,2.7-8.1,2.7c-3.5,0-5.8-1.1-7.4-2.5c-2.1-2-2.7-4.6-2.7-7c0-4.3,3-9.4,9.7-9.4c3,0,5.4,0.8,7.1,2.6
	c1.8,1.8,2.4,4.6,2.4,7.3V44.5z M192.4,69.2c0,2.4-0.7,4.7-2.3,6.4c-1.6,1.6-3.8,2.6-7,2.6h-8.3V60.5h8.3c3.2,0,5.2,0.9,6.8,2.3
	C191.6,64.4,192.4,66.7,192.4,69.2 M177.2,39.4c0,1.1,0.4,1.8,1.2,2.4c0.7,0.5,1.8,0.8,3.1,1.1l3.3,0.6c3.8,0.8,5.5,2.1,5.5,4.7
	c0,3.3-2.7,5.3-7.3,5.3c-3.3,0-6-0.8-8.2-2.1l0.6-1.3c2,1.1,5,1.9,7.3,1.9c4.3,0,5.8-1.4,5.8-3.6c0-1.7-1.2-2.7-4.1-3.3l-3.4-0.6
	c-4.2-0.8-5.8-2.3-5.8-4.9c0-3.2,3.2-5,7.6-5c2.3,0,4.8,0.7,6.6,1.7l-0.6,1.2c-1.8-0.8-3.9-1.3-6-1.3
	C179.3,36,177.2,37.3,177.2,39.4 M195.5,60.5h14v3h-10.7v4.1h9.2v3h-9.2v4.5h10.9v3h-14.2V60.5z M380,97.1V29.6
	c0-11.1-9-20.1-20.1-20.1H155.8v87.6H380z"/>
<g>
	<path fill="#FFFFFF" d="M34.5,56.3c-0.1,0-0.1,0.1-0.1,0.2v17.9c3,0.1,5.5,0,7.2-1.4c2.8-2.4,3.6-10.5,1.4-14.1
		C41.5,56.5,38.5,56.2,34.5,56.3z"/>
	<path fill="#FFFFFF" d="M10.7,9.5V77c0,11.1,9,20.1,20.1,20.1h121.5V9.5H10.7z M44.8,76.6c-2.1,1-4.4,1.3-7.9,1.3h-4.6
		c-1,0-3.7,0.4-4.3-0.2c-0.5-0.5-0.2-4.5-0.2-5.6V60.6c0-2,0.2-4.1-0.1-5.7c-0.2-0.9-0.6-1.5-0.8-2c6.3,0.3,12.9-0.8,17.4,0.8
		c4.5,1.6,7,5,7,11.2C51.3,70.7,48.9,74.7,44.8,76.6z M72,64.7c0,4.2,0,9.1,0,12.9c-3-0.9-5.6,0.8-8.5,1.1c-3.6,0.3-7.2-0.5-8.7-2.7
		c-2-2.9-0.5-9.2-1-13.7c-0.1-0.8-0.4-1.6-1-2.3c2,0.1,6-0.8,6.8,1.1c0.5,1.3,0.1,4.7,0.1,6.3c0,2.2-0.4,4.8,0.2,6.3
		c0.8,2.1,4.6,2.5,5.6,0.2c0.7-1.6,0.3-4.9,0.3-6.8c0-2.5,0-4.5,0-7.1c2.1,0.3,4.6-0.7,5.6,0.8C72.2,61.6,72,63.3,72,64.7z
		 M80.8,61.2v16.7h-3c-0.7,0-2.3,0.2-2.8-0.2c-0.5-0.5-0.2-3.6-0.2-5.1V62.1c0-3,0.4-5.9-0.9-7.4c2.2,0.2,6-0.7,6.8,1.1
		C81.2,56.9,80.8,59.7,80.8,61.2z M101.9,65.2c0,4,0,8.7,0,12.5c-2.9-0.9-5.6,0.9-8.4,1.1c-4.3,0.3-8.3-0.8-9.4-4
		c-0.6-1.7-0.4-4-0.4-6.3c0-2.8,0.5-7-1-8.3c1.9,0.1,5.9-0.8,6.8,0.8c0.6,1.1,0.2,4.9,0.2,6.6c0,3.4-0.5,6.6,1.4,7.7
		c1.6,0.8,3.9,0.1,4.5-1.3c0.6-1.4,0.2-5,0.2-6.8v-7c2.3,0.2,5.1-0.7,5.9,1.1C102.1,62.1,101.9,63.7,101.9,65.2z M116.5,77.5
		c-0.8-0.5-1.3-1.5-1.9-2.3c-0.6-0.8-1.3-1.6-1.8-2.5c-1.5,1.6-2.8,3.5-4.2,5.2c-1.5-0.1-3.6,0.3-4.8-0.2c0.1-1,0.9-1.6,1.5-2.3
		c1.6-2.1,3.2-4.2,4.9-6.3c-2.5-3-4.1-6.8-7.3-9.1c2.7,0.2,6.3-0.7,7.9,0.6c1.4,1.1,1.8,2.7,3,3.9c1.4-1.4,2.4-3.1,3.8-4.6h2.5
		c0.8,0,1.7-0.2,2.3,0.2c-0.1,0.8-0.8,1.5-1.3,2.1c-1.5,1.9-3.1,3.9-4.7,5.8c2.3,3.3,4.9,6.6,7,9.8
		C120.9,77.6,118.1,78.5,116.5,77.5z M136.2,55.4c-0.7,1.2-1.6,2.3-2.3,3.5c-0.8,1.4-0.8,2.7-0.6,4.7c0.2,3.5-1,5.4-2.5,7.5
		c-0.5,0.7-1.1,1.7-1.5,2.6c-0.4,1-0.9,2.2-2.2,1.5c-0.3-1,0.7-1.6,1.2-2.2c0.5-0.6,0.8-1.5,1.3-2.3c0.7-1.4,1.9-3.3,1.1-5.2
		c-1.8,0.8-3.1,2.1-4.2,3.7c-0.3,0.5-0.7,1.2-1.5,1.1c-0.3-0.6,0-1.1,0.3-1.5c0.3-0.4,0.7-0.5,1-0.8c0.5-0.6,0.9-1.7,1.5-2.5
		c0.7-1.1,2.4-2.2,1.7-3.8c-0.5-1.1-1.8-0.7-3-1.1c-0.2-0.1-0.9-0.5-1.2-0.8c-0.7-0.7-2.1-2.7-0.1-2.8c0.4,0.6-0.1,0.7,0,1.3
		c0.2,0.8,1.6,1.1,3,1c1.1-0.1,3.5-1,4.4-1.5c2.1-1.3,3.6-4.1,3.9-6.9c0.3-3.4-0.5-7.1-3-8.7c-1.1-0.7-2.5-0.6-4.2-0.8
		c-2.9-0.2-5-1.5-6.5-3.2c-0.8-0.9-1.3-1.9-2.1-2.8c-3.6-4.1-14.1-5.7-19.9-2.3c-0.6,0.4-2,1-1.9,1.8c0.1,0.8,1.6,0.3,2.1,1
		c-0.1,0.6-0.8,0.8-1.2,1.1c-1.4,0.8-2.9,1.6-4.3,2.5c-1.9,1.2-3.8,2.2-5.2,3.8c1.1-0.2,2.1-0.9,3-1.5c2.9-1.7,5.8-3.3,9.1-4.8
		c3-1.4,6.7-2.5,11.2-2.7c1.8-0.1,4.1,0,5.1,0.8c0.2,0.2,0.6,0.4,0.5,0.6c-6.6-1-12.3,0.4-16.9,2.4c-4.6,2.1-8.8,4.6-13,6.9
		c-8.4,4.7-16.9,10-29.8,10c-18,0-26.1-10.4-31.4-23.2c-0.6-1.4-1.4-2.4-2.5-3.4c-0.3-0.3-0.8-0.5-0.8-1c0.8-0.4,1.8,0.1,2.3,0.4
		c1.1,1,1.3,3.2,2.5,3.9c0.2-0.8-0.3-1.7-0.7-2.8c-0.3-0.6-0.8-2.1-1.3-2.4c-0.3-0.2-0.9-0.2-1.3-0.4c-0.3-0.1-0.6-0.6-0.8-0.8
		c-0.4-0.3-0.9-0.4-0.8-0.9c0.2-0.6,1.1,0,1.3,0.2c0.5,0.3,0.8,0.7,1.3,0.8c0.4,0,0.1-0.6,0.4-0.7c1.5,0.5,2,2.1,3.3,2.9
		c0.5,0.3,1.2,0.4,1.7,0.7c0.8,0.5,1,1.6,1.8,2c0.3-0.2,0-1.1,0.4-1.2c1.5,0.6,2.1,3.7,4.2,3.6c1.6-0.1,0.9-1.7,1-2.9
		c1.3-0.2,1.4,1.3,2.5,1.3c0.9,0,1.2-1.1,2.2-1.1c1.1,0,2.2,2.1,2.8,3.2c2.3,3.8,5.2,6.8,8.5,9.4c4.3,3.3,9.5,6.7,17.1,6.8
		c9.7,0.1,14.4-5.8,19.2-11.4c-10.4,3-26.5,3.5-36.8,0c-0.6-0.2-1-0.3-1.6-0.6c0,0-0.3,0.1-0.2-0.1c9.3,3.1,23,2.9,32.7,0.4
		c1.6-0.4,3.2-0.9,4.7-1.4c1.5-0.5,3.2-0.9,4.4-1.7c0.6-0.3,1.1-0.9,1.6-1.3c3.6-3.1,7.7-5.3,14.3-5.6c3.6-0.1,7,0.6,9.9,1.5
		c2.9,0.9,5.6,1.9,8,3.4c4.4,2.7,8.6,7.1,8.9,13.8C138.5,50.2,137.6,52.9,136.2,55.4z"/>
</g>
</svg>
