<?xml version="1.0" encoding="utf-8"?>
<!-- Generator: Adobe Illustrator 21.0.0, SVG Export Plug-In . SVG Version: 6.00 Build 0)  -->
<svg version="1.1" id="Layer_1" xmlns="http://www.w3.org/2000/svg" xmlns:xlink="http://www.w3.org/1999/xlink" x="0px" y="0px"
	 viewBox="0 0 1200 500" enable-background="new 0 0 1200 500" xml:space="preserve">
<path fill="#44372E" d="M1189,0H987.5c110.9,0,200.9,111.9,200.9,250s-89.9,250-200.9,250l201.5-0.5v0.5h11V0H1189z"/>
<path fill="#44372E" d="M10.5,0L212,0C101.1,0,11.1,111.9,11.1,250S101.1,500,212,500l-201.5-0.5v0.5h-11V0L10.5,0z"/>
<path fill="none" stroke="#C2C2A4" stroke-width="3" stroke-miterlimit="10" d="M987.5,0c110.9,0,200.9,111.9,200.9,250
	s-89.9,250-200.9,250"/>
<path fill="none" stroke="#C2C2A4" stroke-width="3" stroke-miterlimit="10" d="M212,0C101.1,0,11.1,111.9,11.1,250
	S101.1,500,212,500"/>
</svg>
