<?xml version="1.0" encoding="utf-8"?>
<!-- Generator: Adobe Illustrator 21.0.2, SVG Export Plug-In . SVG Version: 6.00 Build 0)  -->
<svg version="1.1" id="Layer_1" xmlns="http://www.w3.org/2000/svg" xmlns:xlink="http://www.w3.org/1999/xlink" x="0px" y="0px"
	 viewBox="0 0 1800 1000" enable-background="new 0 0 1800 1000" xml:space="preserve">
<g>
	<g>
		<g>
			<path fill="#FFFFFF" d="M976.7,559.1c-9.5,0-16.5-6.8-16.5-14.5c0-20.7,30.2-43.3,49.9-43.3c5.4,0,9.3,3,9.3,9.1
				c0,14.8-21.6,27.5-43.8,27.9c-0.2,0.9-0.2,1.6-0.2,2.1c0,5.5,2.3,7.5,7.3,7.5c21.6,0,50.1-24.1,53.8-27.4
				c1.3-1.1,1.8-1.3,2.3-1.3c2.1,0,5,3.1,5,5.5c0,0.5-0.2,1.4-1.4,2.5C1038.8,530.6,1005.5,559.1,976.7,559.1z M1005.7,511.3
				c-5.9,0-19.8,9.3-26.5,19.1c12.5,0,29.9-10.2,29.9-15.9C1009.1,512.9,1008.2,511.3,1005.7,511.3z"/>
		</g>
		<g>
			<path fill="#FFFFFF" d="M1064.7,511c-2.1,3-6.3,7.7-11.4,14.3c19.1-13.2,39.2-22.7,45.8-22.7c2.7,0,5.2,4.6,5.2,7.3
				c0,3.2-10.2,9.5-15,13.6c-7.2,5.9-15,14-15,19.5c0,2.1,1.2,4.1,3.4,4.1c11.3,0,22.4-10.4,41.1-26.5c1.3-1.1,1.8-1.3,2.3-1.3
				c2.1,0,5,3.1,5,5.5c0,0.5-0.2,1.4-1.4,2.5c-13.8,11.8-35.4,31.1-51.7,31.1c-7.3,0-12.9-4.8-12.9-12c0-8.2,5.9-15.9,14.1-23.6
				c-17.9,9.8-27.7,18.1-39.7,31.3c-2,2.1-3.6,3.8-5,3.8c-2.1,0-6.6-3-6.6-4.8c0-1.8,1.6-3.7,2.5-5l13.1-20c-1.4-0.9-3.2-2.9-3.2-5
				c0-0.9,0.2-1.4,1.4-2.5c3.8-3.2,11.4-10.9,19.3-20.4c1.1-1.2,2.3-1.8,3.9-1.8c3,0,6.6,5.2,6.6,8.4
				C1066.5,508.3,1066,509.2,1064.7,511z"/>
		</g>
		<g>
			<path fill="#FFFFFF" d="M1129.6,564.3c6.6-6.4,12.9-13.1,18.6-19.9c-9.5,7.7-20.8,14.7-31.1,14.7c-8.2,0-12.3-5.4-12.3-14
				c0-21.6,30.6-42.9,52.8-42.9c8.2,0,13.2,4.3,14.8,9.8l8.4-7.3c2-1.6,3.4-2,4.1-2c2.1,0,5.2,3.8,5.2,7.2c0,0.7-0.2,2-1.8,3.6
				c-3.9,3.8-11.6,11.8-25.2,27.4l-13.2,15c3.1-1.4,6.1-2.7,9.1-4.5c28.4-14.7,40.1-26.5,45.1-30.8c1.2-1.1,1.8-1.3,2.3-1.3
				c2.1,0,5,3.1,5,5.5c0,0.5-0.2,1.4-1.4,2.5c-5,4.3-15.2,15.2-45.1,31.5c-7.9,4.3-19.1,8.9-30.2,13.6
				c-38.5,40.8-518.9,388-540.6,388c-5,0-11.3-2.7-11.3-11.3c0-20,481.3-354.7,515.9-371.7C1106.7,573.6,1117.8,569.3,1129.6,564.3z
				 M598.8,947.8c10.4,0,480.8-334.5,513.2-365.5c-5.9,2.5-10.7,5-14.8,7.2c-28.8,15.9-500.8,348.8-500.8,356.2
				C596.2,947.6,597.3,947.8,598.8,947.8z M1123.5,546.2c10,0,25.8-13.4,40.8-26.8c-0.7-3.2-2.9-6.4-8-6.4
				c-12.2,0-37.6,17.7-37.6,29.2C1118.7,544.4,1119.8,546.2,1123.5,546.2z"/>
		</g>
		<g>
			<path fill="#FFFFFF" d="M1212.4,545.7c7.7,0,29.9-20.7,34.9-25c1.2-1.1,1.8-1.3,2.3-1.3c2.3,0,5,3.1,5,5.5c0,0.5-0.2,1.4-1.4,2.5
				c-8.8,7.5-32.9,31.7-47,31.7c-6.8,0-11.4-4.8-11.4-13.4c0-19.1,24.3-46.1,40.3-64l-154.2-1.5c-2.5,0-3.6-0.7-3.6-1.8
				c0-2.9,5.4-7.5,12.3-8.6c11.4-1.6,147.4-1,158.4-1.2c15.9-15.6,60.6-57.2,69.2-64.2c2.7-2.1,5.2-3.2,7-3.2c1.4,0,2.5,0.9,2.5,2.5
				c0,1.6-1.1,4.1-3.2,7.2c-6.1,7.9-46,47.9-57.4,60.2l7.3,0.7c2.1,0.4,3,1.1,3,2.5c0,2.7-5.5,7.3-9.3,7.3h-11.5
				c-12.9,13.4-26.3,26.7-37.2,37c-6.1,7.3-11.1,14.5-11.1,21.6C1207.3,543.3,1209.2,545.7,1212.4,545.7z"/>
		</g>
		<g>
			<path fill="#FFFFFF" d="M1247.3,520.6c3.8-3.2,22.9-21.5,36.9-36c36.8-42.4,73-71.8,96.2-91.3c4.6-3.9,8.8-5.7,11.8-5.7
				c2.2,0,3.6,1.1,3.6,3.2c0,2.5-2,6.1-6.1,10.4c-37.4,40.1-60.8,57.2-107.3,101.4c-7.7,8-14.5,16.1-20.9,24.5
				c20-14.1,41.5-24.5,48.3-24.5c2.7,0,5.2,4.6,5.2,7.3c0,3.2-10.2,9.5-15,13.6c-7.1,5.9-15,14-15,19.5c0,2.1,1.2,4.1,3.4,4.1
				c11.8,0,37.4-23.3,41.1-26.5c1.2-1.1,1.8-1.3,2.3-1.3c2.1,0,5,3.1,5,5.5c0,0.5-0.2,1.4-1.4,2.5c-3.8,3.2-32.4,31.1-51.7,31.1
				c-7.3,0-12.9-4.8-12.9-12c0-8.2,5.9-15.9,14.1-23.6c-17.9,9.8-27.7,18.1-39.7,31.3c-2,2.1-3.6,3.8-5,3.8c-2.7,0-6.6-3-6.6-4.8
				c0-1.4,1.4-3.4,2.5-5c4.5-6.8,8.8-13.1,13.6-19.9c-1.4-0.5-3.8-2.7-3.8-5.2C1245.9,522.2,1245.9,521.9,1247.3,520.6z"/>
		</g>
		<g>
			<path fill="#FFFFFF" d="M1349.5,500.6c6.6-7.1,8.8-9.3,11.6-9.3c3.4,0,6.4,3.2,6.4,5.4c0,0.9-0.3,1.4-0.5,1.8
				c-6.4,6.8-4.5,15.6-6.1,29.7c-1.4,12.2-9.7,32-30.9,32c-9.1,0-12.9-5.9-12.9-10.9c0-2.5,4.6-6.8,7.2-6.8c0.5,0,1.1,0.2,1.2,0.9
				c0.9,2.3,2.5,4.1,5.4,4.1c6.4,0,16.1-7.5,18.8-21.6c1.1-5.5,0.9-9.7,1.1-14.5c-3.8,4.8-10.4,11.8-15.4,16.1
				c-1.2,1.1-1.8,1.3-2.3,1.3c-2.1,0-5-3.1-5-5.5c0-0.9,0.2-1.4,1.4-2.5C1336.9,514.2,1343,507.4,1349.5,500.6z"/>
		</g>
		<g>
			<g>
				<path fill="#FFFFFF" d="M1436.8,59.1c1.6-0.9,2.7-1.2,3.6-1.2c0.5,0,0.9,0.2,0.9,0.7c0,0.5-0.5,1.3-1.4,2.5
					c-3.5,4.8-113.3,100.9-220.2,194.2c2,1.8,3.8,3.7,5.6,5.8c113.8-101,232.6-208.1,232.6-216c0-2.9-1.1-5-3.6-5
					c-6.6,0-456.9,379.7-469.4,392.1c-27.7,27.4-58.8,60.3-71.2,88.2c-10.9,8.2-196.2,141.9-207.5,149.2c-0.7,0.5-1.3,1.4-1.3,2.5
					c0,2.7,3.1,6.3,5.4,6.3c0.5,0,0.9-0.2,1.4-0.5c7.9-5.7,189.6-137.3,197.7-143.2c-0.7,2.7-0.9,5.2-0.9,7.5
					c0,8.6,5,16.8,13.9,16.8c22.5,0,53.7-28.3,57.4-31.5c1.2-1.1,1.4-2,1.4-2.5c0-2.5-2.9-5.5-5-5.5c-0.5,0-1.1,0.2-2.3,1.3
					c-3.6,3-26.5,23.2-43.8,23.2c-5,0-6.3-5-6.3-8.6c0-3.7,2-9.7,4.3-15.4c33.5-26.1,63.9-52.2,93.9-79.6c9.2-8.4,47.2-41.6,97-85.6
					c-2-2.2-4-4.4-5.7-6.9c-50.6,44.2-88.7,77.6-95.7,84c-25.2,23.4-50.6,46.2-76.9,67.6c12.5-17.4,30.4-37,53.1-58.9
					C1005.8,429.3,1433.8,60.7,1436.8,59.1z"/>
			</g>
		</g>
	</g>
	<g>
		<g>
			<polygon fill="#9BBD39" points="234.6,246.9 221.6,246.9 221.6,368.3 300.4,368.3 300.4,355.4 234.6,355.4 			"/>
		</g>
		<g>
			<rect x="381.4" y="246.9" fill="#9BBD39" width="13" height="121.4"/>
		</g>
		<g>
			<polygon fill="#9BBD39" points="541.7,348.9 496.9,246.9 484.8,246.9 484.8,368.3 497.8,368.3 497.8,281.1 536.1,368.3 
				547.4,368.3 585.6,281.1 585.6,368.3 598.8,368.3 598.8,246.9 586.5,246.9 			"/>
		</g>
		<g>
			<polygon fill="#9BBD39" points="688.5,368.3 771.3,368.3 771.3,355.4 701.5,355.4 701.5,311.2 764.1,311.2 764.1,298.4 
				701.5,298.4 701.5,259.9 771.3,259.9 771.3,246.9 688.5,246.9 			"/>
		</g>
		<g>
			<polygon fill="#9BBD39" points="869.6,246.9 856.6,246.9 856.6,368.3 935.4,368.3 935.4,355.4 869.6,355.4 			"/>
		</g>
		<g>
			<rect x="1016.4" y="246.9" fill="#9BBD39" width="13" height="121.4"/>
		</g>
		<g>
			<polygon fill="#9BBD39" points="1397.6,298.3 1327.6,298.3 1327.6,246.9 1314.6,246.9 1314.6,368.3 1327.6,368.3 1327.6,311.4 
				1397.6,311.4 1397.6,368.3 1410.6,368.3 1410.6,246.9 1397.6,246.9 			"/>
		</g>
		<g>
			<polygon fill="#9BBD39" points="1487.8,246.9 1487.8,259.9 1526.3,259.9 1526.3,368.3 1539.3,368.3 1539.3,259.9 1577.9,259.9 
				1577.9,246.9 			"/>
		</g>
		<g>
			<g>
				<path fill="#9BBD39" d="M1214.6,286.9l0.8,2.2h13.8l-1.6-4.6c-3.3-9.7-8.4-17.8-15-24.2c-3.3,2.9-6.6,5.7-9.9,8.6
					C1207.8,273.6,1211.8,279.7,1214.6,286.9z"/>
			</g>
			<g>
				<path fill="#9BBD39" d="M1124.7,302.3c2.3-25.3,22.2-45.2,46.6-45.2c2.1,0,4.2,0.2,6.2,0.4c4.2-3.5,8.4-7.1,12.6-10.7
					c-5.9-1.8-12.2-2.7-18.8-2.7c-33.1,0-60,28.3-60,63c0,2.1,0.4,4.1,0.6,6.2C1116,309.7,1120.3,306,1124.7,302.3z"/>
			</g>
			<g>
				<path fill="#9BBD39" d="M1169,315.7h47.6c-3.6,25.1-21.5,41.6-45.3,41.6c-17.7,0-32.9-10.5-40.9-25.9c-3.4,2.9-6.7,5.8-10,8.7
					c10.6,18,29.4,30.2,51,30.2c19.1,0,35.5-8.4,45.9-23.1v21.1h13v-65.6H1169V315.7z"/>
			</g>
		</g>
	</g>
</g>
</svg>
